<mxfile host="www.draw.io" modified="2019-11-24T17:00:18.021Z" agent="Mozilla/5.0 (Windows NT 10.0; Win64; x64) AppleWebKit/537.36 (KHTML, like Gecko) Chrome/72.0.3626.96 Safari/537.36" etag="Jt0znO5AQruJCqEvcrZT" version="12.2.9" type="github" pages="1">
  <diagram id="V34rvX0TI3ITIP5iaCyQ" name="Page-1">
    <mxGraphModel dx="1633" dy="825" grid="1" gridSize="10" guides="1" tooltips="1" connect="1" arrows="1" fold="1" page="1" pageScale="1" pageWidth="827" pageHeight="1169" math="0" shadow="0">
      <root>
        <mxCell id="0"/>
        <mxCell id="1" parent="0"/>
        <mxCell id="NcRujNU-MuARHv59cEKX-683" value="" style="rounded=0;whiteSpace=wrap;html=1;glass=0;fontSize=18;align=left;" vertex="1" parent="1">
          <mxGeometry x="13" y="4130" width="802" height="360" as="geometry"/>
        </mxCell>
        <mxCell id="NcRujNU-MuARHv59cEKX-1" value="&lt;span style=&quot;font-size: 16px&quot;&gt;&lt;b&gt;Capacity&lt;/b&gt;&lt;/span&gt;" style="rounded=0;whiteSpace=wrap;html=1;fillColor=#f5f5f5;strokeColor=#666666;fontColor=#333333;" vertex="1" parent="1">
          <mxGeometry x="321" y="94.5" width="120" height="60" as="geometry"/>
        </mxCell>
        <mxCell id="NcRujNU-MuARHv59cEKX-18" style="edgeStyle=orthogonalEdgeStyle;curved=1;rounded=0;orthogonalLoop=1;jettySize=auto;html=1;exitX=1;exitY=0.5;exitDx=0;exitDy=0;entryX=0;entryY=0.5;entryDx=0;entryDy=0;fontSize=14;" edge="1" parent="1" source="NcRujNU-MuARHv59cEKX-3" target="NcRujNU-MuARHv59cEKX-1">
          <mxGeometry relative="1" as="geometry"/>
        </mxCell>
        <mxCell id="NcRujNU-MuARHv59cEKX-19" style="edgeStyle=orthogonalEdgeStyle;curved=1;rounded=0;orthogonalLoop=1;jettySize=auto;html=1;exitX=1;exitY=0.5;exitDx=0;exitDy=0;entryX=0;entryY=0.5;entryDx=0;entryDy=0;fontSize=14;" edge="1" parent="1" source="NcRujNU-MuARHv59cEKX-3" target="NcRujNU-MuARHv59cEKX-6">
          <mxGeometry relative="1" as="geometry"/>
        </mxCell>
        <mxCell id="NcRujNU-MuARHv59cEKX-20" style="edgeStyle=orthogonalEdgeStyle;curved=1;rounded=0;orthogonalLoop=1;jettySize=auto;html=1;exitX=1;exitY=0.5;exitDx=0;exitDy=0;entryX=0;entryY=0.5;entryDx=0;entryDy=0;fontSize=14;" edge="1" parent="1" source="NcRujNU-MuARHv59cEKX-3" target="NcRujNU-MuARHv59cEKX-4">
          <mxGeometry relative="1" as="geometry">
            <Array as="points">
              <mxPoint x="269" y="240"/>
              <mxPoint x="269" y="200"/>
            </Array>
          </mxGeometry>
        </mxCell>
        <mxCell id="NcRujNU-MuARHv59cEKX-21" style="edgeStyle=orthogonalEdgeStyle;curved=1;rounded=0;orthogonalLoop=1;jettySize=auto;html=1;exitX=1;exitY=0.5;exitDx=0;exitDy=0;entryX=0;entryY=0.5;entryDx=0;entryDy=0;fontSize=14;" edge="1" parent="1" source="NcRujNU-MuARHv59cEKX-3" target="NcRujNU-MuARHv59cEKX-5">
          <mxGeometry relative="1" as="geometry">
            <Array as="points">
              <mxPoint x="269" y="240"/>
              <mxPoint x="269" y="280"/>
            </Array>
          </mxGeometry>
        </mxCell>
        <mxCell id="NcRujNU-MuARHv59cEKX-3" value="&lt;b style=&quot;font-size: 16px ; white-space: normal&quot;&gt;Buffer&lt;/b&gt;" style="rounded=1;whiteSpace=wrap;html=1;fillColor=#dae8fc;strokeColor=#6c8ebf;" vertex="1" parent="1">
          <mxGeometry x="80" y="209.5" width="120" height="60" as="geometry"/>
        </mxCell>
        <mxCell id="NcRujNU-MuARHv59cEKX-4" value="&lt;font style=&quot;font-size: 16px&quot;&gt;&lt;b&gt;Limit&lt;/b&gt;&lt;/font&gt;" style="rounded=0;whiteSpace=wrap;html=1;fillColor=#f5f5f5;strokeColor=#666666;fontColor=#333333;" vertex="1" parent="1">
          <mxGeometry x="321" y="174.5" width="120" height="60" as="geometry"/>
        </mxCell>
        <mxCell id="NcRujNU-MuARHv59cEKX-5" value="&lt;font style=&quot;font-size: 16px&quot;&gt;&lt;b&gt;Position&lt;/b&gt;&lt;/font&gt;" style="rounded=0;whiteSpace=wrap;html=1;fillColor=#f5f5f5;strokeColor=#666666;fontColor=#333333;" vertex="1" parent="1">
          <mxGeometry x="321" y="254.5" width="120" height="60" as="geometry"/>
        </mxCell>
        <mxCell id="NcRujNU-MuARHv59cEKX-6" value="&lt;font style=&quot;font-size: 16px&quot;&gt;&lt;b&gt;Mark&lt;/b&gt;&lt;/font&gt;" style="rounded=0;whiteSpace=wrap;html=1;fillColor=#f5f5f5;strokeColor=#666666;fontColor=#333333;" vertex="1" parent="1">
          <mxGeometry x="321" y="334.5" width="120" height="60" as="geometry"/>
        </mxCell>
        <mxCell id="NcRujNU-MuARHv59cEKX-9" value="缓冲区能够容纳的数据元素的最大数量。&lt;br&gt;这一容量在缓冲区创建时被设定，并且永远不能被改变。" style="text;html=1;" vertex="1" parent="1">
          <mxGeometry x="459" y="84.5" width="340" height="30" as="geometry"/>
        </mxCell>
        <mxCell id="NcRujNU-MuARHv59cEKX-11" value="&lt;div&gt;&lt;span style=&quot;font-size: 10.56pt&quot;&gt;缓冲区的第一&lt;/span&gt;&lt;span style=&quot;font-size: 10.56pt&quot;&gt;个不能被读或写的元素。&lt;/span&gt;&lt;/div&gt;&lt;div&gt;&lt;span style=&quot;font-size: 10.56pt&quot;&gt;或者说，缓冲区中现存元素的计数。&lt;/span&gt;&lt;/div&gt;" style="text;html=1;" vertex="1" parent="1">
          <mxGeometry x="461" y="160" width="260" height="30" as="geometry"/>
        </mxCell>
        <mxCell id="NcRujNU-MuARHv59cEKX-13" value="&lt;div&gt;&lt;span style=&quot;font-size: 10.56pt&quot;&gt;下&lt;/span&gt;&lt;span style=&quot;font-size: 10.56pt&quot;&gt;一&lt;/span&gt;&lt;span style=&quot;font-size: 10.56pt&quot;&gt;个要被读或写的元素的索引。&lt;/span&gt;&lt;/div&gt;&lt;div&gt;&lt;span style=&quot;font-size: 10.56pt&quot;&gt;位置会自动由相应的 &lt;/span&gt;&lt;span style=&quot;font-size: 10.56pt ; font-style: italic&quot;&gt;get( )&lt;/span&gt;&lt;span style=&quot;font-size: 10.56pt&quot;&gt;和 &lt;/span&gt;&lt;span style=&quot;font-size: 10.56pt ; font-style: italic&quot;&gt;put( )&lt;/span&gt;&lt;span style=&quot;font-size: 10.56pt&quot;&gt;函数更新。&lt;/span&gt;&lt;/div&gt;&lt;div&gt;&lt;span style=&quot;font-size: 14.08px&quot;&gt;传递给Channel的有效数据是在position与limit之间的&lt;/span&gt;&lt;/div&gt;" style="text;html=1;" vertex="1" parent="1">
          <mxGeometry x="460" y="221.5" width="340" height="30" as="geometry"/>
        </mxCell>
        <mxCell id="NcRujNU-MuARHv59cEKX-15" value="&lt;div&gt;&lt;span style=&quot;font-size: 10.56pt&quot;&gt;一&lt;/span&gt;&lt;span style=&quot;font-size: 10.56pt&quot;&gt;个备忘位置。调用 &lt;/span&gt;&lt;span style=&quot;font-size: 10.56pt ; font-style: italic&quot;&gt;mark( )&lt;/span&gt;&lt;span style=&quot;font-size: 10.56pt&quot;&gt;来设定 &lt;/span&gt;&lt;span style=&quot;font-size: 10.56pt ; font-family: &amp;#34;couriernewpsmt&amp;#34;&quot;&gt;mark&lt;/span&gt;&lt;span style=&quot;font-size: 10.56pt ; font-family: &amp;#34;couriernewpsmt&amp;#34;&quot;&gt;=&lt;/span&gt;&lt;span style=&quot;font-size: 10.56pt ; font-family: &amp;#34;couriernewpsmt&amp;#34;&quot;&gt;postion&lt;/span&gt;&lt;span style=&quot;font-size: 10.56pt&quot;&gt;。&lt;/span&gt;&lt;/div&gt;&lt;div&gt;&lt;span style=&quot;font-size: 10.56pt&quot;&gt;调用 &lt;/span&gt;&lt;span style=&quot;font-size: 10.56pt ; font-style: italic&quot;&gt;reset( )&lt;/span&gt;&lt;span style=&quot;font-size: 10.56pt&quot;&gt;设定 &lt;/span&gt;&lt;span style=&quot;font-size: 10.56pt ; font-family: &amp;#34;couriernewpsmt&amp;#34;&quot;&gt;position&lt;/span&gt;&lt;span style=&quot;font-size: 10.56pt ; font-family: &amp;#34;couriernewpsmt&amp;#34;&quot;&gt;=&lt;/span&gt;&lt;span style=&quot;font-size: 10.56pt ; font-family: &amp;#34;couriernewpsmt&amp;#34;&quot;&gt;mark&lt;/span&gt;&lt;span style=&quot;font-size: 10.56pt&quot;&gt;。&lt;/span&gt;&lt;/div&gt;&lt;div&gt;&lt;span style=&quot;font-size: 14.08px&quot;&gt;rewind()，clear()，以及flip()总是抛弃标记&lt;/span&gt;&lt;/div&gt;" style="text;html=1;" vertex="1" parent="1">
          <mxGeometry x="461" y="304.5" width="340" height="30" as="geometry"/>
        </mxCell>
        <mxCell id="NcRujNU-MuARHv59cEKX-16" value="0 &amp;lt;= mark &amp;lt;= position &amp;lt;= limit &amp;lt;= capacity" style="text;html=1;fontSize=14;fontStyle=1" vertex="1" parent="1">
          <mxGeometry x="9" y="300" width="300" height="20" as="geometry"/>
        </mxCell>
        <mxCell id="NcRujNU-MuARHv59cEKX-370" style="edgeStyle=orthogonalEdgeStyle;curved=1;rounded=0;orthogonalLoop=1;jettySize=auto;html=1;exitX=0;exitY=0.5;exitDx=0;exitDy=0;entryX=0;entryY=0.25;entryDx=0;entryDy=0;fontSize=14;" edge="1" parent="1" source="NcRujNU-MuARHv59cEKX-31" target="NcRujNU-MuARHv59cEKX-58">
          <mxGeometry relative="1" as="geometry">
            <Array as="points">
              <mxPoint x="320" y="500"/>
              <mxPoint x="320" y="730"/>
            </Array>
          </mxGeometry>
        </mxCell>
        <mxCell id="NcRujNU-MuARHv59cEKX-31" value="" style="rounded=0;whiteSpace=wrap;html=1;glass=1;fontSize=14;fillColor=#FFCCE6;" vertex="1" parent="1">
          <mxGeometry x="360" y="480" width="40" height="40" as="geometry"/>
        </mxCell>
        <mxCell id="NcRujNU-MuARHv59cEKX-32" value="" style="rounded=0;whiteSpace=wrap;html=1;glass=1;fontSize=14;fillColor=#FFCCE6;" vertex="1" parent="1">
          <mxGeometry x="400" y="480" width="38" height="40" as="geometry"/>
        </mxCell>
        <mxCell id="NcRujNU-MuARHv59cEKX-33" value="" style="rounded=0;whiteSpace=wrap;html=1;glass=1;fontSize=14;fillColor=#FFCCE6;" vertex="1" parent="1">
          <mxGeometry x="440" y="480" width="40" height="40" as="geometry"/>
        </mxCell>
        <mxCell id="NcRujNU-MuARHv59cEKX-34" value="" style="rounded=0;whiteSpace=wrap;html=1;glass=1;fontSize=14;fillColor=#FFCCE6;" vertex="1" parent="1">
          <mxGeometry x="480" y="480" width="40" height="40" as="geometry"/>
        </mxCell>
        <mxCell id="NcRujNU-MuARHv59cEKX-35" value="" style="rounded=0;whiteSpace=wrap;html=1;glass=1;fontSize=14;fillColor=#FFCCE6;" vertex="1" parent="1">
          <mxGeometry x="520" y="480" width="40" height="40" as="geometry"/>
        </mxCell>
        <mxCell id="NcRujNU-MuARHv59cEKX-36" value="" style="rounded=0;whiteSpace=wrap;html=1;glass=1;fontSize=14;fillColor=#FFCCE6;" vertex="1" parent="1">
          <mxGeometry x="560" y="480" width="40" height="40" as="geometry"/>
        </mxCell>
        <mxCell id="NcRujNU-MuARHv59cEKX-37" value="" style="rounded=0;whiteSpace=wrap;html=1;glass=1;fontSize=14;fillColor=#FFCCE6;" vertex="1" parent="1">
          <mxGeometry x="600" y="480" width="40" height="40" as="geometry"/>
        </mxCell>
        <mxCell id="NcRujNU-MuARHv59cEKX-38" value="" style="rounded=0;whiteSpace=wrap;html=1;glass=1;fontSize=14;fillColor=#FFCCE6;" vertex="1" parent="1">
          <mxGeometry x="640" y="480" width="40" height="40" as="geometry"/>
        </mxCell>
        <mxCell id="NcRujNU-MuARHv59cEKX-39" value="" style="rounded=0;whiteSpace=wrap;html=1;glass=1;fontSize=14;fillColor=#FFCCE6;" vertex="1" parent="1">
          <mxGeometry x="680" y="480" width="40" height="40" as="geometry"/>
        </mxCell>
        <mxCell id="NcRujNU-MuARHv59cEKX-40" value="" style="rounded=0;whiteSpace=wrap;html=1;glass=1;fontSize=14;fillColor=#333333;" vertex="1" parent="1">
          <mxGeometry x="760" y="480" width="40" height="40" as="geometry"/>
        </mxCell>
        <mxCell id="NcRujNU-MuARHv59cEKX-46" value="Null" style="rounded=0;whiteSpace=wrap;html=1;glass=1;fontSize=14;fillColor=#f5f5f5;strokeColor=#666666;fontColor=#333333;" vertex="1" parent="1">
          <mxGeometry x="360" y="560" width="40" height="40" as="geometry"/>
        </mxCell>
        <mxCell id="NcRujNU-MuARHv59cEKX-52" style="edgeStyle=orthogonalEdgeStyle;curved=1;rounded=0;orthogonalLoop=1;jettySize=auto;html=1;exitX=0.5;exitY=0;exitDx=0;exitDy=0;entryX=0.5;entryY=1;entryDx=0;entryDy=0;fontSize=14;" edge="1" parent="1" source="NcRujNU-MuARHv59cEKX-47" target="NcRujNU-MuARHv59cEKX-31">
          <mxGeometry relative="1" as="geometry"/>
        </mxCell>
        <mxCell id="NcRujNU-MuARHv59cEKX-47" value="0" style="rounded=0;whiteSpace=wrap;html=1;glass=1;fontSize=14;fillColor=#f5f5f5;strokeColor=#666666;fontColor=#333333;" vertex="1" parent="1">
          <mxGeometry x="440" y="560" width="40" height="40" as="geometry"/>
        </mxCell>
        <mxCell id="NcRujNU-MuARHv59cEKX-51" style="edgeStyle=orthogonalEdgeStyle;curved=1;rounded=0;orthogonalLoop=1;jettySize=auto;html=1;exitX=0.5;exitY=0;exitDx=0;exitDy=0;entryX=0.25;entryY=1;entryDx=0;entryDy=0;fontSize=14;" edge="1" parent="1" source="NcRujNU-MuARHv59cEKX-48" target="NcRujNU-MuARHv59cEKX-40">
          <mxGeometry relative="1" as="geometry"/>
        </mxCell>
        <mxCell id="NcRujNU-MuARHv59cEKX-48" value="10" style="rounded=0;whiteSpace=wrap;html=1;glass=1;fontSize=14;fillColor=#f5f5f5;strokeColor=#666666;fontColor=#333333;" vertex="1" parent="1">
          <mxGeometry x="681" y="560" width="40" height="40" as="geometry"/>
        </mxCell>
        <mxCell id="NcRujNU-MuARHv59cEKX-50" style="edgeStyle=orthogonalEdgeStyle;curved=1;rounded=0;orthogonalLoop=1;jettySize=auto;html=1;exitX=0.5;exitY=0;exitDx=0;exitDy=0;entryX=0.5;entryY=1;entryDx=0;entryDy=0;fontSize=14;" edge="1" parent="1" source="NcRujNU-MuARHv59cEKX-49" target="NcRujNU-MuARHv59cEKX-40">
          <mxGeometry relative="1" as="geometry"/>
        </mxCell>
        <mxCell id="NcRujNU-MuARHv59cEKX-49" value="10" style="rounded=0;whiteSpace=wrap;html=1;glass=1;fontSize=14;fillColor=#f5f5f5;strokeColor=#666666;fontColor=#333333;" vertex="1" parent="1">
          <mxGeometry x="760" y="560" width="40" height="40" as="geometry"/>
        </mxCell>
        <mxCell id="NcRujNU-MuARHv59cEKX-53" value="" style="rounded=0;whiteSpace=wrap;html=1;glass=1;fontSize=14;fillColor=#FFCCE6;" vertex="1" parent="1">
          <mxGeometry x="720" y="480" width="40" height="40" as="geometry"/>
        </mxCell>
        <mxCell id="NcRujNU-MuARHv59cEKX-54" value="position" style="text;html=1;align=center;verticalAlign=middle;resizable=0;points=[];;autosize=1;fontSize=14;" vertex="1" parent="1">
          <mxGeometry x="415" y="600" width="60" height="20" as="geometry"/>
        </mxCell>
        <mxCell id="NcRujNU-MuARHv59cEKX-55" value="limit" style="text;html=1;align=center;verticalAlign=middle;resizable=0;points=[];;autosize=1;fontSize=14;" vertex="1" parent="1">
          <mxGeometry x="705" y="600" width="40" height="20" as="geometry"/>
        </mxCell>
        <mxCell id="NcRujNU-MuARHv59cEKX-56" value="capacity" style="text;html=1;align=center;verticalAlign=middle;resizable=0;points=[];;autosize=1;fontSize=14;" vertex="1" parent="1">
          <mxGeometry x="750" y="600" width="70" height="20" as="geometry"/>
        </mxCell>
        <mxCell id="NcRujNU-MuARHv59cEKX-57" value="buffer.&lt;b&gt;&lt;u&gt;&lt;font style=&quot;font-size: 16px&quot; color=&quot;#cc0000&quot;&gt;&lt;i&gt;put&lt;/i&gt;&lt;/font&gt;&lt;/u&gt;&lt;/b&gt;((byte)&#39;H&#39;)&lt;br&gt;.put((byte)&#39;e&#39;)&lt;br&gt;.put((byte)&#39;l&#39;)&lt;br&gt;.put((byte)&#39;l&#39;)&lt;br&gt;.put((byte)&#39;o&#39;);" style="text;html=1;fontSize=14;" vertex="1" parent="1">
          <mxGeometry x="193" y="570" width="128" height="100" as="geometry"/>
        </mxCell>
        <mxCell id="NcRujNU-MuARHv59cEKX-371" style="edgeStyle=orthogonalEdgeStyle;curved=1;rounded=0;orthogonalLoop=1;jettySize=auto;html=1;exitX=0;exitY=0.75;exitDx=0;exitDy=0;entryX=0;entryY=0.25;entryDx=0;entryDy=0;fontSize=14;" edge="1" parent="1" source="NcRujNU-MuARHv59cEKX-58" target="NcRujNU-MuARHv59cEKX-155">
          <mxGeometry relative="1" as="geometry">
            <Array as="points">
              <mxPoint x="320" y="750"/>
              <mxPoint x="320" y="969"/>
            </Array>
          </mxGeometry>
        </mxCell>
        <mxCell id="NcRujNU-MuARHv59cEKX-58" value="H&lt;br&gt;48" style="rounded=0;whiteSpace=wrap;html=1;glass=1;fontSize=14;fillColor=#FFCCE6;" vertex="1" parent="1">
          <mxGeometry x="361" y="720" width="40" height="40" as="geometry"/>
        </mxCell>
        <mxCell id="NcRujNU-MuARHv59cEKX-59" value="e&lt;br&gt;65" style="rounded=0;whiteSpace=wrap;html=1;glass=1;fontSize=14;fillColor=#FFCCE6;" vertex="1" parent="1">
          <mxGeometry x="401" y="720" width="40" height="40" as="geometry"/>
        </mxCell>
        <mxCell id="NcRujNU-MuARHv59cEKX-60" value="l&lt;br&gt;6C" style="rounded=0;whiteSpace=wrap;html=1;glass=1;fontSize=14;fillColor=#FFCCE6;" vertex="1" parent="1">
          <mxGeometry x="441" y="720" width="40" height="40" as="geometry"/>
        </mxCell>
        <mxCell id="NcRujNU-MuARHv59cEKX-61" value="l&lt;br&gt;6C" style="rounded=0;whiteSpace=wrap;html=1;glass=1;fontSize=14;fillColor=#FFCCE6;" vertex="1" parent="1">
          <mxGeometry x="481" y="720" width="40" height="40" as="geometry"/>
        </mxCell>
        <mxCell id="NcRujNU-MuARHv59cEKX-62" value="o&lt;br&gt;6F" style="rounded=0;whiteSpace=wrap;html=1;glass=1;fontSize=14;fillColor=#FFCCE6;" vertex="1" parent="1">
          <mxGeometry x="521" y="720" width="40" height="40" as="geometry"/>
        </mxCell>
        <mxCell id="NcRujNU-MuARHv59cEKX-63" value="" style="rounded=0;whiteSpace=wrap;html=1;glass=1;fontSize=14;fillColor=#FFCCE6;" vertex="1" parent="1">
          <mxGeometry x="561" y="720" width="40" height="40" as="geometry"/>
        </mxCell>
        <mxCell id="NcRujNU-MuARHv59cEKX-64" value="" style="rounded=0;whiteSpace=wrap;html=1;glass=1;fontSize=14;fillColor=#FFCCE6;" vertex="1" parent="1">
          <mxGeometry x="601" y="720" width="40" height="40" as="geometry"/>
        </mxCell>
        <mxCell id="NcRujNU-MuARHv59cEKX-65" value="" style="rounded=0;whiteSpace=wrap;html=1;glass=1;fontSize=14;fillColor=#FFCCE6;" vertex="1" parent="1">
          <mxGeometry x="641" y="720" width="40" height="40" as="geometry"/>
        </mxCell>
        <mxCell id="NcRujNU-MuARHv59cEKX-66" value="" style="rounded=0;whiteSpace=wrap;html=1;glass=1;fontSize=14;fillColor=#FFCCE6;" vertex="1" parent="1">
          <mxGeometry x="681" y="720" width="40" height="40" as="geometry"/>
        </mxCell>
        <mxCell id="NcRujNU-MuARHv59cEKX-67" value="" style="rounded=0;whiteSpace=wrap;html=1;glass=1;fontSize=14;fillColor=#333333;strokeColor=#333333;" vertex="1" parent="1">
          <mxGeometry x="761" y="720" width="40" height="40" as="geometry"/>
        </mxCell>
        <mxCell id="NcRujNU-MuARHv59cEKX-68" value="Null" style="rounded=0;whiteSpace=wrap;html=1;glass=1;fontSize=14;fillColor=#f5f5f5;strokeColor=#666666;fontColor=#333333;" vertex="1" parent="1">
          <mxGeometry x="360" y="800" width="40" height="40" as="geometry"/>
        </mxCell>
        <mxCell id="NcRujNU-MuARHv59cEKX-69" style="edgeStyle=orthogonalEdgeStyle;curved=1;rounded=0;orthogonalLoop=1;jettySize=auto;html=1;exitX=0.5;exitY=0;exitDx=0;exitDy=0;entryX=0.5;entryY=1;entryDx=0;entryDy=0;fontSize=14;" edge="1" parent="1" source="NcRujNU-MuARHv59cEKX-70" target="NcRujNU-MuARHv59cEKX-63">
          <mxGeometry relative="1" as="geometry"/>
        </mxCell>
        <mxCell id="NcRujNU-MuARHv59cEKX-70" value="5" style="rounded=0;whiteSpace=wrap;html=1;glass=1;fontSize=14;fillColor=#f5f5f5;strokeColor=#666666;fontColor=#333333;" vertex="1" parent="1">
          <mxGeometry x="441" y="800" width="40" height="40" as="geometry"/>
        </mxCell>
        <mxCell id="NcRujNU-MuARHv59cEKX-71" style="edgeStyle=orthogonalEdgeStyle;curved=1;rounded=0;orthogonalLoop=1;jettySize=auto;html=1;exitX=0.5;exitY=0;exitDx=0;exitDy=0;entryX=0.25;entryY=1;entryDx=0;entryDy=0;fontSize=14;" edge="1" parent="1" source="NcRujNU-MuARHv59cEKX-72" target="NcRujNU-MuARHv59cEKX-67">
          <mxGeometry relative="1" as="geometry"/>
        </mxCell>
        <mxCell id="NcRujNU-MuARHv59cEKX-72" value="10" style="rounded=0;whiteSpace=wrap;html=1;glass=1;fontSize=14;fillColor=#f5f5f5;strokeColor=#666666;fontColor=#333333;" vertex="1" parent="1">
          <mxGeometry x="681" y="800" width="40" height="40" as="geometry"/>
        </mxCell>
        <mxCell id="NcRujNU-MuARHv59cEKX-73" style="edgeStyle=orthogonalEdgeStyle;curved=1;rounded=0;orthogonalLoop=1;jettySize=auto;html=1;exitX=0.5;exitY=0;exitDx=0;exitDy=0;entryX=0.5;entryY=1;entryDx=0;entryDy=0;fontSize=14;" edge="1" parent="1" source="NcRujNU-MuARHv59cEKX-74" target="NcRujNU-MuARHv59cEKX-67">
          <mxGeometry relative="1" as="geometry"/>
        </mxCell>
        <mxCell id="NcRujNU-MuARHv59cEKX-74" value="10" style="rounded=0;whiteSpace=wrap;html=1;glass=1;fontSize=14;fillColor=#f5f5f5;strokeColor=#666666;fontColor=#333333;" vertex="1" parent="1">
          <mxGeometry x="760" y="800" width="40" height="40" as="geometry"/>
        </mxCell>
        <mxCell id="NcRujNU-MuARHv59cEKX-75" value="" style="rounded=0;whiteSpace=wrap;html=1;glass=1;fontSize=14;fillColor=#FFCCE6;" vertex="1" parent="1">
          <mxGeometry x="721" y="720" width="40" height="40" as="geometry"/>
        </mxCell>
        <mxCell id="NcRujNU-MuARHv59cEKX-76" value="position" style="text;html=1;align=center;verticalAlign=middle;resizable=0;points=[];;autosize=1;fontSize=14;" vertex="1" parent="1">
          <mxGeometry x="416" y="840" width="60" height="20" as="geometry"/>
        </mxCell>
        <mxCell id="NcRujNU-MuARHv59cEKX-77" value="limit" style="text;html=1;align=center;verticalAlign=middle;resizable=0;points=[];;autosize=1;fontSize=14;" vertex="1" parent="1">
          <mxGeometry x="706" y="840" width="40" height="20" as="geometry"/>
        </mxCell>
        <mxCell id="NcRujNU-MuARHv59cEKX-78" value="capacity" style="text;html=1;align=center;verticalAlign=middle;resizable=0;points=[];;autosize=1;fontSize=14;" vertex="1" parent="1">
          <mxGeometry x="751" y="840" width="70" height="20" as="geometry"/>
        </mxCell>
        <mxCell id="NcRujNU-MuARHv59cEKX-80" value="buffer.&lt;b&gt;&lt;i&gt;&lt;u&gt;&lt;font color=&quot;#cc0000&quot;&gt;put&lt;/font&gt;&lt;/u&gt;&lt;/i&gt;&lt;/b&gt;(0,(byte)&#39;M&#39;).put((byte)&#39;w&#39;);" style="text;html=1;fontSize=14;" vertex="1" parent="1">
          <mxGeometry x="102" y="880" width="218" height="30" as="geometry"/>
        </mxCell>
        <mxCell id="NcRujNU-MuARHv59cEKX-91" value="Null" style="rounded=0;whiteSpace=wrap;html=1;glass=1;fontSize=14;fillColor=#f5f5f5;strokeColor=#666666;fontColor=#333333;" vertex="1" parent="1">
          <mxGeometry x="360" y="1039" width="40" height="40" as="geometry"/>
        </mxCell>
        <mxCell id="NcRujNU-MuARHv59cEKX-92" style="edgeStyle=orthogonalEdgeStyle;curved=1;rounded=0;orthogonalLoop=1;jettySize=auto;html=1;exitX=0.5;exitY=0;exitDx=0;exitDy=0;entryX=0.5;entryY=1;entryDx=0;entryDy=0;fontSize=14;" edge="1" parent="1" source="NcRujNU-MuARHv59cEKX-93" target="NcRujNU-MuARHv59cEKX-161">
          <mxGeometry relative="1" as="geometry">
            <mxPoint x="573" y="999" as="targetPoint"/>
          </mxGeometry>
        </mxCell>
        <mxCell id="NcRujNU-MuARHv59cEKX-93" value="6" style="rounded=0;whiteSpace=wrap;html=1;glass=1;fontSize=14;fillColor=#f5f5f5;strokeColor=#666666;fontColor=#333333;" vertex="1" parent="1">
          <mxGeometry x="440" y="1039" width="40" height="40" as="geometry"/>
        </mxCell>
        <mxCell id="NcRujNU-MuARHv59cEKX-94" style="edgeStyle=orthogonalEdgeStyle;curved=1;rounded=0;orthogonalLoop=1;jettySize=auto;html=1;exitX=0.5;exitY=0;exitDx=0;exitDy=0;entryX=0.25;entryY=1;entryDx=0;entryDy=0;fontSize=14;" edge="1" parent="1" source="NcRujNU-MuARHv59cEKX-95">
          <mxGeometry relative="1" as="geometry">
            <mxPoint x="763" y="999" as="targetPoint"/>
          </mxGeometry>
        </mxCell>
        <mxCell id="NcRujNU-MuARHv59cEKX-95" value="10" style="rounded=0;whiteSpace=wrap;html=1;glass=1;fontSize=14;fillColor=#f5f5f5;strokeColor=#666666;fontColor=#333333;" vertex="1" parent="1">
          <mxGeometry x="678.5" y="1039" width="40" height="40" as="geometry"/>
        </mxCell>
        <mxCell id="NcRujNU-MuARHv59cEKX-96" style="edgeStyle=orthogonalEdgeStyle;curved=1;rounded=0;orthogonalLoop=1;jettySize=auto;html=1;exitX=0.5;exitY=0;exitDx=0;exitDy=0;entryX=0.5;entryY=1;entryDx=0;entryDy=0;fontSize=14;" edge="1" parent="1" source="NcRujNU-MuARHv59cEKX-97">
          <mxGeometry relative="1" as="geometry">
            <mxPoint x="773" y="999" as="targetPoint"/>
          </mxGeometry>
        </mxCell>
        <mxCell id="NcRujNU-MuARHv59cEKX-97" value="10" style="rounded=0;whiteSpace=wrap;html=1;glass=1;fontSize=14;fillColor=#f5f5f5;strokeColor=#666666;fontColor=#333333;" vertex="1" parent="1">
          <mxGeometry x="753" y="1039" width="40" height="40" as="geometry"/>
        </mxCell>
        <mxCell id="NcRujNU-MuARHv59cEKX-99" value="position" style="text;html=1;align=center;verticalAlign=middle;resizable=0;points=[];;autosize=1;fontSize=14;" vertex="1" parent="1">
          <mxGeometry x="403" y="1079" width="60" height="20" as="geometry"/>
        </mxCell>
        <mxCell id="NcRujNU-MuARHv59cEKX-100" value="limit" style="text;html=1;align=center;verticalAlign=middle;resizable=0;points=[];;autosize=1;fontSize=14;" vertex="1" parent="1">
          <mxGeometry x="693" y="1079" width="40" height="20" as="geometry"/>
        </mxCell>
        <mxCell id="NcRujNU-MuARHv59cEKX-101" value="capacity" style="text;html=1;align=center;verticalAlign=middle;resizable=0;points=[];;autosize=1;fontSize=14;" vertex="1" parent="1">
          <mxGeometry x="738" y="1079" width="70" height="20" as="geometry"/>
        </mxCell>
        <mxCell id="NcRujNU-MuARHv59cEKX-102" value="&lt;div&gt;&lt;span style=&quot;font-family: &amp;#34;couriernewpsmt&amp;#34;&quot;&gt;buffer.&lt;b&gt;&lt;i&gt;&lt;u&gt;&lt;font color=&quot;#cc0000&quot;&gt;flip&lt;/font&gt;&lt;/u&gt;&lt;/i&gt;&lt;/b&gt;();&lt;/span&gt;&lt;/div&gt;&lt;div&gt;&lt;span style=&quot;font-family: &amp;#34;couriernewpsmt&amp;#34;&quot;&gt;或者&amp;nbsp;&lt;/span&gt;&lt;span style=&quot;font-family: &amp;#34;couriernewpsmt&amp;#34;&quot;&gt;&lt;font face=&quot;CourierNewPSMT&quot; style=&quot;font-size: 14px&quot;&gt;buffer.limit(buffer.position()).position(0);&amp;nbsp;&lt;/font&gt;&lt;/span&gt;&lt;/div&gt;" style="text;html=1;fontSize=14;" vertex="1" parent="1">
          <mxGeometry x="55" y="1079" width="276" height="50" as="geometry"/>
        </mxCell>
        <mxCell id="NcRujNU-MuARHv59cEKX-373" style="edgeStyle=orthogonalEdgeStyle;curved=1;rounded=0;orthogonalLoop=1;jettySize=auto;html=1;exitX=0;exitY=0.75;exitDx=0;exitDy=0;entryX=0;entryY=0.25;entryDx=0;entryDy=0;fontSize=14;" edge="1" parent="1" source="NcRujNU-MuARHv59cEKX-103" target="NcRujNU-MuARHv59cEKX-223">
          <mxGeometry relative="1" as="geometry">
            <Array as="points">
              <mxPoint x="320" y="1230"/>
              <mxPoint x="320" y="1450"/>
            </Array>
          </mxGeometry>
        </mxCell>
        <mxCell id="NcRujNU-MuARHv59cEKX-103" value="M&lt;br&gt;48" style="rounded=0;whiteSpace=wrap;html=1;glass=1;fontSize=14;fillColor=#FFCCE6;" vertex="1" parent="1">
          <mxGeometry x="358.5" y="1200" width="40" height="40" as="geometry"/>
        </mxCell>
        <mxCell id="NcRujNU-MuARHv59cEKX-104" value="e&lt;br&gt;65" style="rounded=0;whiteSpace=wrap;html=1;glass=1;fontSize=14;fillColor=#FFCCE6;" vertex="1" parent="1">
          <mxGeometry x="398.5" y="1200" width="40" height="40" as="geometry"/>
        </mxCell>
        <mxCell id="NcRujNU-MuARHv59cEKX-105" value="l&lt;br&gt;6C" style="rounded=0;whiteSpace=wrap;html=1;glass=1;fontSize=14;fillColor=#FFCCE6;" vertex="1" parent="1">
          <mxGeometry x="438.5" y="1200" width="40" height="40" as="geometry"/>
        </mxCell>
        <mxCell id="NcRujNU-MuARHv59cEKX-106" value="l&lt;br&gt;6C" style="rounded=0;whiteSpace=wrap;html=1;glass=1;fontSize=14;fillColor=#FFCCE6;" vertex="1" parent="1">
          <mxGeometry x="478.5" y="1200" width="40" height="40" as="geometry"/>
        </mxCell>
        <mxCell id="NcRujNU-MuARHv59cEKX-107" value="o&lt;br&gt;6F" style="rounded=0;whiteSpace=wrap;html=1;glass=1;fontSize=14;fillColor=#FFCCE6;" vertex="1" parent="1">
          <mxGeometry x="518.5" y="1200" width="40" height="40" as="geometry"/>
        </mxCell>
        <mxCell id="NcRujNU-MuARHv59cEKX-108" value="w&lt;br&gt;77" style="rounded=0;whiteSpace=wrap;html=1;glass=1;fontSize=14;fillColor=#FFCCE6;" vertex="1" parent="1">
          <mxGeometry x="558.5" y="1200" width="40" height="40" as="geometry"/>
        </mxCell>
        <mxCell id="NcRujNU-MuARHv59cEKX-109" value="" style="rounded=0;whiteSpace=wrap;html=1;glass=1;fontSize=14;fillColor=#FFCCE6;" vertex="1" parent="1">
          <mxGeometry x="598.5" y="1200" width="40" height="40" as="geometry"/>
        </mxCell>
        <mxCell id="NcRujNU-MuARHv59cEKX-110" value="" style="rounded=0;whiteSpace=wrap;html=1;glass=1;fontSize=14;fillColor=#FFCCE6;" vertex="1" parent="1">
          <mxGeometry x="638.5" y="1200" width="40" height="40" as="geometry"/>
        </mxCell>
        <mxCell id="NcRujNU-MuARHv59cEKX-111" value="" style="rounded=0;whiteSpace=wrap;html=1;glass=1;fontSize=14;fillColor=#FFCCE6;" vertex="1" parent="1">
          <mxGeometry x="678.5" y="1200" width="40" height="40" as="geometry"/>
        </mxCell>
        <mxCell id="NcRujNU-MuARHv59cEKX-112" value="" style="rounded=0;whiteSpace=wrap;html=1;glass=1;fontSize=14;fillColor=#333333;strokeColor=#333333;" vertex="1" parent="1">
          <mxGeometry x="758.5" y="1200" width="40" height="40" as="geometry"/>
        </mxCell>
        <mxCell id="NcRujNU-MuARHv59cEKX-113" value="Null" style="rounded=0;whiteSpace=wrap;html=1;glass=1;fontSize=14;fillColor=#f5f5f5;strokeColor=#666666;fontColor=#333333;" vertex="1" parent="1">
          <mxGeometry x="360" y="1280" width="40" height="40" as="geometry"/>
        </mxCell>
        <mxCell id="NcRujNU-MuARHv59cEKX-114" style="edgeStyle=orthogonalEdgeStyle;curved=1;rounded=0;orthogonalLoop=1;jettySize=auto;html=1;exitX=0.5;exitY=0;exitDx=0;exitDy=0;entryX=0.5;entryY=1;entryDx=0;entryDy=0;fontSize=14;" edge="1" parent="1" source="NcRujNU-MuARHv59cEKX-115" target="NcRujNU-MuARHv59cEKX-103">
          <mxGeometry relative="1" as="geometry"/>
        </mxCell>
        <mxCell id="NcRujNU-MuARHv59cEKX-115" value="0" style="rounded=0;whiteSpace=wrap;html=1;glass=1;fontSize=14;fillColor=#f5f5f5;strokeColor=#666666;fontColor=#333333;" vertex="1" parent="1">
          <mxGeometry x="441" y="1280" width="40" height="40" as="geometry"/>
        </mxCell>
        <mxCell id="NcRujNU-MuARHv59cEKX-116" style="edgeStyle=orthogonalEdgeStyle;curved=1;rounded=0;orthogonalLoop=1;jettySize=auto;html=1;exitX=0.5;exitY=0;exitDx=0;exitDy=0;entryX=0.5;entryY=1;entryDx=0;entryDy=0;fontSize=14;" edge="1" parent="1" source="NcRujNU-MuARHv59cEKX-117" target="NcRujNU-MuARHv59cEKX-109">
          <mxGeometry relative="1" as="geometry"/>
        </mxCell>
        <mxCell id="NcRujNU-MuARHv59cEKX-117" value="10" style="rounded=0;whiteSpace=wrap;html=1;glass=1;fontSize=14;fillColor=#f5f5f5;strokeColor=#666666;fontColor=#333333;" vertex="1" parent="1">
          <mxGeometry x="680" y="1280" width="40" height="40" as="geometry"/>
        </mxCell>
        <mxCell id="NcRujNU-MuARHv59cEKX-118" style="edgeStyle=orthogonalEdgeStyle;curved=1;rounded=0;orthogonalLoop=1;jettySize=auto;html=1;exitX=0.5;exitY=0;exitDx=0;exitDy=0;entryX=0.5;entryY=1;entryDx=0;entryDy=0;fontSize=14;" edge="1" parent="1" source="NcRujNU-MuARHv59cEKX-119" target="NcRujNU-MuARHv59cEKX-112">
          <mxGeometry relative="1" as="geometry"/>
        </mxCell>
        <mxCell id="NcRujNU-MuARHv59cEKX-119" value="10" style="rounded=0;whiteSpace=wrap;html=1;glass=1;fontSize=14;fillColor=#f5f5f5;strokeColor=#666666;fontColor=#333333;" vertex="1" parent="1">
          <mxGeometry x="757.5" y="1280" width="40" height="40" as="geometry"/>
        </mxCell>
        <mxCell id="NcRujNU-MuARHv59cEKX-120" value="" style="rounded=0;whiteSpace=wrap;html=1;glass=1;fontSize=14;fillColor=#FFCCE6;" vertex="1" parent="1">
          <mxGeometry x="718.5" y="1200" width="40" height="40" as="geometry"/>
        </mxCell>
        <mxCell id="NcRujNU-MuARHv59cEKX-121" value="position" style="text;html=1;align=center;verticalAlign=middle;resizable=0;points=[];;autosize=1;fontSize=14;" vertex="1" parent="1">
          <mxGeometry x="428.5" y="1320" width="60" height="20" as="geometry"/>
        </mxCell>
        <mxCell id="NcRujNU-MuARHv59cEKX-122" value="limit" style="text;html=1;align=center;verticalAlign=middle;resizable=0;points=[];;autosize=1;fontSize=14;" vertex="1" parent="1">
          <mxGeometry x="681" y="1320" width="40" height="20" as="geometry"/>
        </mxCell>
        <mxCell id="NcRujNU-MuARHv59cEKX-123" value="capacity" style="text;html=1;align=center;verticalAlign=middle;resizable=0;points=[];;autosize=1;fontSize=14;" vertex="1" parent="1">
          <mxGeometry x="742.5" y="1320" width="70" height="20" as="geometry"/>
        </mxCell>
        <mxCell id="NcRujNU-MuARHv59cEKX-125" value="mark" style="text;html=1;align=center;verticalAlign=middle;resizable=0;points=[];;autosize=1;fontSize=14;" vertex="1" parent="1">
          <mxGeometry x="360" y="600" width="50" height="20" as="geometry"/>
        </mxCell>
        <mxCell id="NcRujNU-MuARHv59cEKX-126" value="mark" style="text;html=1;align=center;verticalAlign=middle;resizable=0;points=[];;autosize=1;fontSize=14;" vertex="1" parent="1">
          <mxGeometry x="361" y="840" width="50" height="20" as="geometry"/>
        </mxCell>
        <mxCell id="NcRujNU-MuARHv59cEKX-127" value="mark" style="text;html=1;align=center;verticalAlign=middle;resizable=0;points=[];;autosize=1;fontSize=14;" vertex="1" parent="1">
          <mxGeometry x="351.5" y="1079" width="50" height="20" as="geometry"/>
        </mxCell>
        <mxCell id="NcRujNU-MuARHv59cEKX-128" value="mark" style="text;html=1;align=center;verticalAlign=middle;resizable=0;points=[];;autosize=1;fontSize=14;" vertex="1" parent="1">
          <mxGeometry x="352.5" y="1320" width="50" height="20" as="geometry"/>
        </mxCell>
        <mxCell id="NcRujNU-MuARHv59cEKX-141" value="" style="group" vertex="1" connectable="0" parent="1">
          <mxGeometry x="360" y="460" width="440" height="20" as="geometry"/>
        </mxCell>
        <mxCell id="NcRujNU-MuARHv59cEKX-140" value="" style="group;fillColor=#f5f5f5;strokeColor=none;fontColor=#333333;" vertex="1" connectable="0" parent="NcRujNU-MuARHv59cEKX-141">
          <mxGeometry width="440" height="20" as="geometry"/>
        </mxCell>
        <mxCell id="NcRujNU-MuARHv59cEKX-129" value="0" style="rounded=0;whiteSpace=wrap;html=1;glass=1;fontSize=14;fillColor=#f5f5f5;strokeColor=none;fontColor=#333333;" vertex="1" parent="NcRujNU-MuARHv59cEKX-141">
          <mxGeometry width="40" height="20" as="geometry"/>
        </mxCell>
        <mxCell id="NcRujNU-MuARHv59cEKX-130" value="1" style="rounded=0;whiteSpace=wrap;html=1;glass=1;fontSize=14;fillColor=#f5f5f5;strokeColor=none;fontColor=#333333;" vertex="1" parent="NcRujNU-MuARHv59cEKX-141">
          <mxGeometry x="40" width="40" height="20" as="geometry"/>
        </mxCell>
        <mxCell id="NcRujNU-MuARHv59cEKX-131" value="2" style="rounded=0;whiteSpace=wrap;html=1;glass=1;fontSize=14;fillColor=#f5f5f5;strokeColor=none;fontColor=#333333;" vertex="1" parent="NcRujNU-MuARHv59cEKX-141">
          <mxGeometry x="80" width="40" height="20" as="geometry"/>
        </mxCell>
        <mxCell id="NcRujNU-MuARHv59cEKX-132" value="3" style="rounded=0;whiteSpace=wrap;html=1;glass=1;fontSize=14;fillColor=#f5f5f5;strokeColor=none;fontColor=#333333;" vertex="1" parent="NcRujNU-MuARHv59cEKX-141">
          <mxGeometry x="120" width="40" height="20" as="geometry"/>
        </mxCell>
        <mxCell id="NcRujNU-MuARHv59cEKX-133" value="4" style="rounded=0;whiteSpace=wrap;html=1;glass=1;fontSize=14;fillColor=#f5f5f5;strokeColor=none;fontColor=#333333;" vertex="1" parent="NcRujNU-MuARHv59cEKX-141">
          <mxGeometry x="160" width="40" height="20" as="geometry"/>
        </mxCell>
        <mxCell id="NcRujNU-MuARHv59cEKX-134" value="5" style="rounded=0;whiteSpace=wrap;html=1;glass=1;fontSize=14;fillColor=#f5f5f5;strokeColor=none;fontColor=#333333;" vertex="1" parent="NcRujNU-MuARHv59cEKX-141">
          <mxGeometry x="200" width="40" height="20" as="geometry"/>
        </mxCell>
        <mxCell id="NcRujNU-MuARHv59cEKX-135" value="6" style="rounded=0;whiteSpace=wrap;html=1;glass=1;fontSize=14;fillColor=#f5f5f5;strokeColor=none;fontColor=#333333;" vertex="1" parent="NcRujNU-MuARHv59cEKX-141">
          <mxGeometry x="240" width="40" height="20" as="geometry"/>
        </mxCell>
        <mxCell id="NcRujNU-MuARHv59cEKX-136" value="7" style="rounded=0;whiteSpace=wrap;html=1;glass=1;fontSize=14;fillColor=#f5f5f5;strokeColor=none;fontColor=#333333;" vertex="1" parent="NcRujNU-MuARHv59cEKX-141">
          <mxGeometry x="280" width="40" height="20" as="geometry"/>
        </mxCell>
        <mxCell id="NcRujNU-MuARHv59cEKX-137" value="8" style="rounded=0;whiteSpace=wrap;html=1;glass=1;fontSize=14;fillColor=#f5f5f5;strokeColor=none;fontColor=#333333;" vertex="1" parent="NcRujNU-MuARHv59cEKX-141">
          <mxGeometry x="320" width="40" height="20" as="geometry"/>
        </mxCell>
        <mxCell id="NcRujNU-MuARHv59cEKX-138" value="10" style="rounded=0;whiteSpace=wrap;html=1;glass=1;fontSize=14;fillColor=#f5f5f5;strokeColor=none;fontColor=#333333;" vertex="1" parent="NcRujNU-MuARHv59cEKX-141">
          <mxGeometry x="400" width="40" height="20" as="geometry"/>
        </mxCell>
        <mxCell id="NcRujNU-MuARHv59cEKX-139" value="9" style="rounded=0;whiteSpace=wrap;html=1;glass=1;fontSize=14;fillColor=#f5f5f5;strokeColor=none;fontColor=#333333;" vertex="1" parent="NcRujNU-MuARHv59cEKX-141">
          <mxGeometry x="360" width="40" height="20" as="geometry"/>
        </mxCell>
        <mxCell id="NcRujNU-MuARHv59cEKX-142" value="" style="group" vertex="1" connectable="0" parent="1">
          <mxGeometry x="361" y="700" width="440" height="20" as="geometry"/>
        </mxCell>
        <mxCell id="NcRujNU-MuARHv59cEKX-143" value="" style="group;fillColor=#f5f5f5;strokeColor=none;fontColor=#333333;" vertex="1" connectable="0" parent="NcRujNU-MuARHv59cEKX-142">
          <mxGeometry width="440" height="20" as="geometry"/>
        </mxCell>
        <mxCell id="NcRujNU-MuARHv59cEKX-144" value="0" style="rounded=0;whiteSpace=wrap;html=1;glass=1;fontSize=14;fillColor=#f5f5f5;strokeColor=none;fontColor=#333333;" vertex="1" parent="NcRujNU-MuARHv59cEKX-142">
          <mxGeometry width="40" height="20" as="geometry"/>
        </mxCell>
        <mxCell id="NcRujNU-MuARHv59cEKX-145" value="1" style="rounded=0;whiteSpace=wrap;html=1;glass=1;fontSize=14;fillColor=#f5f5f5;strokeColor=none;fontColor=#333333;" vertex="1" parent="NcRujNU-MuARHv59cEKX-142">
          <mxGeometry x="40" width="40" height="20" as="geometry"/>
        </mxCell>
        <mxCell id="NcRujNU-MuARHv59cEKX-146" value="2" style="rounded=0;whiteSpace=wrap;html=1;glass=1;fontSize=14;fillColor=#f5f5f5;strokeColor=none;fontColor=#333333;" vertex="1" parent="NcRujNU-MuARHv59cEKX-142">
          <mxGeometry x="80" width="40" height="20" as="geometry"/>
        </mxCell>
        <mxCell id="NcRujNU-MuARHv59cEKX-147" value="3" style="rounded=0;whiteSpace=wrap;html=1;glass=1;fontSize=14;fillColor=#f5f5f5;strokeColor=none;fontColor=#333333;" vertex="1" parent="NcRujNU-MuARHv59cEKX-142">
          <mxGeometry x="120" width="40" height="20" as="geometry"/>
        </mxCell>
        <mxCell id="NcRujNU-MuARHv59cEKX-148" value="4" style="rounded=0;whiteSpace=wrap;html=1;glass=1;fontSize=14;fillColor=#f5f5f5;strokeColor=none;fontColor=#333333;" vertex="1" parent="NcRujNU-MuARHv59cEKX-142">
          <mxGeometry x="160" width="40" height="20" as="geometry"/>
        </mxCell>
        <mxCell id="NcRujNU-MuARHv59cEKX-149" value="5" style="rounded=0;whiteSpace=wrap;html=1;glass=1;fontSize=14;fillColor=#f5f5f5;strokeColor=none;fontColor=#333333;" vertex="1" parent="NcRujNU-MuARHv59cEKX-142">
          <mxGeometry x="200" width="40" height="20" as="geometry"/>
        </mxCell>
        <mxCell id="NcRujNU-MuARHv59cEKX-150" value="6" style="rounded=0;whiteSpace=wrap;html=1;glass=1;fontSize=14;fillColor=#f5f5f5;strokeColor=none;fontColor=#333333;" vertex="1" parent="NcRujNU-MuARHv59cEKX-142">
          <mxGeometry x="240" width="40" height="20" as="geometry"/>
        </mxCell>
        <mxCell id="NcRujNU-MuARHv59cEKX-151" value="7" style="rounded=0;whiteSpace=wrap;html=1;glass=1;fontSize=14;fillColor=#f5f5f5;strokeColor=none;fontColor=#333333;" vertex="1" parent="NcRujNU-MuARHv59cEKX-142">
          <mxGeometry x="280" width="40" height="20" as="geometry"/>
        </mxCell>
        <mxCell id="NcRujNU-MuARHv59cEKX-152" value="8" style="rounded=0;whiteSpace=wrap;html=1;glass=1;fontSize=14;fillColor=#f5f5f5;strokeColor=none;fontColor=#333333;" vertex="1" parent="NcRujNU-MuARHv59cEKX-142">
          <mxGeometry x="320" width="40" height="20" as="geometry"/>
        </mxCell>
        <mxCell id="NcRujNU-MuARHv59cEKX-153" value="10" style="rounded=0;whiteSpace=wrap;html=1;glass=1;fontSize=14;fillColor=#f5f5f5;strokeColor=none;fontColor=#333333;" vertex="1" parent="NcRujNU-MuARHv59cEKX-142">
          <mxGeometry x="400" width="40" height="20" as="geometry"/>
        </mxCell>
        <mxCell id="NcRujNU-MuARHv59cEKX-154" value="9" style="rounded=0;whiteSpace=wrap;html=1;glass=1;fontSize=14;fillColor=#f5f5f5;strokeColor=none;fontColor=#333333;" vertex="1" parent="NcRujNU-MuARHv59cEKX-142">
          <mxGeometry x="360" width="40" height="20" as="geometry"/>
        </mxCell>
        <mxCell id="NcRujNU-MuARHv59cEKX-372" style="edgeStyle=orthogonalEdgeStyle;curved=1;rounded=0;orthogonalLoop=1;jettySize=auto;html=1;exitX=0;exitY=0.75;exitDx=0;exitDy=0;entryX=0;entryY=0.25;entryDx=0;entryDy=0;fontSize=14;" edge="1" parent="1" source="NcRujNU-MuARHv59cEKX-155" target="NcRujNU-MuARHv59cEKX-103">
          <mxGeometry relative="1" as="geometry">
            <Array as="points">
              <mxPoint x="320" y="989"/>
              <mxPoint x="320" y="1210"/>
            </Array>
          </mxGeometry>
        </mxCell>
        <mxCell id="NcRujNU-MuARHv59cEKX-155" value="M&lt;br&gt;48" style="rounded=0;whiteSpace=wrap;html=1;glass=1;fontSize=14;fillColor=#FFCCE6;" vertex="1" parent="1">
          <mxGeometry x="361" y="959" width="40" height="40" as="geometry"/>
        </mxCell>
        <mxCell id="NcRujNU-MuARHv59cEKX-156" value="e&lt;br&gt;65" style="rounded=0;whiteSpace=wrap;html=1;glass=1;fontSize=14;fillColor=#FFCCE6;" vertex="1" parent="1">
          <mxGeometry x="401" y="959" width="40" height="40" as="geometry"/>
        </mxCell>
        <mxCell id="NcRujNU-MuARHv59cEKX-157" value="l&lt;br&gt;6C" style="rounded=0;whiteSpace=wrap;html=1;glass=1;fontSize=14;fillColor=#FFCCE6;" vertex="1" parent="1">
          <mxGeometry x="441" y="959" width="40" height="40" as="geometry"/>
        </mxCell>
        <mxCell id="NcRujNU-MuARHv59cEKX-158" value="l&lt;br&gt;6C" style="rounded=0;whiteSpace=wrap;html=1;glass=1;fontSize=14;fillColor=#FFCCE6;" vertex="1" parent="1">
          <mxGeometry x="481" y="959" width="40" height="40" as="geometry"/>
        </mxCell>
        <mxCell id="NcRujNU-MuARHv59cEKX-159" value="o&lt;br&gt;6F" style="rounded=0;whiteSpace=wrap;html=1;glass=1;fontSize=14;fillColor=#FFCCE6;" vertex="1" parent="1">
          <mxGeometry x="521" y="959" width="40" height="40" as="geometry"/>
        </mxCell>
        <mxCell id="NcRujNU-MuARHv59cEKX-160" value="w&lt;br&gt;77" style="rounded=0;whiteSpace=wrap;html=1;glass=1;fontSize=14;fillColor=#FFCCE6;" vertex="1" parent="1">
          <mxGeometry x="561" y="959" width="40" height="40" as="geometry"/>
        </mxCell>
        <mxCell id="NcRujNU-MuARHv59cEKX-161" value="" style="rounded=0;whiteSpace=wrap;html=1;glass=1;fontSize=14;fillColor=#FFCCE6;" vertex="1" parent="1">
          <mxGeometry x="601" y="959" width="40" height="40" as="geometry"/>
        </mxCell>
        <mxCell id="NcRujNU-MuARHv59cEKX-162" value="" style="rounded=0;whiteSpace=wrap;html=1;glass=1;fontSize=14;fillColor=#FFCCE6;" vertex="1" parent="1">
          <mxGeometry x="641" y="959" width="40" height="40" as="geometry"/>
        </mxCell>
        <mxCell id="NcRujNU-MuARHv59cEKX-163" value="" style="rounded=0;whiteSpace=wrap;html=1;glass=1;fontSize=14;fillColor=#FFCCE6;" vertex="1" parent="1">
          <mxGeometry x="681" y="959" width="40" height="40" as="geometry"/>
        </mxCell>
        <mxCell id="NcRujNU-MuARHv59cEKX-164" value="" style="rounded=0;whiteSpace=wrap;html=1;glass=1;fontSize=14;fillColor=#333333;strokeColor=#333333;" vertex="1" parent="1">
          <mxGeometry x="761" y="959" width="40" height="40" as="geometry"/>
        </mxCell>
        <mxCell id="NcRujNU-MuARHv59cEKX-165" value="" style="rounded=0;whiteSpace=wrap;html=1;glass=1;fontSize=14;fillColor=#FFCCE6;" vertex="1" parent="1">
          <mxGeometry x="721" y="959" width="40" height="40" as="geometry"/>
        </mxCell>
        <mxCell id="NcRujNU-MuARHv59cEKX-166" value="" style="group" vertex="1" connectable="0" parent="1">
          <mxGeometry x="360" y="939" width="440" height="20" as="geometry"/>
        </mxCell>
        <mxCell id="NcRujNU-MuARHv59cEKX-167" value="" style="group;fillColor=#f5f5f5;strokeColor=none;fontColor=#333333;" vertex="1" connectable="0" parent="NcRujNU-MuARHv59cEKX-166">
          <mxGeometry width="440" height="20" as="geometry"/>
        </mxCell>
        <mxCell id="NcRujNU-MuARHv59cEKX-168" value="0" style="rounded=0;whiteSpace=wrap;html=1;glass=1;fontSize=14;fillColor=#f5f5f5;strokeColor=none;fontColor=#333333;" vertex="1" parent="NcRujNU-MuARHv59cEKX-166">
          <mxGeometry width="40" height="20" as="geometry"/>
        </mxCell>
        <mxCell id="NcRujNU-MuARHv59cEKX-169" value="1" style="rounded=0;whiteSpace=wrap;html=1;glass=1;fontSize=14;fillColor=#f5f5f5;strokeColor=none;fontColor=#333333;" vertex="1" parent="NcRujNU-MuARHv59cEKX-166">
          <mxGeometry x="40" width="40" height="20" as="geometry"/>
        </mxCell>
        <mxCell id="NcRujNU-MuARHv59cEKX-170" value="2" style="rounded=0;whiteSpace=wrap;html=1;glass=1;fontSize=14;fillColor=#f5f5f5;strokeColor=none;fontColor=#333333;" vertex="1" parent="NcRujNU-MuARHv59cEKX-166">
          <mxGeometry x="80" width="40" height="20" as="geometry"/>
        </mxCell>
        <mxCell id="NcRujNU-MuARHv59cEKX-171" value="3" style="rounded=0;whiteSpace=wrap;html=1;glass=1;fontSize=14;fillColor=#f5f5f5;strokeColor=none;fontColor=#333333;" vertex="1" parent="NcRujNU-MuARHv59cEKX-166">
          <mxGeometry x="120" width="40" height="20" as="geometry"/>
        </mxCell>
        <mxCell id="NcRujNU-MuARHv59cEKX-172" value="4" style="rounded=0;whiteSpace=wrap;html=1;glass=1;fontSize=14;fillColor=#f5f5f5;strokeColor=none;fontColor=#333333;" vertex="1" parent="NcRujNU-MuARHv59cEKX-166">
          <mxGeometry x="160" width="40" height="20" as="geometry"/>
        </mxCell>
        <mxCell id="NcRujNU-MuARHv59cEKX-173" value="5" style="rounded=0;whiteSpace=wrap;html=1;glass=1;fontSize=14;fillColor=#f5f5f5;strokeColor=none;fontColor=#333333;" vertex="1" parent="NcRujNU-MuARHv59cEKX-166">
          <mxGeometry x="200" width="40" height="20" as="geometry"/>
        </mxCell>
        <mxCell id="NcRujNU-MuARHv59cEKX-174" value="6" style="rounded=0;whiteSpace=wrap;html=1;glass=1;fontSize=14;fillColor=#f5f5f5;strokeColor=none;fontColor=#333333;" vertex="1" parent="NcRujNU-MuARHv59cEKX-166">
          <mxGeometry x="240" width="40" height="20" as="geometry"/>
        </mxCell>
        <mxCell id="NcRujNU-MuARHv59cEKX-175" value="7" style="rounded=0;whiteSpace=wrap;html=1;glass=1;fontSize=14;fillColor=#f5f5f5;strokeColor=none;fontColor=#333333;" vertex="1" parent="NcRujNU-MuARHv59cEKX-166">
          <mxGeometry x="280" width="40" height="20" as="geometry"/>
        </mxCell>
        <mxCell id="NcRujNU-MuARHv59cEKX-176" value="8" style="rounded=0;whiteSpace=wrap;html=1;glass=1;fontSize=14;fillColor=#f5f5f5;strokeColor=none;fontColor=#333333;" vertex="1" parent="NcRujNU-MuARHv59cEKX-166">
          <mxGeometry x="320" width="40" height="20" as="geometry"/>
        </mxCell>
        <mxCell id="NcRujNU-MuARHv59cEKX-177" value="10" style="rounded=0;whiteSpace=wrap;html=1;glass=1;fontSize=14;fillColor=#f5f5f5;strokeColor=none;fontColor=#333333;" vertex="1" parent="NcRujNU-MuARHv59cEKX-166">
          <mxGeometry x="400" width="40" height="20" as="geometry"/>
        </mxCell>
        <mxCell id="NcRujNU-MuARHv59cEKX-178" value="9" style="rounded=0;whiteSpace=wrap;html=1;glass=1;fontSize=14;fillColor=#f5f5f5;strokeColor=none;fontColor=#333333;" vertex="1" parent="NcRujNU-MuARHv59cEKX-166">
          <mxGeometry x="360" width="40" height="20" as="geometry"/>
        </mxCell>
        <mxCell id="NcRujNU-MuARHv59cEKX-207" value="" style="group" vertex="1" connectable="0" parent="1">
          <mxGeometry x="359" y="1180" width="440" height="20" as="geometry"/>
        </mxCell>
        <mxCell id="NcRujNU-MuARHv59cEKX-208" value="" style="group;fillColor=#f5f5f5;strokeColor=none;fontColor=#333333;" vertex="1" connectable="0" parent="NcRujNU-MuARHv59cEKX-207">
          <mxGeometry width="440" height="20" as="geometry"/>
        </mxCell>
        <mxCell id="NcRujNU-MuARHv59cEKX-209" value="0" style="rounded=0;whiteSpace=wrap;html=1;glass=1;fontSize=14;fillColor=#f5f5f5;strokeColor=none;fontColor=#333333;" vertex="1" parent="NcRujNU-MuARHv59cEKX-207">
          <mxGeometry width="40" height="20" as="geometry"/>
        </mxCell>
        <mxCell id="NcRujNU-MuARHv59cEKX-210" value="1" style="rounded=0;whiteSpace=wrap;html=1;glass=1;fontSize=14;fillColor=#f5f5f5;strokeColor=none;fontColor=#333333;" vertex="1" parent="NcRujNU-MuARHv59cEKX-207">
          <mxGeometry x="40" width="40" height="20" as="geometry"/>
        </mxCell>
        <mxCell id="NcRujNU-MuARHv59cEKX-211" value="2" style="rounded=0;whiteSpace=wrap;html=1;glass=1;fontSize=14;fillColor=#f5f5f5;strokeColor=none;fontColor=#333333;" vertex="1" parent="NcRujNU-MuARHv59cEKX-207">
          <mxGeometry x="80" width="40" height="20" as="geometry"/>
        </mxCell>
        <mxCell id="NcRujNU-MuARHv59cEKX-212" value="3" style="rounded=0;whiteSpace=wrap;html=1;glass=1;fontSize=14;fillColor=#f5f5f5;strokeColor=none;fontColor=#333333;" vertex="1" parent="NcRujNU-MuARHv59cEKX-207">
          <mxGeometry x="120" width="40" height="20" as="geometry"/>
        </mxCell>
        <mxCell id="NcRujNU-MuARHv59cEKX-213" value="4" style="rounded=0;whiteSpace=wrap;html=1;glass=1;fontSize=14;fillColor=#f5f5f5;strokeColor=none;fontColor=#333333;" vertex="1" parent="NcRujNU-MuARHv59cEKX-207">
          <mxGeometry x="160" width="40" height="20" as="geometry"/>
        </mxCell>
        <mxCell id="NcRujNU-MuARHv59cEKX-214" value="5" style="rounded=0;whiteSpace=wrap;html=1;glass=1;fontSize=14;fillColor=#f5f5f5;strokeColor=none;fontColor=#333333;" vertex="1" parent="NcRujNU-MuARHv59cEKX-207">
          <mxGeometry x="200" width="40" height="20" as="geometry"/>
        </mxCell>
        <mxCell id="NcRujNU-MuARHv59cEKX-215" value="6" style="rounded=0;whiteSpace=wrap;html=1;glass=1;fontSize=14;fillColor=#f5f5f5;strokeColor=none;fontColor=#333333;" vertex="1" parent="NcRujNU-MuARHv59cEKX-207">
          <mxGeometry x="240" width="40" height="20" as="geometry"/>
        </mxCell>
        <mxCell id="NcRujNU-MuARHv59cEKX-216" value="7" style="rounded=0;whiteSpace=wrap;html=1;glass=1;fontSize=14;fillColor=#f5f5f5;strokeColor=none;fontColor=#333333;" vertex="1" parent="NcRujNU-MuARHv59cEKX-207">
          <mxGeometry x="280" width="40" height="20" as="geometry"/>
        </mxCell>
        <mxCell id="NcRujNU-MuARHv59cEKX-217" value="8" style="rounded=0;whiteSpace=wrap;html=1;glass=1;fontSize=14;fillColor=#f5f5f5;strokeColor=none;fontColor=#333333;" vertex="1" parent="NcRujNU-MuARHv59cEKX-207">
          <mxGeometry x="320" width="40" height="20" as="geometry"/>
        </mxCell>
        <mxCell id="NcRujNU-MuARHv59cEKX-218" value="10" style="rounded=0;whiteSpace=wrap;html=1;glass=1;fontSize=14;fillColor=#f5f5f5;strokeColor=none;fontColor=#333333;" vertex="1" parent="NcRujNU-MuARHv59cEKX-207">
          <mxGeometry x="400" width="40" height="20" as="geometry"/>
        </mxCell>
        <mxCell id="NcRujNU-MuARHv59cEKX-219" value="9" style="rounded=0;whiteSpace=wrap;html=1;glass=1;fontSize=14;fillColor=#f5f5f5;strokeColor=none;fontColor=#333333;" vertex="1" parent="NcRujNU-MuARHv59cEKX-207">
          <mxGeometry x="360" width="40" height="20" as="geometry"/>
        </mxCell>
        <mxCell id="NcRujNU-MuARHv59cEKX-222" value="&lt;font face=&quot;couriernewpsmt&quot;&gt;buffer.&lt;b&gt;&lt;u&gt;&lt;i&gt;&lt;font color=&quot;#cc0000&quot;&gt;position&lt;/font&gt;&lt;/i&gt;&lt;/u&gt;&lt;/b&gt;(2);&lt;br&gt;或者 buffer.get(new byte[10], 0,2);&lt;/font&gt;" style="text;html=1;fontSize=14;" vertex="1" parent="1">
          <mxGeometry x="108.5" y="1320" width="210" height="40" as="geometry"/>
        </mxCell>
        <mxCell id="NcRujNU-MuARHv59cEKX-374" style="edgeStyle=orthogonalEdgeStyle;curved=1;rounded=0;orthogonalLoop=1;jettySize=auto;html=1;exitX=0;exitY=0.75;exitDx=0;exitDy=0;entryX=0;entryY=0.25;entryDx=0;entryDy=0;fontSize=14;" edge="1" parent="1" source="NcRujNU-MuARHv59cEKX-223" target="NcRujNU-MuARHv59cEKX-259">
          <mxGeometry relative="1" as="geometry">
            <Array as="points">
              <mxPoint x="320" y="1470"/>
              <mxPoint x="320" y="1690"/>
            </Array>
          </mxGeometry>
        </mxCell>
        <mxCell id="NcRujNU-MuARHv59cEKX-223" value="M&lt;br&gt;48" style="rounded=0;whiteSpace=wrap;html=1;glass=1;fontSize=14;fillColor=#FFCCE6;" vertex="1" parent="1">
          <mxGeometry x="361" y="1440" width="40" height="40" as="geometry"/>
        </mxCell>
        <mxCell id="NcRujNU-MuARHv59cEKX-224" value="e&lt;br&gt;65" style="rounded=0;whiteSpace=wrap;html=1;glass=1;fontSize=14;fillColor=#FFCCE6;" vertex="1" parent="1">
          <mxGeometry x="401" y="1440" width="40" height="40" as="geometry"/>
        </mxCell>
        <mxCell id="NcRujNU-MuARHv59cEKX-225" value="l&lt;br&gt;6C" style="rounded=0;whiteSpace=wrap;html=1;glass=1;fontSize=14;fillColor=#FFCCE6;" vertex="1" parent="1">
          <mxGeometry x="441" y="1440" width="40" height="40" as="geometry"/>
        </mxCell>
        <mxCell id="NcRujNU-MuARHv59cEKX-226" value="l&lt;br&gt;6C" style="rounded=0;whiteSpace=wrap;html=1;glass=1;fontSize=14;fillColor=#FFCCE6;" vertex="1" parent="1">
          <mxGeometry x="481" y="1440" width="40" height="40" as="geometry"/>
        </mxCell>
        <mxCell id="NcRujNU-MuARHv59cEKX-227" value="o&lt;br&gt;6F" style="rounded=0;whiteSpace=wrap;html=1;glass=1;fontSize=14;fillColor=#FFCCE6;" vertex="1" parent="1">
          <mxGeometry x="521" y="1440" width="40" height="40" as="geometry"/>
        </mxCell>
        <mxCell id="NcRujNU-MuARHv59cEKX-228" value="w&lt;br&gt;77" style="rounded=0;whiteSpace=wrap;html=1;glass=1;fontSize=14;fillColor=#FFCCE6;" vertex="1" parent="1">
          <mxGeometry x="561" y="1440" width="40" height="40" as="geometry"/>
        </mxCell>
        <mxCell id="NcRujNU-MuARHv59cEKX-229" value="" style="rounded=0;whiteSpace=wrap;html=1;glass=1;fontSize=14;fillColor=#FFCCE6;" vertex="1" parent="1">
          <mxGeometry x="601" y="1440" width="40" height="40" as="geometry"/>
        </mxCell>
        <mxCell id="NcRujNU-MuARHv59cEKX-230" value="" style="rounded=0;whiteSpace=wrap;html=1;glass=1;fontSize=14;fillColor=#FFCCE6;" vertex="1" parent="1">
          <mxGeometry x="641" y="1440" width="40" height="40" as="geometry"/>
        </mxCell>
        <mxCell id="NcRujNU-MuARHv59cEKX-231" value="" style="rounded=0;whiteSpace=wrap;html=1;glass=1;fontSize=14;fillColor=#FFCCE6;" vertex="1" parent="1">
          <mxGeometry x="681" y="1440" width="40" height="40" as="geometry"/>
        </mxCell>
        <mxCell id="NcRujNU-MuARHv59cEKX-232" value="" style="rounded=0;whiteSpace=wrap;html=1;glass=1;fontSize=14;fillColor=#333333;strokeColor=#333333;" vertex="1" parent="1">
          <mxGeometry x="761" y="1440" width="40" height="40" as="geometry"/>
        </mxCell>
        <mxCell id="NcRujNU-MuARHv59cEKX-233" value="Null" style="rounded=0;whiteSpace=wrap;html=1;glass=1;fontSize=14;fillColor=#f5f5f5;strokeColor=#666666;fontColor=#333333;" vertex="1" parent="1">
          <mxGeometry x="362.5" y="1520" width="40" height="40" as="geometry"/>
        </mxCell>
        <mxCell id="NcRujNU-MuARHv59cEKX-234" style="edgeStyle=orthogonalEdgeStyle;curved=1;rounded=0;orthogonalLoop=1;jettySize=auto;html=1;exitX=0.5;exitY=0;exitDx=0;exitDy=0;entryX=0.5;entryY=1;entryDx=0;entryDy=0;fontSize=14;" edge="1" parent="1" source="NcRujNU-MuARHv59cEKX-235" target="NcRujNU-MuARHv59cEKX-225">
          <mxGeometry relative="1" as="geometry"/>
        </mxCell>
        <mxCell id="NcRujNU-MuARHv59cEKX-235" value="2" style="rounded=0;whiteSpace=wrap;html=1;glass=1;fontSize=14;fillColor=#f5f5f5;strokeColor=#666666;fontColor=#333333;" vertex="1" parent="1">
          <mxGeometry x="443.5" y="1520" width="40" height="40" as="geometry"/>
        </mxCell>
        <mxCell id="NcRujNU-MuARHv59cEKX-236" style="edgeStyle=orthogonalEdgeStyle;curved=1;rounded=0;orthogonalLoop=1;jettySize=auto;html=1;exitX=0.5;exitY=0;exitDx=0;exitDy=0;entryX=0.5;entryY=1;entryDx=0;entryDy=0;fontSize=14;" edge="1" parent="1" source="NcRujNU-MuARHv59cEKX-237" target="NcRujNU-MuARHv59cEKX-229">
          <mxGeometry relative="1" as="geometry"/>
        </mxCell>
        <mxCell id="NcRujNU-MuARHv59cEKX-237" value="10" style="rounded=0;whiteSpace=wrap;html=1;glass=1;fontSize=14;fillColor=#f5f5f5;strokeColor=#666666;fontColor=#333333;" vertex="1" parent="1">
          <mxGeometry x="682.5" y="1520" width="40" height="40" as="geometry"/>
        </mxCell>
        <mxCell id="NcRujNU-MuARHv59cEKX-238" style="edgeStyle=orthogonalEdgeStyle;curved=1;rounded=0;orthogonalLoop=1;jettySize=auto;html=1;exitX=0.5;exitY=0;exitDx=0;exitDy=0;entryX=0.5;entryY=1;entryDx=0;entryDy=0;fontSize=14;" edge="1" parent="1" source="NcRujNU-MuARHv59cEKX-239" target="NcRujNU-MuARHv59cEKX-232">
          <mxGeometry relative="1" as="geometry"/>
        </mxCell>
        <mxCell id="NcRujNU-MuARHv59cEKX-239" value="10" style="rounded=0;whiteSpace=wrap;html=1;glass=1;fontSize=14;fillColor=#f5f5f5;strokeColor=#666666;fontColor=#333333;" vertex="1" parent="1">
          <mxGeometry x="760" y="1520" width="40" height="40" as="geometry"/>
        </mxCell>
        <mxCell id="NcRujNU-MuARHv59cEKX-240" value="" style="rounded=0;whiteSpace=wrap;html=1;glass=1;fontSize=14;fillColor=#FFCCE6;" vertex="1" parent="1">
          <mxGeometry x="721" y="1440" width="40" height="40" as="geometry"/>
        </mxCell>
        <mxCell id="NcRujNU-MuARHv59cEKX-241" value="position" style="text;html=1;align=center;verticalAlign=middle;resizable=0;points=[];;autosize=1;fontSize=14;" vertex="1" parent="1">
          <mxGeometry x="431" y="1560" width="60" height="20" as="geometry"/>
        </mxCell>
        <mxCell id="NcRujNU-MuARHv59cEKX-242" value="limit" style="text;html=1;align=center;verticalAlign=middle;resizable=0;points=[];;autosize=1;fontSize=14;" vertex="1" parent="1">
          <mxGeometry x="683.5" y="1560" width="40" height="20" as="geometry"/>
        </mxCell>
        <mxCell id="NcRujNU-MuARHv59cEKX-243" value="capacity" style="text;html=1;align=center;verticalAlign=middle;resizable=0;points=[];;autosize=1;fontSize=14;" vertex="1" parent="1">
          <mxGeometry x="745" y="1560" width="70" height="20" as="geometry"/>
        </mxCell>
        <mxCell id="NcRujNU-MuARHv59cEKX-244" value="mark" style="text;html=1;align=center;verticalAlign=middle;resizable=0;points=[];;autosize=1;fontSize=14;" vertex="1" parent="1">
          <mxGeometry x="355" y="1560" width="50" height="20" as="geometry"/>
        </mxCell>
        <mxCell id="NcRujNU-MuARHv59cEKX-245" value="" style="group" vertex="1" connectable="0" parent="1">
          <mxGeometry x="360.5" y="1420" width="440" height="20" as="geometry"/>
        </mxCell>
        <mxCell id="NcRujNU-MuARHv59cEKX-246" value="" style="group;fillColor=#f5f5f5;strokeColor=none;fontColor=#333333;" vertex="1" connectable="0" parent="NcRujNU-MuARHv59cEKX-245">
          <mxGeometry width="440" height="20" as="geometry"/>
        </mxCell>
        <mxCell id="NcRujNU-MuARHv59cEKX-247" value="0" style="rounded=0;whiteSpace=wrap;html=1;glass=1;fontSize=14;fillColor=#f5f5f5;strokeColor=none;fontColor=#333333;" vertex="1" parent="NcRujNU-MuARHv59cEKX-245">
          <mxGeometry width="40" height="20" as="geometry"/>
        </mxCell>
        <mxCell id="NcRujNU-MuARHv59cEKX-248" value="1" style="rounded=0;whiteSpace=wrap;html=1;glass=1;fontSize=14;fillColor=#f5f5f5;strokeColor=none;fontColor=#333333;" vertex="1" parent="NcRujNU-MuARHv59cEKX-245">
          <mxGeometry x="40" width="40" height="20" as="geometry"/>
        </mxCell>
        <mxCell id="NcRujNU-MuARHv59cEKX-249" value="2" style="rounded=0;whiteSpace=wrap;html=1;glass=1;fontSize=14;fillColor=#f5f5f5;strokeColor=none;fontColor=#333333;" vertex="1" parent="NcRujNU-MuARHv59cEKX-245">
          <mxGeometry x="80" width="40" height="20" as="geometry"/>
        </mxCell>
        <mxCell id="NcRujNU-MuARHv59cEKX-250" value="3" style="rounded=0;whiteSpace=wrap;html=1;glass=1;fontSize=14;fillColor=#f5f5f5;strokeColor=none;fontColor=#333333;" vertex="1" parent="NcRujNU-MuARHv59cEKX-245">
          <mxGeometry x="120" width="40" height="20" as="geometry"/>
        </mxCell>
        <mxCell id="NcRujNU-MuARHv59cEKX-251" value="4" style="rounded=0;whiteSpace=wrap;html=1;glass=1;fontSize=14;fillColor=#f5f5f5;strokeColor=none;fontColor=#333333;" vertex="1" parent="NcRujNU-MuARHv59cEKX-245">
          <mxGeometry x="160" width="40" height="20" as="geometry"/>
        </mxCell>
        <mxCell id="NcRujNU-MuARHv59cEKX-252" value="5" style="rounded=0;whiteSpace=wrap;html=1;glass=1;fontSize=14;fillColor=#f5f5f5;strokeColor=none;fontColor=#333333;" vertex="1" parent="NcRujNU-MuARHv59cEKX-245">
          <mxGeometry x="200" width="40" height="20" as="geometry"/>
        </mxCell>
        <mxCell id="NcRujNU-MuARHv59cEKX-253" value="6" style="rounded=0;whiteSpace=wrap;html=1;glass=1;fontSize=14;fillColor=#f5f5f5;strokeColor=none;fontColor=#333333;" vertex="1" parent="NcRujNU-MuARHv59cEKX-245">
          <mxGeometry x="240" width="40" height="20" as="geometry"/>
        </mxCell>
        <mxCell id="NcRujNU-MuARHv59cEKX-254" value="7" style="rounded=0;whiteSpace=wrap;html=1;glass=1;fontSize=14;fillColor=#f5f5f5;strokeColor=none;fontColor=#333333;" vertex="1" parent="NcRujNU-MuARHv59cEKX-245">
          <mxGeometry x="280" width="40" height="20" as="geometry"/>
        </mxCell>
        <mxCell id="NcRujNU-MuARHv59cEKX-255" value="8" style="rounded=0;whiteSpace=wrap;html=1;glass=1;fontSize=14;fillColor=#f5f5f5;strokeColor=none;fontColor=#333333;" vertex="1" parent="NcRujNU-MuARHv59cEKX-245">
          <mxGeometry x="320" width="40" height="20" as="geometry"/>
        </mxCell>
        <mxCell id="NcRujNU-MuARHv59cEKX-256" value="10" style="rounded=0;whiteSpace=wrap;html=1;glass=1;fontSize=14;fillColor=#f5f5f5;strokeColor=none;fontColor=#333333;" vertex="1" parent="NcRujNU-MuARHv59cEKX-245">
          <mxGeometry x="400" width="40" height="20" as="geometry"/>
        </mxCell>
        <mxCell id="NcRujNU-MuARHv59cEKX-257" value="9" style="rounded=0;whiteSpace=wrap;html=1;glass=1;fontSize=14;fillColor=#f5f5f5;strokeColor=none;fontColor=#333333;" vertex="1" parent="NcRujNU-MuARHv59cEKX-245">
          <mxGeometry x="360" width="40" height="20" as="geometry"/>
        </mxCell>
        <mxCell id="NcRujNU-MuARHv59cEKX-258" value="&lt;font face=&quot;couriernewpsmt&quot; style=&quot;font-size: 14px&quot;&gt;buffer.&lt;u&gt;&lt;i&gt;&lt;b&gt;&lt;font color=&quot;#cc0000&quot;&gt;compact&lt;/font&gt;&lt;/b&gt;&lt;/i&gt;&lt;/u&gt;();&lt;/font&gt;" style="text;html=1;fontSize=14;" vertex="1" parent="1">
          <mxGeometry x="217" y="1610" width="103" height="30" as="geometry"/>
        </mxCell>
        <mxCell id="NcRujNU-MuARHv59cEKX-375" style="edgeStyle=orthogonalEdgeStyle;curved=1;rounded=0;orthogonalLoop=1;jettySize=auto;html=1;exitX=0;exitY=0.75;exitDx=0;exitDy=0;entryX=0;entryY=0.25;entryDx=0;entryDy=0;fontSize=14;" edge="1" parent="1" source="NcRujNU-MuARHv59cEKX-259" target="NcRujNU-MuARHv59cEKX-295">
          <mxGeometry relative="1" as="geometry">
            <Array as="points">
              <mxPoint x="320" y="1710"/>
              <mxPoint x="320" y="1931"/>
            </Array>
          </mxGeometry>
        </mxCell>
        <mxCell id="NcRujNU-MuARHv59cEKX-259" value="l&lt;br&gt;6C" style="rounded=0;whiteSpace=wrap;html=1;glass=1;fontSize=14;fillColor=#FFCCE6;" vertex="1" parent="1">
          <mxGeometry x="359" y="1680" width="40" height="40" as="geometry"/>
        </mxCell>
        <mxCell id="NcRujNU-MuARHv59cEKX-260" value="l&lt;br&gt;6C" style="rounded=0;whiteSpace=wrap;html=1;glass=1;fontSize=14;fillColor=#FFCCE6;" vertex="1" parent="1">
          <mxGeometry x="399" y="1680" width="40" height="40" as="geometry"/>
        </mxCell>
        <mxCell id="NcRujNU-MuARHv59cEKX-261" value="o&lt;br&gt;6F" style="rounded=0;whiteSpace=wrap;html=1;glass=1;fontSize=14;fillColor=#FFCCE6;" vertex="1" parent="1">
          <mxGeometry x="439" y="1680" width="40" height="40" as="geometry"/>
        </mxCell>
        <mxCell id="NcRujNU-MuARHv59cEKX-262" value="w&lt;br&gt;77" style="rounded=0;whiteSpace=wrap;html=1;glass=1;fontSize=14;fillColor=#FFCCE6;" vertex="1" parent="1">
          <mxGeometry x="479" y="1680" width="40" height="40" as="geometry"/>
        </mxCell>
        <mxCell id="NcRujNU-MuARHv59cEKX-263" value="o&lt;br&gt;6F" style="rounded=0;whiteSpace=wrap;html=1;glass=1;fontSize=14;fillColor=#FFCCE6;" vertex="1" parent="1">
          <mxGeometry x="519" y="1680" width="40" height="40" as="geometry"/>
        </mxCell>
        <mxCell id="NcRujNU-MuARHv59cEKX-264" value="w&lt;br&gt;77" style="rounded=0;whiteSpace=wrap;html=1;glass=1;fontSize=14;fillColor=#FFCCE6;" vertex="1" parent="1">
          <mxGeometry x="559" y="1680" width="40" height="40" as="geometry"/>
        </mxCell>
        <mxCell id="NcRujNU-MuARHv59cEKX-265" value="" style="rounded=0;whiteSpace=wrap;html=1;glass=1;fontSize=14;fillColor=#FFCCE6;" vertex="1" parent="1">
          <mxGeometry x="599" y="1680" width="40" height="40" as="geometry"/>
        </mxCell>
        <mxCell id="NcRujNU-MuARHv59cEKX-266" value="" style="rounded=0;whiteSpace=wrap;html=1;glass=1;fontSize=14;fillColor=#FFCCE6;" vertex="1" parent="1">
          <mxGeometry x="639" y="1680" width="40" height="40" as="geometry"/>
        </mxCell>
        <mxCell id="NcRujNU-MuARHv59cEKX-267" value="" style="rounded=0;whiteSpace=wrap;html=1;glass=1;fontSize=14;fillColor=#FFCCE6;" vertex="1" parent="1">
          <mxGeometry x="679" y="1680" width="40" height="40" as="geometry"/>
        </mxCell>
        <mxCell id="NcRujNU-MuARHv59cEKX-268" value="" style="rounded=0;whiteSpace=wrap;html=1;glass=1;fontSize=14;fillColor=#333333;strokeColor=#333333;" vertex="1" parent="1">
          <mxGeometry x="759" y="1680" width="40" height="40" as="geometry"/>
        </mxCell>
        <mxCell id="NcRujNU-MuARHv59cEKX-269" value="Null" style="rounded=0;whiteSpace=wrap;html=1;glass=1;fontSize=14;fillColor=#f5f5f5;strokeColor=#666666;fontColor=#333333;" vertex="1" parent="1">
          <mxGeometry x="360.5" y="1760" width="40" height="40" as="geometry"/>
        </mxCell>
        <mxCell id="NcRujNU-MuARHv59cEKX-270" style="edgeStyle=orthogonalEdgeStyle;curved=1;rounded=0;orthogonalLoop=1;jettySize=auto;html=1;exitX=0.5;exitY=0;exitDx=0;exitDy=0;entryX=0.5;entryY=1;entryDx=0;entryDy=0;fontSize=14;" edge="1" parent="1" source="NcRujNU-MuARHv59cEKX-271" target="NcRujNU-MuARHv59cEKX-263">
          <mxGeometry relative="1" as="geometry"/>
        </mxCell>
        <mxCell id="NcRujNU-MuARHv59cEKX-271" value="4" style="rounded=0;whiteSpace=wrap;html=1;glass=1;fontSize=14;fillColor=#f5f5f5;strokeColor=#666666;fontColor=#333333;" vertex="1" parent="1">
          <mxGeometry x="441.5" y="1760" width="40" height="40" as="geometry"/>
        </mxCell>
        <mxCell id="NcRujNU-MuARHv59cEKX-272" style="edgeStyle=orthogonalEdgeStyle;curved=1;rounded=0;orthogonalLoop=1;jettySize=auto;html=1;exitX=0.5;exitY=0;exitDx=0;exitDy=0;entryX=0.5;entryY=1;entryDx=0;entryDy=0;fontSize=14;" edge="1" parent="1" source="NcRujNU-MuARHv59cEKX-273" target="NcRujNU-MuARHv59cEKX-265">
          <mxGeometry relative="1" as="geometry"/>
        </mxCell>
        <mxCell id="NcRujNU-MuARHv59cEKX-273" value="10" style="rounded=0;whiteSpace=wrap;html=1;glass=1;fontSize=14;fillColor=#f5f5f5;strokeColor=#666666;fontColor=#333333;" vertex="1" parent="1">
          <mxGeometry x="680.5" y="1760" width="40" height="40" as="geometry"/>
        </mxCell>
        <mxCell id="NcRujNU-MuARHv59cEKX-274" style="edgeStyle=orthogonalEdgeStyle;curved=1;rounded=0;orthogonalLoop=1;jettySize=auto;html=1;exitX=0.5;exitY=0;exitDx=0;exitDy=0;entryX=0.5;entryY=1;entryDx=0;entryDy=0;fontSize=14;" edge="1" parent="1" source="NcRujNU-MuARHv59cEKX-275" target="NcRujNU-MuARHv59cEKX-268">
          <mxGeometry relative="1" as="geometry"/>
        </mxCell>
        <mxCell id="NcRujNU-MuARHv59cEKX-275" value="10" style="rounded=0;whiteSpace=wrap;html=1;glass=1;fontSize=14;fillColor=#f5f5f5;strokeColor=#666666;fontColor=#333333;" vertex="1" parent="1">
          <mxGeometry x="758" y="1760" width="40" height="40" as="geometry"/>
        </mxCell>
        <mxCell id="NcRujNU-MuARHv59cEKX-276" value="" style="rounded=0;whiteSpace=wrap;html=1;glass=1;fontSize=14;fillColor=#FFCCE6;" vertex="1" parent="1">
          <mxGeometry x="719" y="1680" width="40" height="40" as="geometry"/>
        </mxCell>
        <mxCell id="NcRujNU-MuARHv59cEKX-277" value="position" style="text;html=1;align=center;verticalAlign=middle;resizable=0;points=[];;autosize=1;fontSize=14;" vertex="1" parent="1">
          <mxGeometry x="429" y="1800" width="60" height="20" as="geometry"/>
        </mxCell>
        <mxCell id="NcRujNU-MuARHv59cEKX-278" value="limit" style="text;html=1;align=center;verticalAlign=middle;resizable=0;points=[];;autosize=1;fontSize=14;" vertex="1" parent="1">
          <mxGeometry x="681.5" y="1800" width="40" height="20" as="geometry"/>
        </mxCell>
        <mxCell id="NcRujNU-MuARHv59cEKX-279" value="capacity" style="text;html=1;align=center;verticalAlign=middle;resizable=0;points=[];;autosize=1;fontSize=14;" vertex="1" parent="1">
          <mxGeometry x="743" y="1800" width="70" height="20" as="geometry"/>
        </mxCell>
        <mxCell id="NcRujNU-MuARHv59cEKX-280" value="mark" style="text;html=1;align=center;verticalAlign=middle;resizable=0;points=[];;autosize=1;fontSize=14;" vertex="1" parent="1">
          <mxGeometry x="353" y="1800" width="50" height="20" as="geometry"/>
        </mxCell>
        <mxCell id="NcRujNU-MuARHv59cEKX-281" value="" style="group" vertex="1" connectable="0" parent="1">
          <mxGeometry x="358.5" y="1660" width="440" height="20" as="geometry"/>
        </mxCell>
        <mxCell id="NcRujNU-MuARHv59cEKX-282" value="" style="group;fillColor=#f5f5f5;strokeColor=none;fontColor=#333333;" vertex="1" connectable="0" parent="NcRujNU-MuARHv59cEKX-281">
          <mxGeometry width="440" height="20" as="geometry"/>
        </mxCell>
        <mxCell id="NcRujNU-MuARHv59cEKX-283" value="0" style="rounded=0;whiteSpace=wrap;html=1;glass=1;fontSize=14;fillColor=#f5f5f5;strokeColor=none;fontColor=#333333;" vertex="1" parent="NcRujNU-MuARHv59cEKX-281">
          <mxGeometry width="40" height="20" as="geometry"/>
        </mxCell>
        <mxCell id="NcRujNU-MuARHv59cEKX-284" value="1" style="rounded=0;whiteSpace=wrap;html=1;glass=1;fontSize=14;fillColor=#f5f5f5;strokeColor=none;fontColor=#333333;" vertex="1" parent="NcRujNU-MuARHv59cEKX-281">
          <mxGeometry x="40" width="40" height="20" as="geometry"/>
        </mxCell>
        <mxCell id="NcRujNU-MuARHv59cEKX-285" value="2" style="rounded=0;whiteSpace=wrap;html=1;glass=1;fontSize=14;fillColor=#f5f5f5;strokeColor=none;fontColor=#333333;" vertex="1" parent="NcRujNU-MuARHv59cEKX-281">
          <mxGeometry x="80" width="40" height="20" as="geometry"/>
        </mxCell>
        <mxCell id="NcRujNU-MuARHv59cEKX-286" value="3" style="rounded=0;whiteSpace=wrap;html=1;glass=1;fontSize=14;fillColor=#f5f5f5;strokeColor=none;fontColor=#333333;" vertex="1" parent="NcRujNU-MuARHv59cEKX-281">
          <mxGeometry x="120" width="40" height="20" as="geometry"/>
        </mxCell>
        <mxCell id="NcRujNU-MuARHv59cEKX-287" value="4" style="rounded=0;whiteSpace=wrap;html=1;glass=1;fontSize=14;fillColor=#f5f5f5;strokeColor=none;fontColor=#333333;" vertex="1" parent="NcRujNU-MuARHv59cEKX-281">
          <mxGeometry x="160" width="40" height="20" as="geometry"/>
        </mxCell>
        <mxCell id="NcRujNU-MuARHv59cEKX-288" value="5" style="rounded=0;whiteSpace=wrap;html=1;glass=1;fontSize=14;fillColor=#f5f5f5;strokeColor=none;fontColor=#333333;" vertex="1" parent="NcRujNU-MuARHv59cEKX-281">
          <mxGeometry x="200" width="40" height="20" as="geometry"/>
        </mxCell>
        <mxCell id="NcRujNU-MuARHv59cEKX-289" value="6" style="rounded=0;whiteSpace=wrap;html=1;glass=1;fontSize=14;fillColor=#f5f5f5;strokeColor=none;fontColor=#333333;" vertex="1" parent="NcRujNU-MuARHv59cEKX-281">
          <mxGeometry x="240" width="40" height="20" as="geometry"/>
        </mxCell>
        <mxCell id="NcRujNU-MuARHv59cEKX-290" value="7" style="rounded=0;whiteSpace=wrap;html=1;glass=1;fontSize=14;fillColor=#f5f5f5;strokeColor=none;fontColor=#333333;" vertex="1" parent="NcRujNU-MuARHv59cEKX-281">
          <mxGeometry x="280" width="40" height="20" as="geometry"/>
        </mxCell>
        <mxCell id="NcRujNU-MuARHv59cEKX-291" value="8" style="rounded=0;whiteSpace=wrap;html=1;glass=1;fontSize=14;fillColor=#f5f5f5;strokeColor=none;fontColor=#333333;" vertex="1" parent="NcRujNU-MuARHv59cEKX-281">
          <mxGeometry x="320" width="40" height="20" as="geometry"/>
        </mxCell>
        <mxCell id="NcRujNU-MuARHv59cEKX-292" value="10" style="rounded=0;whiteSpace=wrap;html=1;glass=1;fontSize=14;fillColor=#f5f5f5;strokeColor=none;fontColor=#333333;" vertex="1" parent="NcRujNU-MuARHv59cEKX-281">
          <mxGeometry x="400" width="40" height="20" as="geometry"/>
        </mxCell>
        <mxCell id="NcRujNU-MuARHv59cEKX-293" value="9" style="rounded=0;whiteSpace=wrap;html=1;glass=1;fontSize=14;fillColor=#f5f5f5;strokeColor=none;fontColor=#333333;" vertex="1" parent="NcRujNU-MuARHv59cEKX-281">
          <mxGeometry x="360" width="40" height="20" as="geometry"/>
        </mxCell>
        <mxCell id="NcRujNU-MuARHv59cEKX-294" value="&lt;font face=&quot;couriernewpsmt&quot;&gt;buffer.position(2).mark().position(3);&lt;/font&gt;" style="text;html=1;fontSize=14;" vertex="1" parent="1">
          <mxGeometry x="105.5" y="1830" width="213" height="30" as="geometry"/>
        </mxCell>
        <mxCell id="NcRujNU-MuARHv59cEKX-376" style="edgeStyle=orthogonalEdgeStyle;curved=1;rounded=0;orthogonalLoop=1;jettySize=auto;html=1;exitX=0;exitY=0.75;exitDx=0;exitDy=0;entryX=0;entryY=0.5;entryDx=0;entryDy=0;fontSize=14;" edge="1" parent="1" source="NcRujNU-MuARHv59cEKX-295" target="NcRujNU-MuARHv59cEKX-332">
          <mxGeometry relative="1" as="geometry">
            <Array as="points">
              <mxPoint x="320" y="1951"/>
              <mxPoint x="320" y="2179"/>
            </Array>
          </mxGeometry>
        </mxCell>
        <mxCell id="NcRujNU-MuARHv59cEKX-295" value="l&lt;br&gt;6C" style="rounded=0;whiteSpace=wrap;html=1;glass=1;fontSize=14;fillColor=#FFCCE6;" vertex="1" parent="1">
          <mxGeometry x="359" y="1921" width="40" height="40" as="geometry"/>
        </mxCell>
        <mxCell id="NcRujNU-MuARHv59cEKX-296" value="l&lt;br&gt;6C" style="rounded=0;whiteSpace=wrap;html=1;glass=1;fontSize=14;fillColor=#FFCCE6;" vertex="1" parent="1">
          <mxGeometry x="399" y="1921" width="40" height="40" as="geometry"/>
        </mxCell>
        <mxCell id="NcRujNU-MuARHv59cEKX-297" value="o&lt;br&gt;6F" style="rounded=0;whiteSpace=wrap;html=1;glass=1;fontSize=14;fillColor=#FFCCE6;" vertex="1" parent="1">
          <mxGeometry x="439" y="1921" width="40" height="40" as="geometry"/>
        </mxCell>
        <mxCell id="NcRujNU-MuARHv59cEKX-298" value="w&lt;br&gt;77" style="rounded=0;whiteSpace=wrap;html=1;glass=1;fontSize=14;fillColor=#FFCCE6;" vertex="1" parent="1">
          <mxGeometry x="479" y="1921" width="40" height="40" as="geometry"/>
        </mxCell>
        <mxCell id="NcRujNU-MuARHv59cEKX-299" value="o&lt;br&gt;6F" style="rounded=0;whiteSpace=wrap;html=1;glass=1;fontSize=14;fillColor=#FFCCE6;" vertex="1" parent="1">
          <mxGeometry x="519" y="1921" width="40" height="40" as="geometry"/>
        </mxCell>
        <mxCell id="NcRujNU-MuARHv59cEKX-300" value="w&lt;br&gt;77" style="rounded=0;whiteSpace=wrap;html=1;glass=1;fontSize=14;fillColor=#FFCCE6;" vertex="1" parent="1">
          <mxGeometry x="559" y="1921" width="40" height="40" as="geometry"/>
        </mxCell>
        <mxCell id="NcRujNU-MuARHv59cEKX-301" value="" style="rounded=0;whiteSpace=wrap;html=1;glass=1;fontSize=14;fillColor=#FFCCE6;" vertex="1" parent="1">
          <mxGeometry x="599" y="1921" width="40" height="40" as="geometry"/>
        </mxCell>
        <mxCell id="NcRujNU-MuARHv59cEKX-302" value="" style="rounded=0;whiteSpace=wrap;html=1;glass=1;fontSize=14;fillColor=#FFCCE6;" vertex="1" parent="1">
          <mxGeometry x="639" y="1921" width="40" height="40" as="geometry"/>
        </mxCell>
        <mxCell id="NcRujNU-MuARHv59cEKX-303" value="" style="rounded=0;whiteSpace=wrap;html=1;glass=1;fontSize=14;fillColor=#FFCCE6;" vertex="1" parent="1">
          <mxGeometry x="679" y="1921" width="40" height="40" as="geometry"/>
        </mxCell>
        <mxCell id="NcRujNU-MuARHv59cEKX-304" value="" style="rounded=0;whiteSpace=wrap;html=1;glass=1;fontSize=14;fillColor=#333333;strokeColor=#333333;" vertex="1" parent="1">
          <mxGeometry x="759" y="1921" width="40" height="40" as="geometry"/>
        </mxCell>
        <mxCell id="NcRujNU-MuARHv59cEKX-330" style="edgeStyle=orthogonalEdgeStyle;curved=1;rounded=0;orthogonalLoop=1;jettySize=auto;html=1;exitX=0.5;exitY=0;exitDx=0;exitDy=0;entryX=0.5;entryY=1;entryDx=0;entryDy=0;fontSize=14;" edge="1" parent="1" source="NcRujNU-MuARHv59cEKX-305" target="NcRujNU-MuARHv59cEKX-297">
          <mxGeometry relative="1" as="geometry"/>
        </mxCell>
        <mxCell id="NcRujNU-MuARHv59cEKX-305" value="2" style="rounded=0;whiteSpace=wrap;html=1;glass=1;fontSize=14;fillColor=#f5f5f5;strokeColor=#666666;fontColor=#333333;" vertex="1" parent="1">
          <mxGeometry x="360.5" y="2001" width="40" height="40" as="geometry"/>
        </mxCell>
        <mxCell id="NcRujNU-MuARHv59cEKX-306" style="edgeStyle=orthogonalEdgeStyle;curved=1;rounded=0;orthogonalLoop=1;jettySize=auto;html=1;exitX=0.5;exitY=0;exitDx=0;exitDy=0;entryX=0.5;entryY=1;entryDx=0;entryDy=0;fontSize=14;" edge="1" parent="1" source="NcRujNU-MuARHv59cEKX-307" target="NcRujNU-MuARHv59cEKX-298">
          <mxGeometry relative="1" as="geometry"/>
        </mxCell>
        <mxCell id="NcRujNU-MuARHv59cEKX-307" value="4" style="rounded=0;whiteSpace=wrap;html=1;glass=1;fontSize=14;fillColor=#f5f5f5;strokeColor=#666666;fontColor=#333333;" vertex="1" parent="1">
          <mxGeometry x="440.5" y="2001" width="40" height="40" as="geometry"/>
        </mxCell>
        <mxCell id="NcRujNU-MuARHv59cEKX-308" style="edgeStyle=orthogonalEdgeStyle;curved=1;rounded=0;orthogonalLoop=1;jettySize=auto;html=1;exitX=0.5;exitY=0;exitDx=0;exitDy=0;entryX=0.5;entryY=1;entryDx=0;entryDy=0;fontSize=14;" edge="1" parent="1" source="NcRujNU-MuARHv59cEKX-309" target="NcRujNU-MuARHv59cEKX-301">
          <mxGeometry relative="1" as="geometry"/>
        </mxCell>
        <mxCell id="NcRujNU-MuARHv59cEKX-309" value="10" style="rounded=0;whiteSpace=wrap;html=1;glass=1;fontSize=14;fillColor=#f5f5f5;strokeColor=#666666;fontColor=#333333;" vertex="1" parent="1">
          <mxGeometry x="680.5" y="2001" width="40" height="40" as="geometry"/>
        </mxCell>
        <mxCell id="NcRujNU-MuARHv59cEKX-310" style="edgeStyle=orthogonalEdgeStyle;curved=1;rounded=0;orthogonalLoop=1;jettySize=auto;html=1;exitX=0.5;exitY=0;exitDx=0;exitDy=0;entryX=0.5;entryY=1;entryDx=0;entryDy=0;fontSize=14;" edge="1" parent="1" source="NcRujNU-MuARHv59cEKX-311" target="NcRujNU-MuARHv59cEKX-304">
          <mxGeometry relative="1" as="geometry"/>
        </mxCell>
        <mxCell id="NcRujNU-MuARHv59cEKX-311" value="10" style="rounded=0;whiteSpace=wrap;html=1;glass=1;fontSize=14;fillColor=#f5f5f5;strokeColor=#666666;fontColor=#333333;" vertex="1" parent="1">
          <mxGeometry x="758" y="2001" width="40" height="40" as="geometry"/>
        </mxCell>
        <mxCell id="NcRujNU-MuARHv59cEKX-312" value="" style="rounded=0;whiteSpace=wrap;html=1;glass=1;fontSize=14;fillColor=#FFCCE6;" vertex="1" parent="1">
          <mxGeometry x="719" y="1921" width="40" height="40" as="geometry"/>
        </mxCell>
        <mxCell id="NcRujNU-MuARHv59cEKX-313" value="position" style="text;html=1;align=center;verticalAlign=middle;resizable=0;points=[];;autosize=1;fontSize=14;" vertex="1" parent="1">
          <mxGeometry x="429" y="2041" width="60" height="20" as="geometry"/>
        </mxCell>
        <mxCell id="NcRujNU-MuARHv59cEKX-314" value="limit" style="text;html=1;align=center;verticalAlign=middle;resizable=0;points=[];;autosize=1;fontSize=14;" vertex="1" parent="1">
          <mxGeometry x="681.5" y="2041" width="40" height="20" as="geometry"/>
        </mxCell>
        <mxCell id="NcRujNU-MuARHv59cEKX-315" value="capacity" style="text;html=1;align=center;verticalAlign=middle;resizable=0;points=[];;autosize=1;fontSize=14;" vertex="1" parent="1">
          <mxGeometry x="743" y="2041" width="70" height="20" as="geometry"/>
        </mxCell>
        <mxCell id="NcRujNU-MuARHv59cEKX-316" value="mark" style="text;html=1;align=center;verticalAlign=middle;resizable=0;points=[];;autosize=1;fontSize=14;" vertex="1" parent="1">
          <mxGeometry x="353" y="2041" width="50" height="20" as="geometry"/>
        </mxCell>
        <mxCell id="NcRujNU-MuARHv59cEKX-317" value="" style="group" vertex="1" connectable="0" parent="1">
          <mxGeometry x="358.5" y="1901" width="440" height="20" as="geometry"/>
        </mxCell>
        <mxCell id="NcRujNU-MuARHv59cEKX-318" value="" style="group;fillColor=#f5f5f5;strokeColor=none;fontColor=#333333;" vertex="1" connectable="0" parent="NcRujNU-MuARHv59cEKX-317">
          <mxGeometry width="440" height="20" as="geometry"/>
        </mxCell>
        <mxCell id="NcRujNU-MuARHv59cEKX-319" value="0" style="rounded=0;whiteSpace=wrap;html=1;glass=1;fontSize=14;fillColor=#f5f5f5;strokeColor=none;fontColor=#333333;" vertex="1" parent="NcRujNU-MuARHv59cEKX-317">
          <mxGeometry width="40" height="20" as="geometry"/>
        </mxCell>
        <mxCell id="NcRujNU-MuARHv59cEKX-320" value="1" style="rounded=0;whiteSpace=wrap;html=1;glass=1;fontSize=14;fillColor=#f5f5f5;strokeColor=none;fontColor=#333333;" vertex="1" parent="NcRujNU-MuARHv59cEKX-317">
          <mxGeometry x="40" width="40" height="20" as="geometry"/>
        </mxCell>
        <mxCell id="NcRujNU-MuARHv59cEKX-321" value="2" style="rounded=0;whiteSpace=wrap;html=1;glass=1;fontSize=14;fillColor=#f5f5f5;strokeColor=none;fontColor=#333333;" vertex="1" parent="NcRujNU-MuARHv59cEKX-317">
          <mxGeometry x="80" width="40" height="20" as="geometry"/>
        </mxCell>
        <mxCell id="NcRujNU-MuARHv59cEKX-322" value="3" style="rounded=0;whiteSpace=wrap;html=1;glass=1;fontSize=14;fillColor=#f5f5f5;strokeColor=none;fontColor=#333333;" vertex="1" parent="NcRujNU-MuARHv59cEKX-317">
          <mxGeometry x="120" width="40" height="20" as="geometry"/>
        </mxCell>
        <mxCell id="NcRujNU-MuARHv59cEKX-323" value="4" style="rounded=0;whiteSpace=wrap;html=1;glass=1;fontSize=14;fillColor=#f5f5f5;strokeColor=none;fontColor=#333333;" vertex="1" parent="NcRujNU-MuARHv59cEKX-317">
          <mxGeometry x="160" width="40" height="20" as="geometry"/>
        </mxCell>
        <mxCell id="NcRujNU-MuARHv59cEKX-324" value="5" style="rounded=0;whiteSpace=wrap;html=1;glass=1;fontSize=14;fillColor=#f5f5f5;strokeColor=none;fontColor=#333333;" vertex="1" parent="NcRujNU-MuARHv59cEKX-317">
          <mxGeometry x="200" width="40" height="20" as="geometry"/>
        </mxCell>
        <mxCell id="NcRujNU-MuARHv59cEKX-325" value="6" style="rounded=0;whiteSpace=wrap;html=1;glass=1;fontSize=14;fillColor=#f5f5f5;strokeColor=none;fontColor=#333333;" vertex="1" parent="NcRujNU-MuARHv59cEKX-317">
          <mxGeometry x="240" width="40" height="20" as="geometry"/>
        </mxCell>
        <mxCell id="NcRujNU-MuARHv59cEKX-326" value="7" style="rounded=0;whiteSpace=wrap;html=1;glass=1;fontSize=14;fillColor=#f5f5f5;strokeColor=none;fontColor=#333333;" vertex="1" parent="NcRujNU-MuARHv59cEKX-317">
          <mxGeometry x="280" width="40" height="20" as="geometry"/>
        </mxCell>
        <mxCell id="NcRujNU-MuARHv59cEKX-327" value="8" style="rounded=0;whiteSpace=wrap;html=1;glass=1;fontSize=14;fillColor=#f5f5f5;strokeColor=none;fontColor=#333333;" vertex="1" parent="NcRujNU-MuARHv59cEKX-317">
          <mxGeometry x="320" width="40" height="20" as="geometry"/>
        </mxCell>
        <mxCell id="NcRujNU-MuARHv59cEKX-328" value="10" style="rounded=0;whiteSpace=wrap;html=1;glass=1;fontSize=14;fillColor=#f5f5f5;strokeColor=none;fontColor=#333333;" vertex="1" parent="NcRujNU-MuARHv59cEKX-317">
          <mxGeometry x="400" width="40" height="20" as="geometry"/>
        </mxCell>
        <mxCell id="NcRujNU-MuARHv59cEKX-329" value="9" style="rounded=0;whiteSpace=wrap;html=1;glass=1;fontSize=14;fillColor=#f5f5f5;strokeColor=none;fontColor=#333333;" vertex="1" parent="NcRujNU-MuARHv59cEKX-317">
          <mxGeometry x="360" width="40" height="20" as="geometry"/>
        </mxCell>
        <mxCell id="NcRujNU-MuARHv59cEKX-331" value="&lt;font face=&quot;couriernewpsmt&quot;&gt;buffer.&lt;i&gt;&lt;b&gt;&lt;u&gt;&lt;font color=&quot;#cc0000&quot;&gt;reset&lt;/font&gt;&lt;/u&gt;&lt;/b&gt;&lt;/i&gt;();&lt;/font&gt;" style="text;html=1;fontSize=14;" vertex="1" parent="1">
          <mxGeometry x="239" y="2080" width="82" height="30" as="geometry"/>
        </mxCell>
        <mxCell id="NcRujNU-MuARHv59cEKX-332" value="l&lt;br&gt;6C" style="rounded=0;whiteSpace=wrap;html=1;glass=1;fontSize=14;fillColor=#FFCCE6;" vertex="1" parent="1">
          <mxGeometry x="359.5" y="2159" width="40" height="40" as="geometry"/>
        </mxCell>
        <mxCell id="NcRujNU-MuARHv59cEKX-333" value="l&lt;br&gt;6C" style="rounded=0;whiteSpace=wrap;html=1;glass=1;fontSize=14;fillColor=#FFCCE6;" vertex="1" parent="1">
          <mxGeometry x="399.5" y="2159" width="40" height="40" as="geometry"/>
        </mxCell>
        <mxCell id="NcRujNU-MuARHv59cEKX-334" value="o&lt;br&gt;6F" style="rounded=0;whiteSpace=wrap;html=1;glass=1;fontSize=14;fillColor=#FFCCE6;" vertex="1" parent="1">
          <mxGeometry x="439.5" y="2159" width="40" height="40" as="geometry"/>
        </mxCell>
        <mxCell id="NcRujNU-MuARHv59cEKX-335" value="w&lt;br&gt;77" style="rounded=0;whiteSpace=wrap;html=1;glass=1;fontSize=14;fillColor=#FFCCE6;" vertex="1" parent="1">
          <mxGeometry x="479.5" y="2159" width="40" height="40" as="geometry"/>
        </mxCell>
        <mxCell id="NcRujNU-MuARHv59cEKX-336" value="o&lt;br&gt;6F" style="rounded=0;whiteSpace=wrap;html=1;glass=1;fontSize=14;fillColor=#FFCCE6;" vertex="1" parent="1">
          <mxGeometry x="519.5" y="2159" width="40" height="40" as="geometry"/>
        </mxCell>
        <mxCell id="NcRujNU-MuARHv59cEKX-337" value="w&lt;br&gt;77" style="rounded=0;whiteSpace=wrap;html=1;glass=1;fontSize=14;fillColor=#FFCCE6;" vertex="1" parent="1">
          <mxGeometry x="559.5" y="2159" width="40" height="40" as="geometry"/>
        </mxCell>
        <mxCell id="NcRujNU-MuARHv59cEKX-338" value="" style="rounded=0;whiteSpace=wrap;html=1;glass=1;fontSize=14;fillColor=#FFCCE6;" vertex="1" parent="1">
          <mxGeometry x="599.5" y="2159" width="40" height="40" as="geometry"/>
        </mxCell>
        <mxCell id="NcRujNU-MuARHv59cEKX-339" value="" style="rounded=0;whiteSpace=wrap;html=1;glass=1;fontSize=14;fillColor=#FFCCE6;" vertex="1" parent="1">
          <mxGeometry x="639.5" y="2159" width="40" height="40" as="geometry"/>
        </mxCell>
        <mxCell id="NcRujNU-MuARHv59cEKX-340" value="" style="rounded=0;whiteSpace=wrap;html=1;glass=1;fontSize=14;fillColor=#FFCCE6;" vertex="1" parent="1">
          <mxGeometry x="679.5" y="2159" width="40" height="40" as="geometry"/>
        </mxCell>
        <mxCell id="NcRujNU-MuARHv59cEKX-341" value="" style="rounded=0;whiteSpace=wrap;html=1;glass=1;fontSize=14;fillColor=#333333;strokeColor=#333333;" vertex="1" parent="1">
          <mxGeometry x="759.5" y="2159" width="40" height="40" as="geometry"/>
        </mxCell>
        <mxCell id="NcRujNU-MuARHv59cEKX-342" style="edgeStyle=orthogonalEdgeStyle;curved=1;rounded=0;orthogonalLoop=1;jettySize=auto;html=1;exitX=0.5;exitY=0;exitDx=0;exitDy=0;entryX=0.5;entryY=1;entryDx=0;entryDy=0;fontSize=14;" edge="1" parent="1" source="NcRujNU-MuARHv59cEKX-343" target="NcRujNU-MuARHv59cEKX-334">
          <mxGeometry relative="1" as="geometry"/>
        </mxCell>
        <mxCell id="NcRujNU-MuARHv59cEKX-343" value="2" style="rounded=0;whiteSpace=wrap;html=1;glass=1;fontSize=14;fillColor=#f5f5f5;strokeColor=#666666;fontColor=#333333;" vertex="1" parent="1">
          <mxGeometry x="361" y="2239" width="40" height="40" as="geometry"/>
        </mxCell>
        <mxCell id="NcRujNU-MuARHv59cEKX-344" style="edgeStyle=orthogonalEdgeStyle;curved=1;rounded=0;orthogonalLoop=1;jettySize=auto;html=1;exitX=0.5;exitY=0;exitDx=0;exitDy=0;entryX=0.5;entryY=1;entryDx=0;entryDy=0;fontSize=14;" edge="1" parent="1" source="NcRujNU-MuARHv59cEKX-345" target="NcRujNU-MuARHv59cEKX-334">
          <mxGeometry relative="1" as="geometry"/>
        </mxCell>
        <mxCell id="NcRujNU-MuARHv59cEKX-345" value="4" style="rounded=0;whiteSpace=wrap;html=1;glass=1;fontSize=14;fillColor=#f5f5f5;strokeColor=#666666;fontColor=#333333;" vertex="1" parent="1">
          <mxGeometry x="440" y="2239" width="40" height="40" as="geometry"/>
        </mxCell>
        <mxCell id="NcRujNU-MuARHv59cEKX-346" style="edgeStyle=orthogonalEdgeStyle;curved=1;rounded=0;orthogonalLoop=1;jettySize=auto;html=1;exitX=0.5;exitY=0;exitDx=0;exitDy=0;entryX=0.5;entryY=1;entryDx=0;entryDy=0;fontSize=14;" edge="1" parent="1" source="NcRujNU-MuARHv59cEKX-347" target="NcRujNU-MuARHv59cEKX-338">
          <mxGeometry relative="1" as="geometry"/>
        </mxCell>
        <mxCell id="NcRujNU-MuARHv59cEKX-347" value="10" style="rounded=0;whiteSpace=wrap;html=1;glass=1;fontSize=14;fillColor=#f5f5f5;strokeColor=#666666;fontColor=#333333;" vertex="1" parent="1">
          <mxGeometry x="681" y="2239" width="40" height="40" as="geometry"/>
        </mxCell>
        <mxCell id="NcRujNU-MuARHv59cEKX-348" style="edgeStyle=orthogonalEdgeStyle;curved=1;rounded=0;orthogonalLoop=1;jettySize=auto;html=1;exitX=0.5;exitY=0;exitDx=0;exitDy=0;entryX=0.5;entryY=1;entryDx=0;entryDy=0;fontSize=14;" edge="1" parent="1" source="NcRujNU-MuARHv59cEKX-349" target="NcRujNU-MuARHv59cEKX-341">
          <mxGeometry relative="1" as="geometry"/>
        </mxCell>
        <mxCell id="NcRujNU-MuARHv59cEKX-349" value="10" style="rounded=0;whiteSpace=wrap;html=1;glass=1;fontSize=14;fillColor=#f5f5f5;strokeColor=#666666;fontColor=#333333;" vertex="1" parent="1">
          <mxGeometry x="758.5" y="2239" width="40" height="40" as="geometry"/>
        </mxCell>
        <mxCell id="NcRujNU-MuARHv59cEKX-350" value="" style="rounded=0;whiteSpace=wrap;html=1;glass=1;fontSize=14;fillColor=#FFCCE6;" vertex="1" parent="1">
          <mxGeometry x="719.5" y="2159" width="40" height="40" as="geometry"/>
        </mxCell>
        <mxCell id="NcRujNU-MuARHv59cEKX-351" value="position" style="text;html=1;align=center;verticalAlign=middle;resizable=0;points=[];;autosize=1;fontSize=14;" vertex="1" parent="1">
          <mxGeometry x="429.5" y="2279" width="60" height="20" as="geometry"/>
        </mxCell>
        <mxCell id="NcRujNU-MuARHv59cEKX-352" value="limit" style="text;html=1;align=center;verticalAlign=middle;resizable=0;points=[];;autosize=1;fontSize=14;" vertex="1" parent="1">
          <mxGeometry x="682" y="2279" width="40" height="20" as="geometry"/>
        </mxCell>
        <mxCell id="NcRujNU-MuARHv59cEKX-353" value="capacity" style="text;html=1;align=center;verticalAlign=middle;resizable=0;points=[];;autosize=1;fontSize=14;" vertex="1" parent="1">
          <mxGeometry x="743.5" y="2279" width="70" height="20" as="geometry"/>
        </mxCell>
        <mxCell id="NcRujNU-MuARHv59cEKX-354" value="mark" style="text;html=1;align=center;verticalAlign=middle;resizable=0;points=[];;autosize=1;fontSize=14;" vertex="1" parent="1">
          <mxGeometry x="353.5" y="2279" width="50" height="20" as="geometry"/>
        </mxCell>
        <mxCell id="NcRujNU-MuARHv59cEKX-355" value="" style="group" vertex="1" connectable="0" parent="1">
          <mxGeometry x="359" y="2139" width="440" height="20" as="geometry"/>
        </mxCell>
        <mxCell id="NcRujNU-MuARHv59cEKX-356" value="" style="group;fillColor=#f5f5f5;strokeColor=none;fontColor=#333333;" vertex="1" connectable="0" parent="NcRujNU-MuARHv59cEKX-355">
          <mxGeometry width="440" height="20" as="geometry"/>
        </mxCell>
        <mxCell id="NcRujNU-MuARHv59cEKX-357" value="0" style="rounded=0;whiteSpace=wrap;html=1;glass=1;fontSize=14;fillColor=#f5f5f5;strokeColor=none;fontColor=#333333;" vertex="1" parent="NcRujNU-MuARHv59cEKX-355">
          <mxGeometry width="40" height="20" as="geometry"/>
        </mxCell>
        <mxCell id="NcRujNU-MuARHv59cEKX-358" value="1" style="rounded=0;whiteSpace=wrap;html=1;glass=1;fontSize=14;fillColor=#f5f5f5;strokeColor=none;fontColor=#333333;" vertex="1" parent="NcRujNU-MuARHv59cEKX-355">
          <mxGeometry x="40" width="40" height="20" as="geometry"/>
        </mxCell>
        <mxCell id="NcRujNU-MuARHv59cEKX-359" value="2" style="rounded=0;whiteSpace=wrap;html=1;glass=1;fontSize=14;fillColor=#f5f5f5;strokeColor=none;fontColor=#333333;" vertex="1" parent="NcRujNU-MuARHv59cEKX-355">
          <mxGeometry x="80" width="40" height="20" as="geometry"/>
        </mxCell>
        <mxCell id="NcRujNU-MuARHv59cEKX-360" value="3" style="rounded=0;whiteSpace=wrap;html=1;glass=1;fontSize=14;fillColor=#f5f5f5;strokeColor=none;fontColor=#333333;" vertex="1" parent="NcRujNU-MuARHv59cEKX-355">
          <mxGeometry x="120" width="40" height="20" as="geometry"/>
        </mxCell>
        <mxCell id="NcRujNU-MuARHv59cEKX-361" value="4" style="rounded=0;whiteSpace=wrap;html=1;glass=1;fontSize=14;fillColor=#f5f5f5;strokeColor=none;fontColor=#333333;" vertex="1" parent="NcRujNU-MuARHv59cEKX-355">
          <mxGeometry x="160" width="40" height="20" as="geometry"/>
        </mxCell>
        <mxCell id="NcRujNU-MuARHv59cEKX-362" value="5" style="rounded=0;whiteSpace=wrap;html=1;glass=1;fontSize=14;fillColor=#f5f5f5;strokeColor=none;fontColor=#333333;" vertex="1" parent="NcRujNU-MuARHv59cEKX-355">
          <mxGeometry x="200" width="40" height="20" as="geometry"/>
        </mxCell>
        <mxCell id="NcRujNU-MuARHv59cEKX-363" value="6" style="rounded=0;whiteSpace=wrap;html=1;glass=1;fontSize=14;fillColor=#f5f5f5;strokeColor=none;fontColor=#333333;" vertex="1" parent="NcRujNU-MuARHv59cEKX-355">
          <mxGeometry x="240" width="40" height="20" as="geometry"/>
        </mxCell>
        <mxCell id="NcRujNU-MuARHv59cEKX-364" value="7" style="rounded=0;whiteSpace=wrap;html=1;glass=1;fontSize=14;fillColor=#f5f5f5;strokeColor=none;fontColor=#333333;" vertex="1" parent="NcRujNU-MuARHv59cEKX-355">
          <mxGeometry x="280" width="40" height="20" as="geometry"/>
        </mxCell>
        <mxCell id="NcRujNU-MuARHv59cEKX-365" value="8" style="rounded=0;whiteSpace=wrap;html=1;glass=1;fontSize=14;fillColor=#f5f5f5;strokeColor=none;fontColor=#333333;" vertex="1" parent="NcRujNU-MuARHv59cEKX-355">
          <mxGeometry x="320" width="40" height="20" as="geometry"/>
        </mxCell>
        <mxCell id="NcRujNU-MuARHv59cEKX-366" value="10" style="rounded=0;whiteSpace=wrap;html=1;glass=1;fontSize=14;fillColor=#f5f5f5;strokeColor=none;fontColor=#333333;" vertex="1" parent="NcRujNU-MuARHv59cEKX-355">
          <mxGeometry x="400" width="40" height="20" as="geometry"/>
        </mxCell>
        <mxCell id="NcRujNU-MuARHv59cEKX-367" value="9" style="rounded=0;whiteSpace=wrap;html=1;glass=1;fontSize=14;fillColor=#f5f5f5;strokeColor=none;fontColor=#333333;" vertex="1" parent="NcRujNU-MuARHv59cEKX-355">
          <mxGeometry x="360" width="40" height="20" as="geometry"/>
        </mxCell>
        <mxCell id="NcRujNU-MuARHv59cEKX-377" value="a" style="rounded=0;whiteSpace=wrap;html=1;glass=1;fontSize=14;fillColor=#FFCCE6;" vertex="1" parent="1">
          <mxGeometry x="360.5" y="2480" width="40" height="40" as="geometry"/>
        </mxCell>
        <mxCell id="NcRujNU-MuARHv59cEKX-378" value="l" style="rounded=0;whiteSpace=wrap;html=1;glass=1;fontSize=14;fillColor=#FFCCE6;" vertex="1" parent="1">
          <mxGeometry x="400.5" y="2480" width="40" height="40" as="geometry"/>
        </mxCell>
        <mxCell id="NcRujNU-MuARHv59cEKX-379" value="i" style="rounded=0;whiteSpace=wrap;html=1;glass=1;fontSize=14;fillColor=#FFCCE6;" vertex="1" parent="1">
          <mxGeometry x="440.5" y="2480" width="40" height="40" as="geometry"/>
        </mxCell>
        <mxCell id="NcRujNU-MuARHv59cEKX-380" value="b" style="rounded=0;whiteSpace=wrap;html=1;glass=1;fontSize=14;fillColor=#FFCCE6;fontStyle=3;fontColor=#0000FF;" vertex="1" parent="1">
          <mxGeometry x="481" y="2480" width="40" height="40" as="geometry"/>
        </mxCell>
        <mxCell id="NcRujNU-MuARHv59cEKX-381" value="a" style="rounded=0;whiteSpace=wrap;html=1;glass=1;fontSize=14;fillColor=#FFCCE6;fontStyle=3;fontColor=#0000FF;" vertex="1" parent="1">
          <mxGeometry x="520.5" y="2480" width="40" height="40" as="geometry"/>
        </mxCell>
        <mxCell id="NcRujNU-MuARHv59cEKX-382" value="b" style="rounded=0;whiteSpace=wrap;html=1;glass=1;fontSize=14;fillColor=#FFCCE6;fontStyle=3;fontColor=#0000FF;" vertex="1" parent="1">
          <mxGeometry x="560.5" y="2480" width="40" height="40" as="geometry"/>
        </mxCell>
        <mxCell id="NcRujNU-MuARHv59cEKX-383" value="a" style="rounded=0;whiteSpace=wrap;html=1;glass=1;fontSize=14;fillColor=#FFCCE6;fontStyle=3;fontColor=#0000FF;" vertex="1" parent="1">
          <mxGeometry x="600.5" y="2480" width="40" height="40" as="geometry"/>
        </mxCell>
        <mxCell id="NcRujNU-MuARHv59cEKX-386" value="" style="rounded=0;whiteSpace=wrap;html=1;glass=1;fontSize=14;fillColor=#333333;strokeColor=#333333;" vertex="1" parent="1">
          <mxGeometry x="640.5" y="2480" width="40" height="40" as="geometry"/>
        </mxCell>
        <mxCell id="NcRujNU-MuARHv59cEKX-388" value="Null" style="rounded=0;whiteSpace=wrap;html=1;glass=1;fontSize=14;fillColor=#f5f5f5;strokeColor=#666666;fontColor=#333333;" vertex="1" parent="1">
          <mxGeometry x="376.5" y="2382" width="40" height="40" as="geometry"/>
        </mxCell>
        <mxCell id="NcRujNU-MuARHv59cEKX-413" style="edgeStyle=orthogonalEdgeStyle;curved=1;rounded=0;orthogonalLoop=1;jettySize=auto;html=1;exitX=0.5;exitY=1;exitDx=0;exitDy=0;entryX=0.5;entryY=0;entryDx=0;entryDy=0;fontSize=14;" edge="1" parent="1" source="NcRujNU-MuARHv59cEKX-390" target="NcRujNU-MuARHv59cEKX-405">
          <mxGeometry relative="1" as="geometry"/>
        </mxCell>
        <mxCell id="NcRujNU-MuARHv59cEKX-390" value="4" style="rounded=0;whiteSpace=wrap;html=1;glass=1;fontSize=14;fillColor=#f5f5f5;strokeColor=#666666;fontColor=#333333;" vertex="1" parent="1">
          <mxGeometry x="456.5" y="2381.5" width="40" height="40" as="geometry"/>
        </mxCell>
        <mxCell id="NcRujNU-MuARHv59cEKX-391" style="edgeStyle=orthogonalEdgeStyle;curved=1;rounded=0;orthogonalLoop=1;jettySize=auto;html=1;exitX=0.5;exitY=1;exitDx=0;exitDy=0;entryX=0.5;entryY=0;entryDx=0;entryDy=0;fontSize=14;" edge="1" parent="1" source="NcRujNU-MuARHv59cEKX-392" target="NcRujNU-MuARHv59cEKX-409">
          <mxGeometry relative="1" as="geometry"/>
        </mxCell>
        <mxCell id="NcRujNU-MuARHv59cEKX-392" value="10" style="rounded=0;whiteSpace=wrap;html=1;glass=1;fontSize=14;fillColor=#f5f5f5;strokeColor=#666666;fontColor=#333333;" vertex="1" parent="1">
          <mxGeometry x="538" y="2380" width="40" height="40" as="geometry"/>
        </mxCell>
        <mxCell id="NcRujNU-MuARHv59cEKX-393" style="edgeStyle=orthogonalEdgeStyle;curved=1;rounded=0;orthogonalLoop=1;jettySize=auto;html=1;entryX=0.5;entryY=0;entryDx=0;entryDy=0;fontSize=14;exitX=0.5;exitY=1;exitDx=0;exitDy=0;" edge="1" parent="1" source="NcRujNU-MuARHv59cEKX-394" target="NcRujNU-MuARHv59cEKX-409">
          <mxGeometry relative="1" as="geometry">
            <mxPoint x="779" y="2360" as="sourcePoint"/>
          </mxGeometry>
        </mxCell>
        <mxCell id="NcRujNU-MuARHv59cEKX-394" value="10" style="rounded=0;whiteSpace=wrap;html=1;glass=1;fontSize=14;fillColor=#f5f5f5;strokeColor=#666666;fontColor=#333333;" vertex="1" parent="1">
          <mxGeometry x="615.5" y="2380" width="40" height="40" as="geometry"/>
        </mxCell>
        <mxCell id="NcRujNU-MuARHv59cEKX-396" value="position" style="text;html=1;align=center;verticalAlign=middle;resizable=0;points=[];;autosize=1;fontSize=14;" vertex="1" parent="1">
          <mxGeometry x="448" y="2360" width="60" height="20" as="geometry"/>
        </mxCell>
        <mxCell id="NcRujNU-MuARHv59cEKX-397" value="limit" style="text;html=1;align=center;verticalAlign=middle;resizable=0;points=[];;autosize=1;fontSize=14;" vertex="1" parent="1">
          <mxGeometry x="538" y="2360" width="40" height="20" as="geometry"/>
        </mxCell>
        <mxCell id="NcRujNU-MuARHv59cEKX-398" value="capacity" style="text;html=1;align=center;verticalAlign=middle;resizable=0;points=[];;autosize=1;fontSize=14;" vertex="1" parent="1">
          <mxGeometry x="600.5" y="2360" width="70" height="20" as="geometry"/>
        </mxCell>
        <mxCell id="NcRujNU-MuARHv59cEKX-399" value="mark" style="text;html=1;align=center;verticalAlign=middle;resizable=0;points=[];;autosize=1;fontSize=14;" vertex="1" parent="1">
          <mxGeometry x="372" y="2360" width="50" height="20" as="geometry"/>
        </mxCell>
        <mxCell id="NcRujNU-MuARHv59cEKX-401" value="" style="group;fillColor=#f5f5f5;strokeColor=none;fontColor=#333333;" vertex="1" connectable="0" parent="1">
          <mxGeometry x="360" y="2460" width="310" height="20" as="geometry"/>
        </mxCell>
        <mxCell id="NcRujNU-MuARHv59cEKX-402" value="0" style="rounded=0;whiteSpace=wrap;html=1;glass=1;fontSize=14;fillColor=#f5f5f5;strokeColor=none;fontColor=#333333;" vertex="1" parent="1">
          <mxGeometry x="360" y="2460" width="40" height="20" as="geometry"/>
        </mxCell>
        <mxCell id="NcRujNU-MuARHv59cEKX-403" value="1" style="rounded=0;whiteSpace=wrap;html=1;glass=1;fontSize=14;fillColor=#f5f5f5;strokeColor=none;fontColor=#333333;" vertex="1" parent="1">
          <mxGeometry x="400" y="2460" width="40" height="20" as="geometry"/>
        </mxCell>
        <mxCell id="NcRujNU-MuARHv59cEKX-404" value="2" style="rounded=0;whiteSpace=wrap;html=1;glass=1;fontSize=14;fillColor=#f5f5f5;strokeColor=none;fontColor=#333333;" vertex="1" parent="1">
          <mxGeometry x="440" y="2460" width="40" height="20" as="geometry"/>
        </mxCell>
        <mxCell id="NcRujNU-MuARHv59cEKX-405" value="3" style="rounded=0;whiteSpace=wrap;html=1;glass=1;fontSize=14;fillColor=#f5f5f5;strokeColor=none;fontColor=#333333;" vertex="1" parent="1">
          <mxGeometry x="480" y="2460" width="40" height="20" as="geometry"/>
        </mxCell>
        <mxCell id="NcRujNU-MuARHv59cEKX-406" value="4" style="rounded=0;whiteSpace=wrap;html=1;glass=1;fontSize=14;fillColor=#f5f5f5;strokeColor=none;fontColor=#333333;" vertex="1" parent="1">
          <mxGeometry x="520" y="2460" width="40" height="20" as="geometry"/>
        </mxCell>
        <mxCell id="NcRujNU-MuARHv59cEKX-407" value="5" style="rounded=0;whiteSpace=wrap;html=1;glass=1;fontSize=14;fillColor=#f5f5f5;strokeColor=none;fontColor=#333333;" vertex="1" parent="1">
          <mxGeometry x="560" y="2460" width="40" height="20" as="geometry"/>
        </mxCell>
        <mxCell id="NcRujNU-MuARHv59cEKX-408" value="6" style="rounded=0;whiteSpace=wrap;html=1;glass=1;fontSize=14;fillColor=#f5f5f5;strokeColor=none;fontColor=#333333;" vertex="1" parent="1">
          <mxGeometry x="600" y="2460" width="40" height="20" as="geometry"/>
        </mxCell>
        <mxCell id="NcRujNU-MuARHv59cEKX-409" value="7" style="rounded=0;whiteSpace=wrap;html=1;glass=1;fontSize=14;fillColor=#f5f5f5;strokeColor=none;fontColor=#333333;" vertex="1" parent="1">
          <mxGeometry x="640" y="2460" width="40" height="20" as="geometry"/>
        </mxCell>
        <mxCell id="NcRujNU-MuARHv59cEKX-416" value="b" style="rounded=0;whiteSpace=wrap;html=1;glass=1;fontSize=14;fillColor=#FFCCE6;fontStyle=3;fontColor=#0000FF;" vertex="1" parent="1">
          <mxGeometry x="359.5" y="2599" width="40" height="40" as="geometry"/>
        </mxCell>
        <mxCell id="NcRujNU-MuARHv59cEKX-417" value="a" style="rounded=0;whiteSpace=wrap;html=1;glass=1;fontSize=14;fillColor=#FFCCE6;fontStyle=3;fontColor=#0000FF;" vertex="1" parent="1">
          <mxGeometry x="399.5" y="2599" width="40" height="40" as="geometry"/>
        </mxCell>
        <mxCell id="NcRujNU-MuARHv59cEKX-418" value="b" style="rounded=0;whiteSpace=wrap;html=1;glass=1;fontSize=14;fillColor=#FFCCE6;fontStyle=3;fontColor=#0000FF;" vertex="1" parent="1">
          <mxGeometry x="439.5" y="2599" width="40" height="40" as="geometry"/>
        </mxCell>
        <mxCell id="NcRujNU-MuARHv59cEKX-419" value="a" style="rounded=0;whiteSpace=wrap;html=1;glass=1;fontSize=14;fillColor=#FFCCE6;fontStyle=3;fontColor=#0000FF;" vertex="1" parent="1">
          <mxGeometry x="479.5" y="2599" width="40" height="40" as="geometry"/>
        </mxCell>
        <mxCell id="NcRujNU-MuARHv59cEKX-420" value="l" style="rounded=0;whiteSpace=wrap;html=1;glass=1;fontSize=14;fillColor=#FFCCE6;" vertex="1" parent="1">
          <mxGeometry x="519.5" y="2599" width="40" height="40" as="geometry"/>
        </mxCell>
        <mxCell id="NcRujNU-MuARHv59cEKX-421" value="o" style="rounded=0;whiteSpace=wrap;html=1;glass=1;fontSize=14;fillColor=#FFCCE6;" vertex="1" parent="1">
          <mxGeometry x="560" y="2599" width="41" height="40" as="geometry"/>
        </mxCell>
        <mxCell id="NcRujNU-MuARHv59cEKX-422" value="v" style="rounded=0;whiteSpace=wrap;html=1;glass=1;fontSize=14;fillColor=#FFCCE6;" vertex="1" parent="1">
          <mxGeometry x="599.5" y="2599" width="40" height="40" as="geometry"/>
        </mxCell>
        <mxCell id="NcRujNU-MuARHv59cEKX-423" value="e" style="rounded=0;whiteSpace=wrap;html=1;glass=1;fontSize=14;fillColor=#FFCCE6;" vertex="1" parent="1">
          <mxGeometry x="639.5" y="2599" width="40" height="40" as="geometry"/>
        </mxCell>
        <mxCell id="NcRujNU-MuARHv59cEKX-424" value="u" style="rounded=0;whiteSpace=wrap;html=1;glass=1;fontSize=14;fillColor=#FFCCE6;" vertex="1" parent="1">
          <mxGeometry x="679.5" y="2599" width="40" height="40" as="geometry"/>
        </mxCell>
        <mxCell id="NcRujNU-MuARHv59cEKX-425" value="" style="rounded=0;whiteSpace=wrap;html=1;glass=1;fontSize=14;fillColor=#333333;strokeColor=#333333;" vertex="1" parent="1">
          <mxGeometry x="760" y="2600" width="40" height="40" as="geometry"/>
        </mxCell>
        <mxCell id="NcRujNU-MuARHv59cEKX-427" value="Null" style="rounded=0;whiteSpace=wrap;html=1;glass=1;fontSize=14;fillColor=#f5f5f5;strokeColor=#666666;fontColor=#333333;" vertex="1" parent="1">
          <mxGeometry x="361" y="2679" width="40" height="40" as="geometry"/>
        </mxCell>
        <mxCell id="NcRujNU-MuARHv59cEKX-428" style="edgeStyle=orthogonalEdgeStyle;curved=1;rounded=0;orthogonalLoop=1;jettySize=auto;html=1;exitX=0.5;exitY=0;exitDx=0;exitDy=0;entryX=0.5;entryY=1;entryDx=0;entryDy=0;fontSize=14;" edge="1" parent="1" source="NcRujNU-MuARHv59cEKX-429" target="NcRujNU-MuARHv59cEKX-416">
          <mxGeometry relative="1" as="geometry"/>
        </mxCell>
        <mxCell id="NcRujNU-MuARHv59cEKX-429" value="4" style="rounded=0;whiteSpace=wrap;html=1;glass=1;fontSize=14;fillColor=#f5f5f5;strokeColor=#666666;fontColor=#333333;" vertex="1" parent="1">
          <mxGeometry x="440" y="2679" width="40" height="40" as="geometry"/>
        </mxCell>
        <mxCell id="NcRujNU-MuARHv59cEKX-430" style="edgeStyle=orthogonalEdgeStyle;curved=1;rounded=0;orthogonalLoop=1;jettySize=auto;html=1;exitX=0.5;exitY=0;exitDx=0;exitDy=0;entryX=0.5;entryY=1;entryDx=0;entryDy=0;fontSize=14;" edge="1" parent="1" source="NcRujNU-MuARHv59cEKX-431" target="NcRujNU-MuARHv59cEKX-420">
          <mxGeometry relative="1" as="geometry"/>
        </mxCell>
        <mxCell id="NcRujNU-MuARHv59cEKX-431" value="10" style="rounded=0;whiteSpace=wrap;html=1;glass=1;fontSize=14;fillColor=#f5f5f5;strokeColor=#666666;fontColor=#333333;" vertex="1" parent="1">
          <mxGeometry x="681" y="2679" width="40" height="40" as="geometry"/>
        </mxCell>
        <mxCell id="NcRujNU-MuARHv59cEKX-432" style="edgeStyle=orthogonalEdgeStyle;curved=1;rounded=0;orthogonalLoop=1;jettySize=auto;html=1;exitX=0.5;exitY=0;exitDx=0;exitDy=0;entryX=0.5;entryY=1;entryDx=0;entryDy=0;fontSize=14;" edge="1" parent="1" source="NcRujNU-MuARHv59cEKX-433" target="NcRujNU-MuARHv59cEKX-425">
          <mxGeometry relative="1" as="geometry"/>
        </mxCell>
        <mxCell id="NcRujNU-MuARHv59cEKX-433" value="10" style="rounded=0;whiteSpace=wrap;html=1;glass=1;fontSize=14;fillColor=#f5f5f5;strokeColor=#666666;fontColor=#333333;" vertex="1" parent="1">
          <mxGeometry x="758.5" y="2679" width="40" height="40" as="geometry"/>
        </mxCell>
        <mxCell id="NcRujNU-MuARHv59cEKX-434" value="" style="rounded=0;whiteSpace=wrap;html=1;glass=1;fontSize=14;fillColor=#FFCCE6;" vertex="1" parent="1">
          <mxGeometry x="719.5" y="2599" width="40" height="40" as="geometry"/>
        </mxCell>
        <mxCell id="NcRujNU-MuARHv59cEKX-435" value="position" style="text;html=1;align=center;verticalAlign=middle;resizable=0;points=[];;autosize=1;fontSize=14;" vertex="1" parent="1">
          <mxGeometry x="429.5" y="2719" width="60" height="20" as="geometry"/>
        </mxCell>
        <mxCell id="NcRujNU-MuARHv59cEKX-436" value="limit" style="text;html=1;align=center;verticalAlign=middle;resizable=0;points=[];;autosize=1;fontSize=14;" vertex="1" parent="1">
          <mxGeometry x="682" y="2719" width="40" height="20" as="geometry"/>
        </mxCell>
        <mxCell id="NcRujNU-MuARHv59cEKX-437" value="capacity" style="text;html=1;align=center;verticalAlign=middle;resizable=0;points=[];;autosize=1;fontSize=14;" vertex="1" parent="1">
          <mxGeometry x="743.5" y="2719" width="70" height="20" as="geometry"/>
        </mxCell>
        <mxCell id="NcRujNU-MuARHv59cEKX-438" value="mark" style="text;html=1;align=center;verticalAlign=middle;resizable=0;points=[];;autosize=1;fontSize=14;" vertex="1" parent="1">
          <mxGeometry x="353.5" y="2719" width="50" height="20" as="geometry"/>
        </mxCell>
        <mxCell id="NcRujNU-MuARHv59cEKX-439" value="" style="group" vertex="1" connectable="0" parent="1">
          <mxGeometry x="359" y="2579" width="440" height="20" as="geometry"/>
        </mxCell>
        <mxCell id="NcRujNU-MuARHv59cEKX-440" value="" style="group;fillColor=#f5f5f5;strokeColor=none;fontColor=#333333;" vertex="1" connectable="0" parent="NcRujNU-MuARHv59cEKX-439">
          <mxGeometry width="440" height="20" as="geometry"/>
        </mxCell>
        <mxCell id="NcRujNU-MuARHv59cEKX-441" value="0" style="rounded=0;whiteSpace=wrap;html=1;glass=1;fontSize=14;fillColor=#f5f5f5;strokeColor=none;fontColor=#333333;" vertex="1" parent="NcRujNU-MuARHv59cEKX-439">
          <mxGeometry width="40" height="20" as="geometry"/>
        </mxCell>
        <mxCell id="NcRujNU-MuARHv59cEKX-442" value="1" style="rounded=0;whiteSpace=wrap;html=1;glass=1;fontSize=14;fillColor=#f5f5f5;strokeColor=none;fontColor=#333333;" vertex="1" parent="NcRujNU-MuARHv59cEKX-439">
          <mxGeometry x="40" width="40" height="20" as="geometry"/>
        </mxCell>
        <mxCell id="NcRujNU-MuARHv59cEKX-443" value="2" style="rounded=0;whiteSpace=wrap;html=1;glass=1;fontSize=14;fillColor=#f5f5f5;strokeColor=none;fontColor=#333333;" vertex="1" parent="NcRujNU-MuARHv59cEKX-439">
          <mxGeometry x="80" width="40" height="20" as="geometry"/>
        </mxCell>
        <mxCell id="NcRujNU-MuARHv59cEKX-444" value="3" style="rounded=0;whiteSpace=wrap;html=1;glass=1;fontSize=14;fillColor=#f5f5f5;strokeColor=none;fontColor=#333333;" vertex="1" parent="NcRujNU-MuARHv59cEKX-439">
          <mxGeometry x="120" width="40" height="20" as="geometry"/>
        </mxCell>
        <mxCell id="NcRujNU-MuARHv59cEKX-445" value="4" style="rounded=0;whiteSpace=wrap;html=1;glass=1;fontSize=14;fillColor=#f5f5f5;strokeColor=none;fontColor=#333333;" vertex="1" parent="NcRujNU-MuARHv59cEKX-439">
          <mxGeometry x="160" width="40" height="20" as="geometry"/>
        </mxCell>
        <mxCell id="NcRujNU-MuARHv59cEKX-446" value="5" style="rounded=0;whiteSpace=wrap;html=1;glass=1;fontSize=14;fillColor=#f5f5f5;strokeColor=none;fontColor=#333333;" vertex="1" parent="NcRujNU-MuARHv59cEKX-439">
          <mxGeometry x="200" width="40" height="20" as="geometry"/>
        </mxCell>
        <mxCell id="NcRujNU-MuARHv59cEKX-447" value="6" style="rounded=0;whiteSpace=wrap;html=1;glass=1;fontSize=14;fillColor=#f5f5f5;strokeColor=none;fontColor=#333333;" vertex="1" parent="NcRujNU-MuARHv59cEKX-439">
          <mxGeometry x="240" width="40" height="20" as="geometry"/>
        </mxCell>
        <mxCell id="NcRujNU-MuARHv59cEKX-448" value="7" style="rounded=0;whiteSpace=wrap;html=1;glass=1;fontSize=14;fillColor=#f5f5f5;strokeColor=none;fontColor=#333333;" vertex="1" parent="NcRujNU-MuARHv59cEKX-439">
          <mxGeometry x="280" width="40" height="20" as="geometry"/>
        </mxCell>
        <mxCell id="NcRujNU-MuARHv59cEKX-449" value="8" style="rounded=0;whiteSpace=wrap;html=1;glass=1;fontSize=14;fillColor=#f5f5f5;strokeColor=none;fontColor=#333333;" vertex="1" parent="NcRujNU-MuARHv59cEKX-439">
          <mxGeometry x="320" width="40" height="20" as="geometry"/>
        </mxCell>
        <mxCell id="NcRujNU-MuARHv59cEKX-450" value="10" style="rounded=0;whiteSpace=wrap;html=1;glass=1;fontSize=14;fillColor=#f5f5f5;strokeColor=none;fontColor=#333333;" vertex="1" parent="NcRujNU-MuARHv59cEKX-439">
          <mxGeometry x="400" width="40" height="20" as="geometry"/>
        </mxCell>
        <mxCell id="NcRujNU-MuARHv59cEKX-451" value="9" style="rounded=0;whiteSpace=wrap;html=1;glass=1;fontSize=14;fillColor=#f5f5f5;strokeColor=none;fontColor=#333333;" vertex="1" parent="NcRujNU-MuARHv59cEKX-439">
          <mxGeometry x="360" width="40" height="20" as="geometry"/>
        </mxCell>
        <mxCell id="NcRujNU-MuARHv59cEKX-462" value="" style="endArrow=none;html=1;fontSize=14;fontColor=#0000FF;entryX=0.988;entryY=1;entryDx=0;entryDy=0;entryPerimeter=0;exitX=0;exitY=1.2;exitDx=0;exitDy=0;exitPerimeter=0;dashed=1;dashPattern=1 2;" edge="1" parent="1" source="NcRujNU-MuARHv59cEKX-441" target="NcRujNU-MuARHv59cEKX-379">
          <mxGeometry width="50" height="50" relative="1" as="geometry">
            <mxPoint x="180" y="2650" as="sourcePoint"/>
            <mxPoint x="230" y="2600" as="targetPoint"/>
          </mxGeometry>
        </mxCell>
        <mxCell id="NcRujNU-MuARHv59cEKX-463" value="" style="endArrow=none;html=1;fontSize=14;fontColor=#0000FF;entryX=0.988;entryY=1;entryDx=0;entryDy=0;entryPerimeter=0;exitX=0;exitY=1.2;exitDx=0;exitDy=0;exitPerimeter=0;dashed=1;dashPattern=1 2;" edge="1" parent="1">
          <mxGeometry width="50" height="50" relative="1" as="geometry">
            <mxPoint x="518.5" y="2603" as="sourcePoint"/>
            <mxPoint x="639.52" y="2520" as="targetPoint"/>
          </mxGeometry>
        </mxCell>
        <mxCell id="NcRujNU-MuARHv59cEKX-464" value="&lt;pre style=&quot;background-color: #2b2b2b ; color: #a9b7c6 ; font-family: &amp;#34;宋体&amp;#34; ; font-size: 13.8pt&quot;&gt;&lt;br&gt;&lt;/pre&gt;" style="text;html=1;align=center;verticalAlign=middle;resizable=0;points=[];;autosize=1;fontSize=14;fontColor=#0000FF;" vertex="1" parent="1">
          <mxGeometry x="220" y="2524" width="20" height="60" as="geometry"/>
        </mxCell>
        <mxCell id="NcRujNU-MuARHv59cEKX-465" value="&lt;font color=&quot;#000000&quot;&gt;bufferS1.&lt;/font&gt;&lt;b&gt;&lt;i&gt;&lt;u&gt;&lt;font color=&quot;#cc0000&quot;&gt;equals&lt;/font&gt;&lt;/u&gt;&lt;/i&gt;&lt;/b&gt;&lt;font color=&quot;#000000&quot;&gt;(bufferT1)&lt;/font&gt;" style="text;html=1;align=center;verticalAlign=middle;resizable=0;points=[];;autosize=1;fontSize=14;fontColor=#0000FF;" vertex="1" parent="1">
          <mxGeometry x="150" y="2544" width="180" height="20" as="geometry"/>
        </mxCell>
        <mxCell id="NcRujNU-MuARHv59cEKX-466" value="a" style="rounded=0;whiteSpace=wrap;html=1;glass=1;fontSize=14;fillColor=#FFCCE6;" vertex="1" parent="1">
          <mxGeometry x="360" y="2960" width="40" height="40" as="geometry"/>
        </mxCell>
        <mxCell id="NcRujNU-MuARHv59cEKX-467" value="l" style="rounded=0;whiteSpace=wrap;html=1;glass=1;fontSize=14;fillColor=#FFCCE6;" vertex="1" parent="1">
          <mxGeometry x="400" y="2960" width="40" height="40" as="geometry"/>
        </mxCell>
        <mxCell id="NcRujNU-MuARHv59cEKX-468" value="i" style="rounded=0;whiteSpace=wrap;html=1;glass=1;fontSize=14;fillColor=#FFCCE6;" vertex="1" parent="1">
          <mxGeometry x="440" y="2960" width="40" height="40" as="geometry"/>
        </mxCell>
        <mxCell id="NcRujNU-MuARHv59cEKX-469" value="b" style="rounded=0;whiteSpace=wrap;html=1;glass=1;fontSize=14;fillColor=#FFCCE6;fontStyle=3;fontColor=#0000FF;" vertex="1" parent="1">
          <mxGeometry x="480.5" y="2960" width="40" height="40" as="geometry"/>
        </mxCell>
        <mxCell id="NcRujNU-MuARHv59cEKX-470" value="a" style="rounded=0;whiteSpace=wrap;html=1;glass=1;fontSize=14;fillColor=#FFCCE6;fontStyle=3;fontColor=#0000FF;" vertex="1" parent="1">
          <mxGeometry x="520" y="2960" width="40" height="40" as="geometry"/>
        </mxCell>
        <mxCell id="NcRujNU-MuARHv59cEKX-471" value="b" style="rounded=0;whiteSpace=wrap;html=1;glass=1;fontSize=14;fillColor=#FFCCE6;fontStyle=3;fontColor=#0000FF;" vertex="1" parent="1">
          <mxGeometry x="560" y="2960" width="40" height="40" as="geometry"/>
        </mxCell>
        <mxCell id="NcRujNU-MuARHv59cEKX-472" value="a" style="rounded=0;whiteSpace=wrap;html=1;glass=1;fontSize=14;fillColor=#FFCCE6;fontStyle=3;fontColor=#0000FF;" vertex="1" parent="1">
          <mxGeometry x="600" y="2960" width="40" height="40" as="geometry"/>
        </mxCell>
        <mxCell id="NcRujNU-MuARHv59cEKX-473" value="" style="rounded=0;whiteSpace=wrap;html=1;glass=1;fontSize=14;fillColor=#333333;strokeColor=#333333;" vertex="1" parent="1">
          <mxGeometry x="640" y="2960" width="40" height="40" as="geometry"/>
        </mxCell>
        <mxCell id="NcRujNU-MuARHv59cEKX-474" value="Null" style="rounded=0;whiteSpace=wrap;html=1;glass=1;fontSize=14;fillColor=#f5f5f5;strokeColor=#666666;fontColor=#333333;" vertex="1" parent="1">
          <mxGeometry x="376" y="2862" width="40" height="40" as="geometry"/>
        </mxCell>
        <mxCell id="NcRujNU-MuARHv59cEKX-475" style="edgeStyle=orthogonalEdgeStyle;curved=1;rounded=0;orthogonalLoop=1;jettySize=auto;html=1;exitX=0.5;exitY=1;exitDx=0;exitDy=0;entryX=0.5;entryY=0;entryDx=0;entryDy=0;fontSize=14;" edge="1" parent="1" source="NcRujNU-MuARHv59cEKX-476" target="NcRujNU-MuARHv59cEKX-489">
          <mxGeometry relative="1" as="geometry"/>
        </mxCell>
        <mxCell id="NcRujNU-MuARHv59cEKX-476" value="4" style="rounded=0;whiteSpace=wrap;html=1;glass=1;fontSize=14;fillColor=#f5f5f5;strokeColor=#666666;fontColor=#333333;" vertex="1" parent="1">
          <mxGeometry x="456" y="2861.5" width="40" height="40" as="geometry"/>
        </mxCell>
        <mxCell id="NcRujNU-MuARHv59cEKX-477" style="edgeStyle=orthogonalEdgeStyle;curved=1;rounded=0;orthogonalLoop=1;jettySize=auto;html=1;exitX=0.5;exitY=1;exitDx=0;exitDy=0;entryX=0.5;entryY=0;entryDx=0;entryDy=0;fontSize=14;" edge="1" parent="1" source="NcRujNU-MuARHv59cEKX-478" target="NcRujNU-MuARHv59cEKX-493">
          <mxGeometry relative="1" as="geometry"/>
        </mxCell>
        <mxCell id="NcRujNU-MuARHv59cEKX-478" value="10" style="rounded=0;whiteSpace=wrap;html=1;glass=1;fontSize=14;fillColor=#f5f5f5;strokeColor=#666666;fontColor=#333333;" vertex="1" parent="1">
          <mxGeometry x="537.5" y="2860" width="40" height="40" as="geometry"/>
        </mxCell>
        <mxCell id="NcRujNU-MuARHv59cEKX-479" style="edgeStyle=orthogonalEdgeStyle;curved=1;rounded=0;orthogonalLoop=1;jettySize=auto;html=1;entryX=0.5;entryY=0;entryDx=0;entryDy=0;fontSize=14;exitX=0.5;exitY=1;exitDx=0;exitDy=0;" edge="1" parent="1" source="NcRujNU-MuARHv59cEKX-480" target="NcRujNU-MuARHv59cEKX-493">
          <mxGeometry relative="1" as="geometry">
            <mxPoint x="778.5" y="2840" as="sourcePoint"/>
          </mxGeometry>
        </mxCell>
        <mxCell id="NcRujNU-MuARHv59cEKX-480" value="10" style="rounded=0;whiteSpace=wrap;html=1;glass=1;fontSize=14;fillColor=#f5f5f5;strokeColor=#666666;fontColor=#333333;" vertex="1" parent="1">
          <mxGeometry x="615" y="2860" width="40" height="40" as="geometry"/>
        </mxCell>
        <mxCell id="NcRujNU-MuARHv59cEKX-481" value="position" style="text;html=1;align=center;verticalAlign=middle;resizable=0;points=[];;autosize=1;fontSize=14;" vertex="1" parent="1">
          <mxGeometry x="447.5" y="2840" width="60" height="20" as="geometry"/>
        </mxCell>
        <mxCell id="NcRujNU-MuARHv59cEKX-482" value="limit" style="text;html=1;align=center;verticalAlign=middle;resizable=0;points=[];;autosize=1;fontSize=14;" vertex="1" parent="1">
          <mxGeometry x="537.5" y="2840" width="40" height="20" as="geometry"/>
        </mxCell>
        <mxCell id="NcRujNU-MuARHv59cEKX-483" value="capacity" style="text;html=1;align=center;verticalAlign=middle;resizable=0;points=[];;autosize=1;fontSize=14;" vertex="1" parent="1">
          <mxGeometry x="600" y="2840" width="70" height="20" as="geometry"/>
        </mxCell>
        <mxCell id="NcRujNU-MuARHv59cEKX-484" value="mark" style="text;html=1;align=center;verticalAlign=middle;resizable=0;points=[];;autosize=1;fontSize=14;" vertex="1" parent="1">
          <mxGeometry x="371.5" y="2840" width="50" height="20" as="geometry"/>
        </mxCell>
        <mxCell id="NcRujNU-MuARHv59cEKX-485" value="" style="group;fillColor=#f5f5f5;strokeColor=none;fontColor=#333333;" vertex="1" connectable="0" parent="1">
          <mxGeometry x="359.5" y="2940" width="310" height="20" as="geometry"/>
        </mxCell>
        <mxCell id="NcRujNU-MuARHv59cEKX-486" value="0" style="rounded=0;whiteSpace=wrap;html=1;glass=1;fontSize=14;fillColor=#f5f5f5;strokeColor=none;fontColor=#333333;" vertex="1" parent="1">
          <mxGeometry x="359.5" y="2940" width="40" height="20" as="geometry"/>
        </mxCell>
        <mxCell id="NcRujNU-MuARHv59cEKX-487" value="1" style="rounded=0;whiteSpace=wrap;html=1;glass=1;fontSize=14;fillColor=#f5f5f5;strokeColor=none;fontColor=#333333;" vertex="1" parent="1">
          <mxGeometry x="399.5" y="2940" width="40" height="20" as="geometry"/>
        </mxCell>
        <mxCell id="NcRujNU-MuARHv59cEKX-488" value="2" style="rounded=0;whiteSpace=wrap;html=1;glass=1;fontSize=14;fillColor=#f5f5f5;strokeColor=none;fontColor=#333333;" vertex="1" parent="1">
          <mxGeometry x="439.5" y="2940" width="40" height="20" as="geometry"/>
        </mxCell>
        <mxCell id="NcRujNU-MuARHv59cEKX-489" value="3" style="rounded=0;whiteSpace=wrap;html=1;glass=1;fontSize=14;fillColor=#f5f5f5;strokeColor=none;fontColor=#333333;" vertex="1" parent="1">
          <mxGeometry x="479.5" y="2940" width="40" height="20" as="geometry"/>
        </mxCell>
        <mxCell id="NcRujNU-MuARHv59cEKX-490" value="4" style="rounded=0;whiteSpace=wrap;html=1;glass=1;fontSize=14;fillColor=#f5f5f5;strokeColor=none;fontColor=#333333;" vertex="1" parent="1">
          <mxGeometry x="519.5" y="2940" width="40" height="20" as="geometry"/>
        </mxCell>
        <mxCell id="NcRujNU-MuARHv59cEKX-491" value="5" style="rounded=0;whiteSpace=wrap;html=1;glass=1;fontSize=14;fillColor=#f5f5f5;strokeColor=none;fontColor=#333333;" vertex="1" parent="1">
          <mxGeometry x="559.5" y="2940" width="40" height="20" as="geometry"/>
        </mxCell>
        <mxCell id="NcRujNU-MuARHv59cEKX-492" value="6" style="rounded=0;whiteSpace=wrap;html=1;glass=1;fontSize=14;fillColor=#f5f5f5;strokeColor=none;fontColor=#333333;" vertex="1" parent="1">
          <mxGeometry x="599.5" y="2940" width="40" height="20" as="geometry"/>
        </mxCell>
        <mxCell id="NcRujNU-MuARHv59cEKX-493" value="7" style="rounded=0;whiteSpace=wrap;html=1;glass=1;fontSize=14;fillColor=#f5f5f5;strokeColor=none;fontColor=#333333;" vertex="1" parent="1">
          <mxGeometry x="639.5" y="2940" width="40" height="20" as="geometry"/>
        </mxCell>
        <mxCell id="NcRujNU-MuARHv59cEKX-494" value="b" style="rounded=0;whiteSpace=wrap;html=1;glass=1;fontSize=14;fillColor=#FFCCE6;fontStyle=3;fontColor=#0000FF;" vertex="1" parent="1">
          <mxGeometry x="359" y="3079" width="40" height="40" as="geometry"/>
        </mxCell>
        <mxCell id="NcRujNU-MuARHv59cEKX-495" value="c" style="rounded=0;whiteSpace=wrap;html=1;glass=1;fontSize=14;fillColor=#FFCCE6;fontStyle=3;fontColor=#0000FF;" vertex="1" parent="1">
          <mxGeometry x="399" y="3079" width="40" height="40" as="geometry"/>
        </mxCell>
        <mxCell id="NcRujNU-MuARHv59cEKX-496" value="b" style="rounded=0;whiteSpace=wrap;html=1;glass=1;fontSize=14;fillColor=#FFCCE6;fontStyle=3;fontColor=#0000FF;" vertex="1" parent="1">
          <mxGeometry x="439" y="3079" width="40" height="40" as="geometry"/>
        </mxCell>
        <mxCell id="NcRujNU-MuARHv59cEKX-497" value="a" style="rounded=0;whiteSpace=wrap;html=1;glass=1;fontSize=14;fillColor=#FFCCE6;fontStyle=3;fontColor=#0000FF;" vertex="1" parent="1">
          <mxGeometry x="479" y="3079" width="40" height="40" as="geometry"/>
        </mxCell>
        <mxCell id="NcRujNU-MuARHv59cEKX-498" value="l" style="rounded=0;whiteSpace=wrap;html=1;glass=1;fontSize=14;fillColor=#FFCCE6;" vertex="1" parent="1">
          <mxGeometry x="519" y="3079" width="40" height="40" as="geometry"/>
        </mxCell>
        <mxCell id="NcRujNU-MuARHv59cEKX-499" value="o" style="rounded=0;whiteSpace=wrap;html=1;glass=1;fontSize=14;fillColor=#FFCCE6;" vertex="1" parent="1">
          <mxGeometry x="559.5" y="3079" width="41" height="40" as="geometry"/>
        </mxCell>
        <mxCell id="NcRujNU-MuARHv59cEKX-500" value="v" style="rounded=0;whiteSpace=wrap;html=1;glass=1;fontSize=14;fillColor=#FFCCE6;" vertex="1" parent="1">
          <mxGeometry x="599" y="3079" width="40" height="40" as="geometry"/>
        </mxCell>
        <mxCell id="NcRujNU-MuARHv59cEKX-501" value="e" style="rounded=0;whiteSpace=wrap;html=1;glass=1;fontSize=14;fillColor=#FFCCE6;" vertex="1" parent="1">
          <mxGeometry x="639" y="3079" width="40" height="40" as="geometry"/>
        </mxCell>
        <mxCell id="NcRujNU-MuARHv59cEKX-502" value="u" style="rounded=0;whiteSpace=wrap;html=1;glass=1;fontSize=14;fillColor=#FFCCE6;" vertex="1" parent="1">
          <mxGeometry x="679" y="3079" width="40" height="40" as="geometry"/>
        </mxCell>
        <mxCell id="NcRujNU-MuARHv59cEKX-503" value="" style="rounded=0;whiteSpace=wrap;html=1;glass=1;fontSize=14;fillColor=#333333;strokeColor=#333333;" vertex="1" parent="1">
          <mxGeometry x="759.5" y="3080" width="40" height="40" as="geometry"/>
        </mxCell>
        <mxCell id="NcRujNU-MuARHv59cEKX-504" value="Null" style="rounded=0;whiteSpace=wrap;html=1;glass=1;fontSize=14;fillColor=#f5f5f5;strokeColor=#666666;fontColor=#333333;" vertex="1" parent="1">
          <mxGeometry x="360.5" y="3159" width="40" height="40" as="geometry"/>
        </mxCell>
        <mxCell id="NcRujNU-MuARHv59cEKX-505" style="edgeStyle=orthogonalEdgeStyle;curved=1;rounded=0;orthogonalLoop=1;jettySize=auto;html=1;exitX=0.5;exitY=0;exitDx=0;exitDy=0;entryX=0.5;entryY=1;entryDx=0;entryDy=0;fontSize=14;" edge="1" parent="1" source="NcRujNU-MuARHv59cEKX-506" target="NcRujNU-MuARHv59cEKX-494">
          <mxGeometry relative="1" as="geometry"/>
        </mxCell>
        <mxCell id="NcRujNU-MuARHv59cEKX-506" value="4" style="rounded=0;whiteSpace=wrap;html=1;glass=1;fontSize=14;fillColor=#f5f5f5;strokeColor=#666666;fontColor=#333333;" vertex="1" parent="1">
          <mxGeometry x="439.5" y="3159" width="40" height="40" as="geometry"/>
        </mxCell>
        <mxCell id="NcRujNU-MuARHv59cEKX-507" style="edgeStyle=orthogonalEdgeStyle;curved=1;rounded=0;orthogonalLoop=1;jettySize=auto;html=1;exitX=0.5;exitY=0;exitDx=0;exitDy=0;entryX=0.5;entryY=1;entryDx=0;entryDy=0;fontSize=14;" edge="1" parent="1" source="NcRujNU-MuARHv59cEKX-508" target="NcRujNU-MuARHv59cEKX-498">
          <mxGeometry relative="1" as="geometry"/>
        </mxCell>
        <mxCell id="NcRujNU-MuARHv59cEKX-508" value="10" style="rounded=0;whiteSpace=wrap;html=1;glass=1;fontSize=14;fillColor=#f5f5f5;strokeColor=#666666;fontColor=#333333;" vertex="1" parent="1">
          <mxGeometry x="680.5" y="3159" width="40" height="40" as="geometry"/>
        </mxCell>
        <mxCell id="NcRujNU-MuARHv59cEKX-509" style="edgeStyle=orthogonalEdgeStyle;curved=1;rounded=0;orthogonalLoop=1;jettySize=auto;html=1;exitX=0.5;exitY=0;exitDx=0;exitDy=0;entryX=0.5;entryY=1;entryDx=0;entryDy=0;fontSize=14;" edge="1" parent="1" source="NcRujNU-MuARHv59cEKX-510" target="NcRujNU-MuARHv59cEKX-503">
          <mxGeometry relative="1" as="geometry"/>
        </mxCell>
        <mxCell id="NcRujNU-MuARHv59cEKX-510" value="10" style="rounded=0;whiteSpace=wrap;html=1;glass=1;fontSize=14;fillColor=#f5f5f5;strokeColor=#666666;fontColor=#333333;" vertex="1" parent="1">
          <mxGeometry x="758" y="3159" width="40" height="40" as="geometry"/>
        </mxCell>
        <mxCell id="NcRujNU-MuARHv59cEKX-511" value="" style="rounded=0;whiteSpace=wrap;html=1;glass=1;fontSize=14;fillColor=#FFCCE6;" vertex="1" parent="1">
          <mxGeometry x="719" y="3079" width="40" height="40" as="geometry"/>
        </mxCell>
        <mxCell id="NcRujNU-MuARHv59cEKX-512" value="position" style="text;html=1;align=center;verticalAlign=middle;resizable=0;points=[];;autosize=1;fontSize=14;" vertex="1" parent="1">
          <mxGeometry x="429" y="3199" width="60" height="20" as="geometry"/>
        </mxCell>
        <mxCell id="NcRujNU-MuARHv59cEKX-513" value="limit" style="text;html=1;align=center;verticalAlign=middle;resizable=0;points=[];;autosize=1;fontSize=14;" vertex="1" parent="1">
          <mxGeometry x="681.5" y="3199" width="40" height="20" as="geometry"/>
        </mxCell>
        <mxCell id="NcRujNU-MuARHv59cEKX-514" value="capacity" style="text;html=1;align=center;verticalAlign=middle;resizable=0;points=[];;autosize=1;fontSize=14;" vertex="1" parent="1">
          <mxGeometry x="743" y="3199" width="70" height="20" as="geometry"/>
        </mxCell>
        <mxCell id="NcRujNU-MuARHv59cEKX-515" value="mark" style="text;html=1;align=center;verticalAlign=middle;resizable=0;points=[];;autosize=1;fontSize=14;" vertex="1" parent="1">
          <mxGeometry x="353" y="3199" width="50" height="20" as="geometry"/>
        </mxCell>
        <mxCell id="NcRujNU-MuARHv59cEKX-516" value="" style="group" vertex="1" connectable="0" parent="1">
          <mxGeometry x="358.5" y="3059" width="440" height="20" as="geometry"/>
        </mxCell>
        <mxCell id="NcRujNU-MuARHv59cEKX-517" value="" style="group;fillColor=#f5f5f5;strokeColor=none;fontColor=#333333;" vertex="1" connectable="0" parent="NcRujNU-MuARHv59cEKX-516">
          <mxGeometry width="440" height="20" as="geometry"/>
        </mxCell>
        <mxCell id="NcRujNU-MuARHv59cEKX-518" value="0" style="rounded=0;whiteSpace=wrap;html=1;glass=1;fontSize=14;fillColor=#f5f5f5;strokeColor=none;fontColor=#333333;" vertex="1" parent="NcRujNU-MuARHv59cEKX-516">
          <mxGeometry width="40" height="20" as="geometry"/>
        </mxCell>
        <mxCell id="NcRujNU-MuARHv59cEKX-519" value="1" style="rounded=0;whiteSpace=wrap;html=1;glass=1;fontSize=14;fillColor=#f5f5f5;strokeColor=none;fontColor=#333333;" vertex="1" parent="NcRujNU-MuARHv59cEKX-516">
          <mxGeometry x="40" width="40" height="20" as="geometry"/>
        </mxCell>
        <mxCell id="NcRujNU-MuARHv59cEKX-520" value="2" style="rounded=0;whiteSpace=wrap;html=1;glass=1;fontSize=14;fillColor=#f5f5f5;strokeColor=none;fontColor=#333333;" vertex="1" parent="NcRujNU-MuARHv59cEKX-516">
          <mxGeometry x="80" width="40" height="20" as="geometry"/>
        </mxCell>
        <mxCell id="NcRujNU-MuARHv59cEKX-521" value="3" style="rounded=0;whiteSpace=wrap;html=1;glass=1;fontSize=14;fillColor=#f5f5f5;strokeColor=none;fontColor=#333333;" vertex="1" parent="NcRujNU-MuARHv59cEKX-516">
          <mxGeometry x="120" width="40" height="20" as="geometry"/>
        </mxCell>
        <mxCell id="NcRujNU-MuARHv59cEKX-522" value="4" style="rounded=0;whiteSpace=wrap;html=1;glass=1;fontSize=14;fillColor=#f5f5f5;strokeColor=none;fontColor=#333333;" vertex="1" parent="NcRujNU-MuARHv59cEKX-516">
          <mxGeometry x="160" width="40" height="20" as="geometry"/>
        </mxCell>
        <mxCell id="NcRujNU-MuARHv59cEKX-523" value="5" style="rounded=0;whiteSpace=wrap;html=1;glass=1;fontSize=14;fillColor=#f5f5f5;strokeColor=none;fontColor=#333333;" vertex="1" parent="NcRujNU-MuARHv59cEKX-516">
          <mxGeometry x="200" width="40" height="20" as="geometry"/>
        </mxCell>
        <mxCell id="NcRujNU-MuARHv59cEKX-524" value="6" style="rounded=0;whiteSpace=wrap;html=1;glass=1;fontSize=14;fillColor=#f5f5f5;strokeColor=none;fontColor=#333333;" vertex="1" parent="NcRujNU-MuARHv59cEKX-516">
          <mxGeometry x="240" width="40" height="20" as="geometry"/>
        </mxCell>
        <mxCell id="NcRujNU-MuARHv59cEKX-525" value="7" style="rounded=0;whiteSpace=wrap;html=1;glass=1;fontSize=14;fillColor=#f5f5f5;strokeColor=none;fontColor=#333333;" vertex="1" parent="NcRujNU-MuARHv59cEKX-516">
          <mxGeometry x="280" width="40" height="20" as="geometry"/>
        </mxCell>
        <mxCell id="NcRujNU-MuARHv59cEKX-526" value="8" style="rounded=0;whiteSpace=wrap;html=1;glass=1;fontSize=14;fillColor=#f5f5f5;strokeColor=none;fontColor=#333333;" vertex="1" parent="NcRujNU-MuARHv59cEKX-516">
          <mxGeometry x="320" width="40" height="20" as="geometry"/>
        </mxCell>
        <mxCell id="NcRujNU-MuARHv59cEKX-527" value="10" style="rounded=0;whiteSpace=wrap;html=1;glass=1;fontSize=14;fillColor=#f5f5f5;strokeColor=none;fontColor=#333333;" vertex="1" parent="NcRujNU-MuARHv59cEKX-516">
          <mxGeometry x="400" width="40" height="20" as="geometry"/>
        </mxCell>
        <mxCell id="NcRujNU-MuARHv59cEKX-528" value="9" style="rounded=0;whiteSpace=wrap;html=1;glass=1;fontSize=14;fillColor=#f5f5f5;strokeColor=none;fontColor=#333333;" vertex="1" parent="NcRujNU-MuARHv59cEKX-516">
          <mxGeometry x="360" width="40" height="20" as="geometry"/>
        </mxCell>
        <mxCell id="NcRujNU-MuARHv59cEKX-529" value="" style="endArrow=none;html=1;fontSize=14;fontColor=#0000FF;entryX=0.988;entryY=1;entryDx=0;entryDy=0;entryPerimeter=0;exitX=0;exitY=1.2;exitDx=0;exitDy=0;exitPerimeter=0;dashed=1;dashPattern=1 2;" edge="1" parent="1" source="NcRujNU-MuARHv59cEKX-518" target="NcRujNU-MuARHv59cEKX-468">
          <mxGeometry width="50" height="50" relative="1" as="geometry">
            <mxPoint x="179.5" y="3130" as="sourcePoint"/>
            <mxPoint x="229.5" y="3080" as="targetPoint"/>
          </mxGeometry>
        </mxCell>
        <mxCell id="NcRujNU-MuARHv59cEKX-530" value="" style="endArrow=none;html=1;fontSize=14;fontColor=#0000FF;entryX=0.988;entryY=1;entryDx=0;entryDy=0;entryPerimeter=0;exitX=0;exitY=1.2;exitDx=0;exitDy=0;exitPerimeter=0;dashed=1;dashPattern=1 2;" edge="1" parent="1">
          <mxGeometry width="50" height="50" relative="1" as="geometry">
            <mxPoint x="518" y="3083" as="sourcePoint"/>
            <mxPoint x="639.02" y="3000" as="targetPoint"/>
          </mxGeometry>
        </mxCell>
        <mxCell id="NcRujNU-MuARHv59cEKX-531" value="&lt;pre style=&quot;background-color: #2b2b2b ; color: #a9b7c6 ; font-family: &amp;#34;宋体&amp;#34; ; font-size: 13.8pt&quot;&gt;&lt;br&gt;&lt;/pre&gt;" style="text;html=1;align=center;verticalAlign=middle;resizable=0;points=[];;autosize=1;fontSize=14;fontColor=#0000FF;" vertex="1" parent="1">
          <mxGeometry x="219.5" y="3004" width="20" height="60" as="geometry"/>
        </mxCell>
        <mxCell id="NcRujNU-MuARHv59cEKX-532" value="&lt;font color=&quot;#000000&quot;&gt;-2 = bufferS2.&lt;/font&gt;&lt;b&gt;&lt;i&gt;&lt;u&gt;&lt;font color=&quot;#cc0000&quot;&gt;compareTo&lt;/font&gt;&lt;/u&gt;&lt;/i&gt;&lt;/b&gt;&lt;font color=&quot;#000000&quot;&gt;(bufferT2)&lt;/font&gt;" style="text;html=1;align=center;verticalAlign=middle;resizable=0;points=[];;autosize=1;fontSize=14;fontColor=#0000FF;" vertex="1" parent="1">
          <mxGeometry x="119.5" y="3024" width="240" height="20" as="geometry"/>
        </mxCell>
        <mxCell id="NcRujNU-MuARHv59cEKX-533" value="a-c=-2" style="endArrow=none;html=1;fontSize=14;fontColor=#000000;entryX=0.988;entryY=1;entryDx=0;entryDy=0;entryPerimeter=0;exitX=0;exitY=1.2;exitDx=0;exitDy=0;exitPerimeter=0;" edge="1" parent="1">
          <mxGeometry width="50" height="50" relative="1" as="geometry">
            <mxPoint x="418.5" y="3082" as="sourcePoint"/>
            <mxPoint x="539.52" y="2999" as="targetPoint"/>
          </mxGeometry>
        </mxCell>
        <mxCell id="NcRujNU-MuARHv59cEKX-534" value="b-b=0" style="endArrow=none;html=1;fontSize=14;fontColor=#000000;entryX=0.988;entryY=1;entryDx=0;entryDy=0;entryPerimeter=0;exitX=0;exitY=1.2;exitDx=0;exitDy=0;exitPerimeter=0;" edge="1" parent="1">
          <mxGeometry width="50" height="50" relative="1" as="geometry">
            <mxPoint x="383" y="3082" as="sourcePoint"/>
            <mxPoint x="504.02" y="2999" as="targetPoint"/>
          </mxGeometry>
        </mxCell>
        <mxCell id="NcRujNU-MuARHv59cEKX-535" value="" style="endArrow=classic;html=1;fontSize=14;fontColor=#000000;" edge="1" parent="1">
          <mxGeometry width="50" height="50" relative="1" as="geometry">
            <mxPoint x="496" y="3024" as="sourcePoint"/>
            <mxPoint x="505" y="3024" as="targetPoint"/>
            <Array as="points">
              <mxPoint x="465" y="3024"/>
              <mxPoint x="496" y="3024"/>
            </Array>
          </mxGeometry>
        </mxCell>
        <mxCell id="NcRujNU-MuARHv59cEKX-536" value="" style="group" vertex="1" connectable="0" parent="1">
          <mxGeometry x="441" y="124.5" width="360" height="239" as="geometry"/>
        </mxCell>
        <mxCell id="NcRujNU-MuARHv59cEKX-8" value="&lt;div style=&quot;font-size: 6px&quot;&gt;&lt;br&gt;&lt;/div&gt;" style="endArrow=none;html=1;entryX=1;entryY=0.5;entryDx=0;entryDy=0;fontSize=6;" edge="1" parent="NcRujNU-MuARHv59cEKX-536" target="NcRujNU-MuARHv59cEKX-1">
          <mxGeometry width="50" height="50" relative="1" as="geometry">
            <mxPoint x="360" as="sourcePoint"/>
            <mxPoint x="-172.5" y="290" as="targetPoint"/>
          </mxGeometry>
        </mxCell>
        <mxCell id="NcRujNU-MuARHv59cEKX-10" value="&lt;div style=&quot;font-size: 6px&quot;&gt;&lt;br&gt;&lt;/div&gt;" style="endArrow=none;html=1;entryX=1;entryY=0.5;entryDx=0;entryDy=0;fontSize=6;" edge="1" parent="NcRujNU-MuARHv59cEKX-536">
          <mxGeometry width="50" height="50" relative="1" as="geometry">
            <mxPoint x="360" y="79" as="sourcePoint"/>
            <mxPoint y="79" as="targetPoint"/>
          </mxGeometry>
        </mxCell>
        <mxCell id="NcRujNU-MuARHv59cEKX-12" value="&lt;div style=&quot;font-size: 6px&quot;&gt;&lt;br&gt;&lt;/div&gt;" style="endArrow=none;html=1;entryX=1;entryY=0.5;entryDx=0;entryDy=0;fontSize=6;" edge="1" parent="NcRujNU-MuARHv59cEKX-536">
          <mxGeometry width="50" height="50" relative="1" as="geometry">
            <mxPoint x="360" y="158" as="sourcePoint"/>
            <mxPoint y="158" as="targetPoint"/>
          </mxGeometry>
        </mxCell>
        <mxCell id="NcRujNU-MuARHv59cEKX-14" value="&lt;div style=&quot;font-size: 6px&quot;&gt;&lt;br&gt;&lt;/div&gt;" style="endArrow=none;html=1;entryX=1;entryY=0.5;entryDx=0;entryDy=0;fontSize=6;" edge="1" parent="NcRujNU-MuARHv59cEKX-536">
          <mxGeometry width="50" height="50" relative="1" as="geometry">
            <mxPoint x="360" y="239" as="sourcePoint"/>
            <mxPoint y="239" as="targetPoint"/>
          </mxGeometry>
        </mxCell>
        <mxCell id="NcRujNU-MuARHv59cEKX-548" style="edgeStyle=orthogonalEdgeStyle;curved=1;rounded=0;orthogonalLoop=1;jettySize=auto;html=1;exitX=1;exitY=0.5;exitDx=0;exitDy=0;entryX=0;entryY=0.5;entryDx=0;entryDy=0;fontSize=17;fontColor=#000000;" edge="1" parent="1" source="NcRujNU-MuARHv59cEKX-537" target="NcRujNU-MuARHv59cEKX-538">
          <mxGeometry relative="1" as="geometry"/>
        </mxCell>
        <mxCell id="NcRujNU-MuARHv59cEKX-549" style="edgeStyle=orthogonalEdgeStyle;curved=1;rounded=0;orthogonalLoop=1;jettySize=auto;html=1;exitX=1;exitY=0.5;exitDx=0;exitDy=0;entryX=0;entryY=0.5;entryDx=0;entryDy=0;fontSize=17;fontColor=#000000;" edge="1" parent="1" source="NcRujNU-MuARHv59cEKX-537" target="NcRujNU-MuARHv59cEKX-542">
          <mxGeometry relative="1" as="geometry"/>
        </mxCell>
        <mxCell id="NcRujNU-MuARHv59cEKX-537" value="&lt;b style=&quot;font-size: 16px ; white-space: normal&quot;&gt;Buffer&lt;/b&gt;" style="rounded=1;whiteSpace=wrap;html=1;fillColor=#dae8fc;strokeColor=#6c8ebf;" vertex="1" parent="1">
          <mxGeometry x="80" y="3428.5" width="120" height="60" as="geometry"/>
        </mxCell>
        <mxCell id="NcRujNU-MuARHv59cEKX-538" value="创建" style="rounded=0;whiteSpace=wrap;html=1;glass=0;fontSize=14;" vertex="1" parent="1">
          <mxGeometry x="270" y="3360" width="70" height="40" as="geometry"/>
        </mxCell>
        <mxCell id="NcRujNU-MuARHv59cEKX-539" value="" style="shape=curlyBracket;whiteSpace=wrap;html=1;rounded=1;glass=1;strokeColor=#333333;fillColor=#333333;fontSize=14;fontColor=#000000;" vertex="1" parent="1">
          <mxGeometry x="339" y="3340" width="39" height="80" as="geometry"/>
        </mxCell>
        <mxCell id="NcRujNU-MuARHv59cEKX-540" value="allocate" style="text;html=1;align=center;verticalAlign=middle;resizable=0;points=[];;autosize=1;fontSize=17;fontColor=#000000;fontStyle=1" vertex="1" parent="1">
          <mxGeometry x="381.5" y="3330" width="80" height="30" as="geometry"/>
        </mxCell>
        <mxCell id="NcRujNU-MuARHv59cEKX-541" value="warp(array)：数据储存在数据中，&lt;br&gt;对过Buffer对象的操作会反映到数组上，&lt;br&gt;对数组的修改也会反映到Buffer对象上" style="text;html=1;align=left;verticalAlign=middle;resizable=0;points=[];;autosize=1;fontSize=17;fontColor=#000000;fontStyle=1" vertex="1" parent="1">
          <mxGeometry x="390" y="3380" width="330" height="70" as="geometry"/>
        </mxCell>
        <mxCell id="NcRujNU-MuARHv59cEKX-542" value="复制" style="rounded=0;whiteSpace=wrap;html=1;glass=0;fontSize=14;" vertex="1" parent="1">
          <mxGeometry x="271" y="3520" width="70" height="40" as="geometry"/>
        </mxCell>
        <mxCell id="NcRujNU-MuARHv59cEKX-543" value="duplicate：新Buffer与原Buffer共享数据（存储空间）" style="text;html=1;align=center;verticalAlign=middle;resizable=0;points=[];;autosize=1;fontSize=17;fontColor=#000000;fontStyle=1" vertex="1" parent="1">
          <mxGeometry x="396.5" y="3473.5" width="430" height="30" as="geometry"/>
        </mxCell>
        <mxCell id="NcRujNU-MuARHv59cEKX-544" value="asReadOnlyBuffer" style="text;html=1;align=center;verticalAlign=middle;resizable=0;points=[];;autosize=1;fontSize=17;fontColor=#000000;fontStyle=1" vertex="1" parent="1">
          <mxGeometry x="397" y="3531.5" width="160" height="30" as="geometry"/>
        </mxCell>
        <mxCell id="NcRujNU-MuARHv59cEKX-545" value="slice：新Buffer与原Buffer共享部分数据（存储空间）" style="text;html=1;align=center;verticalAlign=middle;resizable=0;points=[];;autosize=1;fontSize=17;fontColor=#000000;fontStyle=1" vertex="1" parent="1">
          <mxGeometry x="395" y="3576.5" width="430" height="30" as="geometry"/>
        </mxCell>
        <mxCell id="NcRujNU-MuARHv59cEKX-546" value="" style="shape=curlyBracket;whiteSpace=wrap;html=1;rounded=1;glass=1;strokeColor=#333333;fillColor=#333333;fontSize=14;fontColor=#000000;" vertex="1" parent="1">
          <mxGeometry x="345.5" y="3501.5" width="39" height="80" as="geometry"/>
        </mxCell>
        <mxCell id="NcRujNU-MuARHv59cEKX-687" style="edgeStyle=orthogonalEdgeStyle;rounded=0;orthogonalLoop=1;jettySize=auto;html=1;exitX=1;exitY=0.5;exitDx=0;exitDy=0;entryX=0;entryY=0.5;entryDx=0;entryDy=0;fontSize=18;fontColor=#000000;" edge="1" parent="1" source="NcRujNU-MuARHv59cEKX-550" target="NcRujNU-MuARHv59cEKX-551">
          <mxGeometry relative="1" as="geometry"/>
        </mxCell>
        <mxCell id="NcRujNU-MuARHv59cEKX-688" style="edgeStyle=orthogonalEdgeStyle;rounded=0;orthogonalLoop=1;jettySize=auto;html=1;exitX=1;exitY=0.5;exitDx=0;exitDy=0;entryX=0;entryY=0.5;entryDx=0;entryDy=0;fontSize=18;fontColor=#000000;" edge="1" parent="1" source="NcRujNU-MuARHv59cEKX-550" target="NcRujNU-MuARHv59cEKX-556">
          <mxGeometry relative="1" as="geometry">
            <Array as="points">
              <mxPoint x="191" y="3880"/>
              <mxPoint x="191" y="4040"/>
            </Array>
          </mxGeometry>
        </mxCell>
        <mxCell id="NcRujNU-MuARHv59cEKX-690" style="edgeStyle=orthogonalEdgeStyle;rounded=0;orthogonalLoop=1;jettySize=auto;html=1;exitX=1;exitY=0.5;exitDx=0;exitDy=0;entryX=0;entryY=0.5;entryDx=0;entryDy=0;fontSize=18;fontColor=#000000;" edge="1" parent="1" source="NcRujNU-MuARHv59cEKX-550" target="NcRujNU-MuARHv59cEKX-552">
          <mxGeometry relative="1" as="geometry"/>
        </mxCell>
        <mxCell id="NcRujNU-MuARHv59cEKX-691" style="edgeStyle=orthogonalEdgeStyle;rounded=0;orthogonalLoop=1;jettySize=auto;html=1;exitX=1;exitY=0.5;exitDx=0;exitDy=0;entryX=0;entryY=0.5;entryDx=0;entryDy=0;fontSize=18;fontColor=#000000;" edge="1" parent="1" source="NcRujNU-MuARHv59cEKX-550" target="NcRujNU-MuARHv59cEKX-555">
          <mxGeometry relative="1" as="geometry"/>
        </mxCell>
        <mxCell id="NcRujNU-MuARHv59cEKX-692" style="edgeStyle=orthogonalEdgeStyle;rounded=0;orthogonalLoop=1;jettySize=auto;html=1;exitX=1;exitY=0.5;exitDx=0;exitDy=0;entryX=0;entryY=0.5;entryDx=0;entryDy=0;fontSize=18;fontColor=#000000;" edge="1" parent="1" source="NcRujNU-MuARHv59cEKX-550" target="NcRujNU-MuARHv59cEKX-553">
          <mxGeometry relative="1" as="geometry"/>
        </mxCell>
        <mxCell id="NcRujNU-MuARHv59cEKX-693" style="edgeStyle=orthogonalEdgeStyle;rounded=0;orthogonalLoop=1;jettySize=auto;html=1;exitX=1;exitY=0.5;exitDx=0;exitDy=0;entryX=0;entryY=0.5;entryDx=0;entryDy=0;fontSize=18;fontColor=#000000;" edge="1" parent="1" source="NcRujNU-MuARHv59cEKX-550" target="NcRujNU-MuARHv59cEKX-554">
          <mxGeometry relative="1" as="geometry"/>
        </mxCell>
        <mxCell id="NcRujNU-MuARHv59cEKX-550" value="&lt;b style=&quot;font-size: 16px ; white-space: normal&quot;&gt;ByteBuffer&lt;/b&gt;" style="rounded=1;whiteSpace=wrap;html=1;fillColor=#dae8fc;strokeColor=#6c8ebf;" vertex="1" parent="1">
          <mxGeometry x="20" y="3850" width="120" height="60" as="geometry"/>
        </mxCell>
        <mxCell id="NcRujNU-MuARHv59cEKX-557" value="" style="group" vertex="1" connectable="0" parent="1">
          <mxGeometry x="238" y="3720" width="132" height="340" as="geometry"/>
        </mxCell>
        <mxCell id="NcRujNU-MuARHv59cEKX-551" value="字节顺序" style="rounded=0;whiteSpace=wrap;html=1;glass=0;fontSize=14;" vertex="1" parent="NcRujNU-MuARHv59cEKX-557">
          <mxGeometry x="3.6666666666666665" width="128.33333333333331" height="40" as="geometry"/>
        </mxCell>
        <mxCell id="NcRujNU-MuARHv59cEKX-552" value="直接缓存区" style="rounded=0;whiteSpace=wrap;html=1;glass=0;fontSize=14;" vertex="1" parent="NcRujNU-MuARHv59cEKX-557">
          <mxGeometry x="3.6666666666666665" y="60" width="128.33333333333331" height="40" as="geometry"/>
        </mxCell>
        <mxCell id="NcRujNU-MuARHv59cEKX-553" value="视图缓存区" style="rounded=0;whiteSpace=wrap;html=1;glass=0;fontSize=14;" vertex="1" parent="NcRujNU-MuARHv59cEKX-557">
          <mxGeometry x="1.8333333333333333" y="120" width="128.33333333333331" height="40" as="geometry"/>
        </mxCell>
        <mxCell id="NcRujNU-MuARHv59cEKX-554" value="数据元素视图" style="rounded=0;whiteSpace=wrap;html=1;glass=0;fontSize=14;" vertex="1" parent="NcRujNU-MuARHv59cEKX-557">
          <mxGeometry x="1.8333333333333333" y="180" width="128.33333333333331" height="40" as="geometry"/>
        </mxCell>
        <mxCell id="NcRujNU-MuARHv59cEKX-555" value="缓存无符号数据" style="rounded=0;whiteSpace=wrap;html=1;glass=0;fontSize=14;" vertex="1" parent="NcRujNU-MuARHv59cEKX-557">
          <mxGeometry x="1.8333333333333333" y="240" width="128.33333333333331" height="40" as="geometry"/>
        </mxCell>
        <mxCell id="NcRujNU-MuARHv59cEKX-556" value="内存映射缓存区" style="rounded=0;whiteSpace=wrap;html=1;glass=0;fontSize=14;" vertex="1" parent="NcRujNU-MuARHv59cEKX-557">
          <mxGeometry y="300" width="128.33333333333331" height="40" as="geometry"/>
        </mxCell>
        <mxCell id="NcRujNU-MuARHv59cEKX-558" value="大小端问题" style="text;html=1;align=center;verticalAlign=middle;resizable=0;points=[];;autosize=1;fontSize=17;fontColor=#000000;" vertex="1" parent="1">
          <mxGeometry x="406.5" y="3725" width="100" height="30" as="geometry"/>
        </mxCell>
        <mxCell id="NcRujNU-MuARHv59cEKX-559" value="&lt;div&gt;&lt;span style=&quot;font-family: &amp;#34;couriernewpsmt&amp;#34;&quot;&gt;&lt;font face=&quot;CourierNewPSMT&quot; style=&quot;font-size: 17px&quot;&gt;allocateDirect，堆外分配&lt;/font&gt;&lt;/span&gt;&lt;/div&gt;" style="text;html=1;align=center;verticalAlign=middle;resizable=0;points=[];;autosize=1;fontSize=17;fontColor=#000000;" vertex="1" parent="1">
          <mxGeometry x="406.5" y="3787" width="200" height="30" as="geometry"/>
        </mxCell>
        <mxCell id="NcRujNU-MuARHv59cEKX-696" style="edgeStyle=orthogonalEdgeStyle;shape=flexArrow;curved=1;rounded=0;orthogonalLoop=1;jettySize=auto;html=1;entryX=0.874;entryY=0.004;entryDx=0;entryDy=0;entryPerimeter=0;strokeColor=#B3B3B3;strokeWidth=2;fontSize=18;fontColor=#000000;exitX=1;exitY=0.5;exitDx=0;exitDy=0;" edge="1" parent="1" source="NcRujNU-MuARHv59cEKX-553" target="NcRujNU-MuARHv59cEKX-683">
          <mxGeometry relative="1" as="geometry">
            <Array as="points">
              <mxPoint x="461" y="3860"/>
              <mxPoint x="461" y="3980"/>
              <mxPoint x="714" y="3980"/>
            </Array>
          </mxGeometry>
        </mxCell>
        <mxCell id="NcRujNU-MuARHv59cEKX-560" value="&lt;div&gt;&lt;span style=&quot;font-family: &amp;#34;couriernewpsmt&amp;#34; ; font-size: 9pt&quot;&gt;&lt;font face=&quot;CourierNewPSMT&quot; style=&quot;font-size: 17px&quot;&gt;asCharBuffer&lt;/font&gt;&lt;/span&gt;&lt;/div&gt;" style="text;html=1;align=center;verticalAlign=middle;resizable=0;points=[];;autosize=1;fontSize=17;fontColor=#000000;" vertex="1" parent="1">
          <mxGeometry x="406.5" y="3850" width="110" height="30" as="geometry"/>
        </mxCell>
        <mxCell id="NcRujNU-MuARHv59cEKX-571" value="Null" style="rounded=0;whiteSpace=wrap;html=1;glass=1;fontSize=14;fillColor=#f5f5f5;strokeColor=#666666;fontColor=#333333;" vertex="1" parent="1">
          <mxGeometry x="33.5" y="4410" width="40" height="40" as="geometry"/>
        </mxCell>
        <mxCell id="NcRujNU-MuARHv59cEKX-572" style="edgeStyle=orthogonalEdgeStyle;curved=1;rounded=0;orthogonalLoop=1;jettySize=auto;html=1;exitX=0.5;exitY=0;exitDx=0;exitDy=0;entryX=0.5;entryY=1;entryDx=0;entryDy=0;fontSize=14;" edge="1" parent="1" source="NcRujNU-MuARHv59cEKX-573">
          <mxGeometry relative="1" as="geometry">
            <mxPoint x="58.5" y="4370" as="targetPoint"/>
          </mxGeometry>
        </mxCell>
        <mxCell id="NcRujNU-MuARHv59cEKX-573" value="0" style="rounded=0;whiteSpace=wrap;html=1;glass=1;fontSize=14;fillColor=#f5f5f5;strokeColor=#666666;fontColor=#333333;" vertex="1" parent="1">
          <mxGeometry x="88.5" y="4410" width="40" height="40" as="geometry"/>
        </mxCell>
        <mxCell id="NcRujNU-MuARHv59cEKX-641" style="edgeStyle=orthogonalEdgeStyle;curved=1;rounded=0;orthogonalLoop=1;jettySize=auto;html=1;exitX=0.5;exitY=0;exitDx=0;exitDy=0;entryX=0.5;entryY=1;entryDx=0;entryDy=0;fontSize=17;fontColor=#000000;" edge="1" parent="1" source="NcRujNU-MuARHv59cEKX-575" target="NcRujNU-MuARHv59cEKX-639">
          <mxGeometry relative="1" as="geometry"/>
        </mxCell>
        <mxCell id="NcRujNU-MuARHv59cEKX-575" value="7" style="rounded=0;whiteSpace=wrap;html=1;glass=1;fontSize=14;fillColor=#f5f5f5;strokeColor=#666666;fontColor=#333333;" vertex="1" parent="1">
          <mxGeometry x="255.5" y="4410" width="40" height="40" as="geometry"/>
        </mxCell>
        <mxCell id="NcRujNU-MuARHv59cEKX-638" style="edgeStyle=orthogonalEdgeStyle;curved=1;rounded=0;orthogonalLoop=1;jettySize=auto;html=1;exitX=0.5;exitY=0;exitDx=0;exitDy=0;entryX=0.5;entryY=1;entryDx=0;entryDy=0;fontSize=17;fontColor=#000000;" edge="1" parent="1" source="NcRujNU-MuARHv59cEKX-577" target="NcRujNU-MuARHv59cEKX-639">
          <mxGeometry relative="1" as="geometry"/>
        </mxCell>
        <mxCell id="NcRujNU-MuARHv59cEKX-577" value="7" style="rounded=0;whiteSpace=wrap;html=1;glass=1;fontSize=14;fillColor=#f5f5f5;strokeColor=#666666;fontColor=#333333;" vertex="1" parent="1">
          <mxGeometry x="313.5" y="4410" width="40" height="40" as="geometry"/>
        </mxCell>
        <mxCell id="NcRujNU-MuARHv59cEKX-579" value="position" style="text;html=1;align=center;verticalAlign=middle;resizable=0;points=[];;autosize=1;fontSize=14;" vertex="1" parent="1">
          <mxGeometry x="81.5" y="4450" width="60" height="20" as="geometry"/>
        </mxCell>
        <mxCell id="NcRujNU-MuARHv59cEKX-580" value="limit" style="text;html=1;align=center;verticalAlign=middle;resizable=0;points=[];;autosize=1;fontSize=14;" vertex="1" parent="1">
          <mxGeometry x="254.5" y="4450" width="40" height="20" as="geometry"/>
        </mxCell>
        <mxCell id="NcRujNU-MuARHv59cEKX-581" value="capacity" style="text;html=1;align=center;verticalAlign=middle;resizable=0;points=[];;autosize=1;fontSize=14;" vertex="1" parent="1">
          <mxGeometry x="303.5" y="4450" width="70" height="20" as="geometry"/>
        </mxCell>
        <mxCell id="NcRujNU-MuARHv59cEKX-582" value="mark" style="text;html=1;align=center;verticalAlign=middle;resizable=0;points=[];;autosize=1;fontSize=14;" vertex="1" parent="1">
          <mxGeometry x="32.5" y="4450" width="50" height="20" as="geometry"/>
        </mxCell>
        <mxCell id="NcRujNU-MuARHv59cEKX-596" value="" style="rounded=0;whiteSpace=wrap;html=1;glass=1;fontSize=14;fillColor=#FFCCE6;fontStyle=3;fontColor=#0000FF;" vertex="1" parent="1">
          <mxGeometry x="303.5" y="4190" width="40" height="40" as="geometry"/>
        </mxCell>
        <mxCell id="NcRujNU-MuARHv59cEKX-597" value="" style="rounded=0;whiteSpace=wrap;html=1;glass=1;fontSize=14;fillColor=#FFCCE6;fontStyle=3;fontColor=#0000FF;" vertex="1" parent="1">
          <mxGeometry x="343.5" y="4190" width="40" height="40" as="geometry"/>
        </mxCell>
        <mxCell id="NcRujNU-MuARHv59cEKX-598" value="" style="rounded=0;whiteSpace=wrap;html=1;glass=1;fontSize=14;fillColor=#FFCCE6;fontStyle=3;fontColor=#0000FF;" vertex="1" parent="1">
          <mxGeometry x="383.5" y="4190" width="40" height="40" as="geometry"/>
        </mxCell>
        <mxCell id="NcRujNU-MuARHv59cEKX-599" value="" style="rounded=0;whiteSpace=wrap;html=1;glass=1;fontSize=14;fillColor=#FFCCE6;fontStyle=3;fontColor=#0000FF;" vertex="1" parent="1">
          <mxGeometry x="423.5" y="4190" width="40" height="40" as="geometry"/>
        </mxCell>
        <mxCell id="NcRujNU-MuARHv59cEKX-600" value="" style="rounded=0;whiteSpace=wrap;html=1;glass=1;fontSize=14;fillColor=#FFCCE6;" vertex="1" parent="1">
          <mxGeometry x="463.5" y="4190" width="40" height="40" as="geometry"/>
        </mxCell>
        <mxCell id="NcRujNU-MuARHv59cEKX-601" value="" style="rounded=0;whiteSpace=wrap;html=1;glass=1;fontSize=14;fillColor=#FFCCE6;" vertex="1" parent="1">
          <mxGeometry x="504" y="4190" width="41" height="40" as="geometry"/>
        </mxCell>
        <mxCell id="NcRujNU-MuARHv59cEKX-609" value="0" style="rounded=0;whiteSpace=wrap;html=1;glass=1;fontSize=14;fillColor=#f5f5f5;strokeColor=none;fontColor=#333333;" vertex="1" parent="1">
          <mxGeometry x="304.5" y="4170" width="38.272727272727266" height="20" as="geometry"/>
        </mxCell>
        <mxCell id="NcRujNU-MuARHv59cEKX-610" value="1" style="rounded=0;whiteSpace=wrap;html=1;glass=1;fontSize=14;fillColor=#f5f5f5;strokeColor=none;fontColor=#333333;" vertex="1" parent="1">
          <mxGeometry x="344.27272727272725" y="4170" width="38.272727272727266" height="20" as="geometry"/>
        </mxCell>
        <mxCell id="NcRujNU-MuARHv59cEKX-611" value="2" style="rounded=0;whiteSpace=wrap;html=1;glass=1;fontSize=14;fillColor=#f5f5f5;strokeColor=none;fontColor=#333333;" vertex="1" parent="1">
          <mxGeometry x="384.0454545454545" y="4170" width="38.272727272727266" height="20" as="geometry"/>
        </mxCell>
        <mxCell id="NcRujNU-MuARHv59cEKX-612" value="3" style="rounded=0;whiteSpace=wrap;html=1;glass=1;fontSize=14;fillColor=#f5f5f5;strokeColor=none;fontColor=#333333;" vertex="1" parent="1">
          <mxGeometry x="424.31818181818187" y="4170" width="38.272727272727266" height="20" as="geometry"/>
        </mxCell>
        <mxCell id="NcRujNU-MuARHv59cEKX-613" value="4" style="rounded=0;whiteSpace=wrap;html=1;glass=1;fontSize=14;fillColor=#f5f5f5;strokeColor=none;fontColor=#333333;" vertex="1" parent="1">
          <mxGeometry x="464.59090909090907" y="4170" width="38.272727272727266" height="20" as="geometry"/>
        </mxCell>
        <mxCell id="NcRujNU-MuARHv59cEKX-614" value="5" style="rounded=0;whiteSpace=wrap;html=1;glass=1;fontSize=14;fillColor=#f5f5f5;strokeColor=none;fontColor=#333333;" vertex="1" parent="1">
          <mxGeometry x="504.8636363636364" y="4170" width="38.272727272727266" height="20" as="geometry"/>
        </mxCell>
        <mxCell id="NcRujNU-MuARHv59cEKX-615" value="6" style="rounded=0;whiteSpace=wrap;html=1;glass=1;fontSize=14;fillColor=#f5f5f5;strokeColor=none;fontColor=#333333;" vertex="1" parent="1">
          <mxGeometry x="546.6363636363637" y="4170" width="38.272727272727266" height="20" as="geometry"/>
        </mxCell>
        <mxCell id="NcRujNU-MuARHv59cEKX-620" value="" style="rounded=0;whiteSpace=wrap;html=1;glass=1;fontSize=14;fillColor=#FFCCE6;" vertex="1" parent="1">
          <mxGeometry x="545" y="4190" width="41" height="40" as="geometry"/>
        </mxCell>
        <mxCell id="NcRujNU-MuARHv59cEKX-621" value="存储空间" style="text;html=1;align=center;verticalAlign=middle;resizable=0;points=[];;autosize=1;fontSize=17;fontColor=#000000;" vertex="1" parent="1">
          <mxGeometry x="593.5" y="4195" width="80" height="30" as="geometry"/>
        </mxCell>
        <mxCell id="NcRujNU-MuARHv59cEKX-622" value="" style="rounded=0;whiteSpace=wrap;html=1;glass=1;fontSize=14;fillColor=#FFCCE6;fontStyle=3;fontColor=#0000FF;" vertex="1" parent="1">
          <mxGeometry x="32.5" y="4330" width="40" height="40" as="geometry"/>
        </mxCell>
        <mxCell id="NcRujNU-MuARHv59cEKX-623" value="" style="rounded=0;whiteSpace=wrap;html=1;glass=1;fontSize=14;fillColor=#FFCCE6;fontStyle=3;fontColor=#0000FF;" vertex="1" parent="1">
          <mxGeometry x="72.5" y="4330" width="40" height="40" as="geometry"/>
        </mxCell>
        <mxCell id="NcRujNU-MuARHv59cEKX-624" value="" style="rounded=0;whiteSpace=wrap;html=1;glass=1;fontSize=14;fillColor=#FFCCE6;fontStyle=3;fontColor=#0000FF;" vertex="1" parent="1">
          <mxGeometry x="112.5" y="4330" width="40" height="40" as="geometry"/>
        </mxCell>
        <mxCell id="NcRujNU-MuARHv59cEKX-625" value="" style="rounded=0;whiteSpace=wrap;html=1;glass=1;fontSize=14;fillColor=#FFCCE6;fontStyle=3;fontColor=#0000FF;" vertex="1" parent="1">
          <mxGeometry x="152.5" y="4330" width="40" height="40" as="geometry"/>
        </mxCell>
        <mxCell id="NcRujNU-MuARHv59cEKX-626" value="" style="rounded=0;whiteSpace=wrap;html=1;glass=1;fontSize=14;fillColor=#FFCCE6;" vertex="1" parent="1">
          <mxGeometry x="192.5" y="4330" width="40" height="40" as="geometry"/>
        </mxCell>
        <mxCell id="NcRujNU-MuARHv59cEKX-627" value="" style="rounded=0;whiteSpace=wrap;html=1;glass=1;fontSize=14;fillColor=#FFCCE6;" vertex="1" parent="1">
          <mxGeometry x="233" y="4330" width="41" height="40" as="geometry"/>
        </mxCell>
        <mxCell id="NcRujNU-MuARHv59cEKX-628" value="0" style="rounded=0;whiteSpace=wrap;html=1;glass=1;fontSize=14;fillColor=#f5f5f5;strokeColor=none;fontColor=#333333;" vertex="1" parent="1">
          <mxGeometry x="33.5" y="4310" width="38.272727272727266" height="20" as="geometry"/>
        </mxCell>
        <mxCell id="NcRujNU-MuARHv59cEKX-629" value="1" style="rounded=0;whiteSpace=wrap;html=1;glass=1;fontSize=14;fillColor=#f5f5f5;strokeColor=none;fontColor=#333333;" vertex="1" parent="1">
          <mxGeometry x="73.27272727272725" y="4310" width="38.272727272727266" height="20" as="geometry"/>
        </mxCell>
        <mxCell id="NcRujNU-MuARHv59cEKX-630" value="2" style="rounded=0;whiteSpace=wrap;html=1;glass=1;fontSize=14;fillColor=#f5f5f5;strokeColor=none;fontColor=#333333;" vertex="1" parent="1">
          <mxGeometry x="113.0454545454545" y="4310" width="38.272727272727266" height="20" as="geometry"/>
        </mxCell>
        <mxCell id="NcRujNU-MuARHv59cEKX-631" value="3" style="rounded=0;whiteSpace=wrap;html=1;glass=1;fontSize=14;fillColor=#f5f5f5;strokeColor=none;fontColor=#333333;" vertex="1" parent="1">
          <mxGeometry x="153.31818181818187" y="4310" width="38.272727272727266" height="20" as="geometry"/>
        </mxCell>
        <mxCell id="NcRujNU-MuARHv59cEKX-632" value="4" style="rounded=0;whiteSpace=wrap;html=1;glass=1;fontSize=14;fillColor=#f5f5f5;strokeColor=none;fontColor=#333333;" vertex="1" parent="1">
          <mxGeometry x="193.59090909090907" y="4310" width="38.272727272727266" height="20" as="geometry"/>
        </mxCell>
        <mxCell id="NcRujNU-MuARHv59cEKX-633" value="5" style="rounded=0;whiteSpace=wrap;html=1;glass=1;fontSize=14;fillColor=#f5f5f5;strokeColor=none;fontColor=#333333;" vertex="1" parent="1">
          <mxGeometry x="233.86363636363637" y="4310" width="38.272727272727266" height="20" as="geometry"/>
        </mxCell>
        <mxCell id="NcRujNU-MuARHv59cEKX-634" value="6" style="rounded=0;whiteSpace=wrap;html=1;glass=1;fontSize=14;fillColor=#f5f5f5;strokeColor=none;fontColor=#333333;" vertex="1" parent="1">
          <mxGeometry x="275.6363636363637" y="4310" width="38.272727272727266" height="20" as="geometry"/>
        </mxCell>
        <mxCell id="NcRujNU-MuARHv59cEKX-635" value="" style="rounded=0;whiteSpace=wrap;html=1;glass=1;fontSize=14;fillColor=#FFCCE6;" vertex="1" parent="1">
          <mxGeometry x="274" y="4330" width="41" height="40" as="geometry"/>
        </mxCell>
        <mxCell id="NcRujNU-MuARHv59cEKX-639" value="" style="rounded=0;whiteSpace=wrap;html=1;glass=1;fontSize=14;fillColor=#333333;strokeColor=#333333;" vertex="1" parent="1">
          <mxGeometry x="314" y="4331" width="40" height="40" as="geometry"/>
        </mxCell>
        <mxCell id="NcRujNU-MuARHv59cEKX-640" value="7" style="rounded=0;whiteSpace=wrap;html=1;glass=1;fontSize=14;fillColor=#f5f5f5;strokeColor=none;fontColor=#333333;" vertex="1" parent="1">
          <mxGeometry x="314.6363636363637" y="4311" width="38.272727272727266" height="20" as="geometry"/>
        </mxCell>
        <mxCell id="NcRujNU-MuARHv59cEKX-642" value="Null" style="rounded=0;whiteSpace=wrap;html=1;glass=1;fontSize=14;fillColor=#f5f5f5;strokeColor=#666666;fontColor=#333333;" vertex="1" parent="1">
          <mxGeometry x="557.5" y="4410" width="40" height="40" as="geometry"/>
        </mxCell>
        <mxCell id="NcRujNU-MuARHv59cEKX-643" style="edgeStyle=orthogonalEdgeStyle;curved=1;rounded=0;orthogonalLoop=1;jettySize=auto;html=1;exitX=0.5;exitY=0;exitDx=0;exitDy=0;entryX=0.5;entryY=1;entryDx=0;entryDy=0;fontSize=14;" edge="1" parent="1" source="NcRujNU-MuARHv59cEKX-644">
          <mxGeometry relative="1" as="geometry">
            <mxPoint x="582.5" y="4370" as="targetPoint"/>
          </mxGeometry>
        </mxCell>
        <mxCell id="NcRujNU-MuARHv59cEKX-644" value="0" style="rounded=0;whiteSpace=wrap;html=1;glass=1;fontSize=14;fillColor=#f5f5f5;strokeColor=#666666;fontColor=#333333;" vertex="1" parent="1">
          <mxGeometry x="602.5" y="4410" width="40" height="40" as="geometry"/>
        </mxCell>
        <mxCell id="NcRujNU-MuARHv59cEKX-645" style="edgeStyle=orthogonalEdgeStyle;curved=1;rounded=0;orthogonalLoop=1;jettySize=auto;html=1;exitX=0.5;exitY=0;exitDx=0;exitDy=0;entryX=0.5;entryY=1;entryDx=0;entryDy=0;fontSize=17;fontColor=#000000;" edge="1" parent="1" source="NcRujNU-MuARHv59cEKX-646" target="NcRujNU-MuARHv59cEKX-667">
          <mxGeometry relative="1" as="geometry"/>
        </mxCell>
        <mxCell id="NcRujNU-MuARHv59cEKX-646" value="3" style="rounded=0;whiteSpace=wrap;html=1;glass=1;fontSize=14;fillColor=#f5f5f5;strokeColor=#666666;fontColor=#333333;" vertex="1" parent="1">
          <mxGeometry x="648.5" y="4410" width="40" height="40" as="geometry"/>
        </mxCell>
        <mxCell id="NcRujNU-MuARHv59cEKX-647" style="edgeStyle=orthogonalEdgeStyle;curved=1;rounded=0;orthogonalLoop=1;jettySize=auto;html=1;exitX=0.5;exitY=0;exitDx=0;exitDy=0;entryX=0.5;entryY=1;entryDx=0;entryDy=0;fontSize=17;fontColor=#000000;" edge="1" parent="1" source="NcRujNU-MuARHv59cEKX-648" target="NcRujNU-MuARHv59cEKX-667">
          <mxGeometry relative="1" as="geometry"/>
        </mxCell>
        <mxCell id="NcRujNU-MuARHv59cEKX-648" value="3" style="rounded=0;whiteSpace=wrap;html=1;glass=1;fontSize=14;fillColor=#f5f5f5;strokeColor=#666666;fontColor=#333333;" vertex="1" parent="1">
          <mxGeometry x="695.5" y="4410" width="40" height="40" as="geometry"/>
        </mxCell>
        <mxCell id="NcRujNU-MuARHv59cEKX-649" value="position" style="text;html=1;align=center;verticalAlign=middle;resizable=0;points=[];;autosize=1;fontSize=14;" vertex="1" parent="1">
          <mxGeometry x="598.5" y="4450" width="60" height="20" as="geometry"/>
        </mxCell>
        <mxCell id="NcRujNU-MuARHv59cEKX-650" value="limit" style="text;html=1;align=center;verticalAlign=middle;resizable=0;points=[];;autosize=1;fontSize=14;" vertex="1" parent="1">
          <mxGeometry x="656.5" y="4450" width="40" height="20" as="geometry"/>
        </mxCell>
        <mxCell id="NcRujNU-MuARHv59cEKX-651" value="capacity" style="text;html=1;align=center;verticalAlign=middle;resizable=0;points=[];;autosize=1;fontSize=14;" vertex="1" parent="1">
          <mxGeometry x="687.5" y="4450" width="70" height="20" as="geometry"/>
        </mxCell>
        <mxCell id="NcRujNU-MuARHv59cEKX-652" value="mark" style="text;html=1;align=center;verticalAlign=middle;resizable=0;points=[];;autosize=1;fontSize=14;" vertex="1" parent="1">
          <mxGeometry x="556.5" y="4450" width="50" height="20" as="geometry"/>
        </mxCell>
        <mxCell id="NcRujNU-MuARHv59cEKX-653" value="" style="rounded=0;whiteSpace=wrap;html=1;glass=1;fontSize=14;fillColor=#ffe6cc;fontStyle=3;strokeColor=#d79b00;" vertex="1" parent="1">
          <mxGeometry x="556.5" y="4330" width="40" height="40" as="geometry"/>
        </mxCell>
        <mxCell id="NcRujNU-MuARHv59cEKX-654" value="" style="rounded=0;whiteSpace=wrap;html=1;glass=1;fontSize=14;fillColor=#ffe6cc;fontStyle=3;strokeColor=#d79b00;" vertex="1" parent="1">
          <mxGeometry x="596.5" y="4330" width="40" height="40" as="geometry"/>
        </mxCell>
        <mxCell id="NcRujNU-MuARHv59cEKX-655" value="" style="rounded=0;whiteSpace=wrap;html=1;glass=1;fontSize=14;fillColor=#ffe6cc;fontStyle=3;strokeColor=#d79b00;" vertex="1" parent="1">
          <mxGeometry x="636.5" y="4330" width="40" height="40" as="geometry"/>
        </mxCell>
        <mxCell id="NcRujNU-MuARHv59cEKX-659" value="0" style="rounded=0;whiteSpace=wrap;html=1;glass=1;fontSize=14;fillColor=#f5f5f5;strokeColor=none;fontColor=#333333;" vertex="1" parent="1">
          <mxGeometry x="557.5" y="4310" width="38.272727272727266" height="20" as="geometry"/>
        </mxCell>
        <mxCell id="NcRujNU-MuARHv59cEKX-660" value="1" style="rounded=0;whiteSpace=wrap;html=1;glass=1;fontSize=14;fillColor=#f5f5f5;strokeColor=none;fontColor=#333333;" vertex="1" parent="1">
          <mxGeometry x="597.2727272727273" y="4310" width="38.272727272727266" height="20" as="geometry"/>
        </mxCell>
        <mxCell id="NcRujNU-MuARHv59cEKX-661" value="2" style="rounded=0;whiteSpace=wrap;html=1;glass=1;fontSize=14;fillColor=#f5f5f5;strokeColor=none;fontColor=#333333;" vertex="1" parent="1">
          <mxGeometry x="637.0454545454545" y="4310" width="38.272727272727266" height="20" as="geometry"/>
        </mxCell>
        <mxCell id="NcRujNU-MuARHv59cEKX-662" value="3" style="rounded=0;whiteSpace=wrap;html=1;glass=1;fontSize=14;fillColor=#f5f5f5;strokeColor=none;fontColor=#333333;" vertex="1" parent="1">
          <mxGeometry x="677.3181818181819" y="4310" width="38.272727272727266" height="20" as="geometry"/>
        </mxCell>
        <mxCell id="NcRujNU-MuARHv59cEKX-667" value="" style="rounded=0;whiteSpace=wrap;html=1;glass=1;fontSize=14;fillColor=#333333;strokeColor=#333333;" vertex="1" parent="1">
          <mxGeometry x="677.5" y="4331" width="40" height="40" as="geometry"/>
        </mxCell>
        <mxCell id="NcRujNU-MuARHv59cEKX-669" value="" style="endArrow=none;html=1;fontSize=17;fontColor=#000000;exitX=0.013;exitY=0.075;exitDx=0;exitDy=0;exitPerimeter=0;" edge="1" parent="1" source="NcRujNU-MuARHv59cEKX-622">
          <mxGeometry width="50" height="50" relative="1" as="geometry">
            <mxPoint x="102" y="4150" as="sourcePoint"/>
            <mxPoint x="302" y="4230" as="targetPoint"/>
          </mxGeometry>
        </mxCell>
        <mxCell id="NcRujNU-MuARHv59cEKX-670" value="" style="endArrow=none;html=1;fontSize=17;fontColor=#000000;exitX=0.976;exitY=1.2;exitDx=0;exitDy=0;exitPerimeter=0;entryX=1.049;entryY=1;entryDx=0;entryDy=0;entryPerimeter=0;" edge="1" parent="1" source="NcRujNU-MuARHv59cEKX-634" target="NcRujNU-MuARHv59cEKX-620">
          <mxGeometry width="50" height="50" relative="1" as="geometry">
            <mxPoint x="43.01999999999998" y="4343" as="sourcePoint"/>
            <mxPoint x="312" y="4240" as="targetPoint"/>
          </mxGeometry>
        </mxCell>
        <mxCell id="NcRujNU-MuARHv59cEKX-671" value="" style="endArrow=none;html=1;fontSize=17;fontColor=#000000;entryX=-0.037;entryY=0.975;entryDx=0;entryDy=0;entryPerimeter=0;exitX=-0.013;exitY=1.14;exitDx=0;exitDy=0;exitPerimeter=0;" edge="1" parent="1" source="NcRujNU-MuARHv59cEKX-659" target="NcRujNU-MuARHv59cEKX-596">
          <mxGeometry width="50" height="50" relative="1" as="geometry">
            <mxPoint x="553" y="4331" as="sourcePoint"/>
            <mxPoint x="872" y="4240" as="targetPoint"/>
          </mxGeometry>
        </mxCell>
        <mxCell id="NcRujNU-MuARHv59cEKX-672" value="" style="endArrow=none;html=1;fontSize=17;fontColor=#000000;exitX=0.003;exitY=0.03;exitDx=0;exitDy=0;exitPerimeter=0;entryX=-0.037;entryY=1;entryDx=0;entryDy=0;entryPerimeter=0;" edge="1" parent="1" source="NcRujNU-MuARHv59cEKX-654" target="NcRujNU-MuARHv59cEKX-598">
          <mxGeometry width="50" height="50" relative="1" as="geometry">
            <mxPoint x="182" y="4200" as="sourcePoint"/>
            <mxPoint x="379" y="4230" as="targetPoint"/>
          </mxGeometry>
        </mxCell>
        <mxCell id="NcRujNU-MuARHv59cEKX-673" value="" style="endArrow=none;html=1;fontSize=17;fontColor=#000000;exitX=1.003;exitY=0.01;exitDx=0;exitDy=0;exitPerimeter=0;entryX=1.008;entryY=1.02;entryDx=0;entryDy=0;entryPerimeter=0;" edge="1" parent="1" source="NcRujNU-MuARHv59cEKX-654" target="NcRujNU-MuARHv59cEKX-599">
          <mxGeometry width="50" height="50" relative="1" as="geometry">
            <mxPoint x="606.6200000000001" y="4341.2" as="sourcePoint"/>
            <mxPoint x="392.0200000000001" y="4240" as="targetPoint"/>
          </mxGeometry>
        </mxCell>
        <mxCell id="NcRujNU-MuARHv59cEKX-674" value="" style="endArrow=none;html=1;fontSize=17;fontColor=#000000;exitX=1.003;exitY=0.03;exitDx=0;exitDy=0;exitPerimeter=0;entryX=1;entryY=1;entryDx=0;entryDy=0;entryPerimeter=0;" edge="1" parent="1" source="NcRujNU-MuARHv59cEKX-655" target="NcRujNU-MuARHv59cEKX-601">
          <mxGeometry width="50" height="50" relative="1" as="geometry">
            <mxPoint x="616.6200000000001" y="4351.2" as="sourcePoint"/>
            <mxPoint x="402.0200000000001" y="4250" as="targetPoint"/>
          </mxGeometry>
        </mxCell>
        <mxCell id="NcRujNU-MuARHv59cEKX-675" value="" style="rounded=0;whiteSpace=wrap;html=1;glass=1;fontSize=14;fillColor=#fff2cc;strokeColor=#d6b656;" vertex="1" parent="1">
          <mxGeometry x="304" y="4220" width="78" height="10" as="geometry"/>
        </mxCell>
        <mxCell id="NcRujNU-MuARHv59cEKX-676" value="" style="rounded=0;whiteSpace=wrap;html=1;glass=1;fontSize=14;fillColor=#fff2cc;strokeColor=#d6b656;" vertex="1" parent="1">
          <mxGeometry x="465.5" y="4220" width="78" height="10" as="geometry"/>
        </mxCell>
        <mxCell id="NcRujNU-MuARHv59cEKX-677" value="" style="rounded=0;whiteSpace=wrap;html=1;glass=1;fontSize=14;fillColor=#fff2cc;strokeColor=#d6b656;" vertex="1" parent="1">
          <mxGeometry x="384.5" y="4220" width="78" height="10" as="geometry"/>
        </mxCell>
        <mxCell id="NcRujNU-MuARHv59cEKX-678" value="ByteBuffer" style="text;html=1;align=center;verticalAlign=middle;resizable=0;points=[];;autosize=1;fontSize=17;fontColor=#000000;" vertex="1" parent="1">
          <mxGeometry x="359" y="4335" width="90" height="30" as="geometry"/>
        </mxCell>
        <mxCell id="NcRujNU-MuARHv59cEKX-679" value="CharBuffer" style="text;html=1;align=center;verticalAlign=middle;resizable=0;points=[];;autosize=1;fontSize=17;fontColor=#000000;" vertex="1" parent="1">
          <mxGeometry x="711" y="4335" width="100" height="30" as="geometry"/>
        </mxCell>
        <mxCell id="NcRujNU-MuARHv59cEKX-681" value="&lt;div&gt;&lt;font face=&quot;CourierNewPSMT&quot;&gt;getChar(),putChar(char),或者其他类型&lt;/font&gt;&lt;/div&gt;" style="text;html=1;align=center;verticalAlign=middle;resizable=0;points=[];;autosize=1;fontSize=17;fontColor=#000000;" vertex="1" parent="1">
          <mxGeometry x="405" y="3904" width="290" height="30" as="geometry"/>
        </mxCell>
        <mxCell id="NcRujNU-MuARHv59cEKX-682" value="&lt;div style=&quot;font-size: 18px&quot;&gt;&lt;span style=&quot;font-size: 18px&quot;&gt;&lt;font face=&quot;宋体&quot; style=&quot;font-size: 18px&quot;&gt;映射缓冲区是带有存储在文件，通过内存映射来存&lt;/font&gt;&lt;/span&gt;&lt;/div&gt;&lt;div style=&quot;font-size: 18px&quot;&gt;&lt;span style=&quot;font-size: 18px&quot;&gt;&lt;font face=&quot;宋体&quot; style=&quot;font-size: 18px&quot;&gt;取数据元素的字节缓冲区。&lt;/font&gt;&lt;/span&gt;&lt;span&gt;&lt;font face=&quot;宋体&quot;&gt;映射缓冲区&lt;/font&gt;&lt;/span&gt;&lt;span&gt;&lt;font face=&quot;宋体&quot;&gt;通常是直&lt;/font&gt;&lt;/span&gt;&lt;span&gt;&lt;font face=&quot;宋体&quot;&gt;接&lt;/font&gt;&lt;/span&gt;&lt;/div&gt;&lt;div style=&quot;font-size: 18px&quot;&gt;&lt;span&gt;&lt;font face=&quot;宋体&quot;&gt;存&lt;/font&gt;&lt;/span&gt;&lt;span&gt;&lt;font face=&quot;宋体&quot;&gt;取内存的，只能通过&lt;/font&gt;&lt;/span&gt;&lt;span style=&quot;font-family: &amp;#34;couriernewpsmt&amp;#34;&quot;&gt;&lt;font face=&quot;CourierNewPSMT&quot;&gt;FileChannel&lt;/font&gt;&lt;/span&gt;&lt;span&gt;&lt;font face=&quot;宋体&quot;&gt;类创建。&lt;/font&gt;&lt;/span&gt;&lt;/div&gt;" style="text;html=1;align=center;verticalAlign=middle;resizable=0;points=[];;autosize=1;fontSize=18;fontColor=#000000;" vertex="1" parent="1">
          <mxGeometry x="394" y="4009" width="410" height="70" as="geometry"/>
        </mxCell>
      </root>
    </mxGraphModel>
  </diagram>
</mxfile>
